<?xml version="1.0" encoding="UTF-8" standalone="no"?>
<!DOCTYPE svg PUBLIC "-//W3C//DTD SVG 1.1//EN" "http://www.w3.org/Graphics/SVG/1.1/DTD/svg11.dtd">
<svg xmlns="http://www.w3.org/2000/svg" version="1.1" viewBox="0.00 0.00 1024.00 682.00">
<g stroke-width="2.00" fill="none" stroke-linecap="butt">
<path stroke="#feaa88" vector-effect="non-scaling-stroke" d="
  M 178.97 432.02
  L 219.92 391.87
  A 0.59 0.59 0.0 0 1 220.75 391.88
  Q 223.14 394.32 246.33 417.95
  Q 249.40 421.08 252.82 420.16
  Q 254.47 419.72 258.37 415.81
  Q 353.09 320.88 377.42 296.44
  A 0.54 0.54 0.0 0 1 378.19 296.44
  L 387.45 305.70
  A 0.92 0.87 71.2 0 0 387.89 305.93
  Q 390.30 306.33 390.76 304.45
  Q 397.14 278.62 403.20 254.73
  Q 403.57 253.28 403.75 250.98
  A 2.96 2.71 -78.8 0 0 401.96 248.03
  Q 400.72 247.59 399.00 248.00
  Q 351.51 259.27 351.47 259.28
  Q 346.44 260.74 347.34 264.00
  A 1.44 1.41 -76.1 0 0 347.67 264.56
  L 360.59 277.48
  A 0.96 0.95 -45.2 0 1 360.59 278.83
  L 249.12 390.30
  A 0.65 0.64 45.3 0 1 248.20 390.29
  Q 237.83 379.58 224.95 366.81
  Q 221.28 363.17 217.41 366.65
  Q 192.97 388.72 169.17 412.39"
/>
<path stroke="#8497af" vector-effect="non-scaling-stroke" d="
  M 169.17 412.39
  L 169.14 317.07
  A 1.45 1.43 70.4 0 1 169.66 315.96
  L 267.34 233.20
  A 0.60 0.60 0.0 0 1 268.12 233.20
  L 337.44 290.70
  A 0.92 0.91 -47.7 0 0 338.67 290.64
  L 349.48 279.83
  A 0.76 0.75 42.5 0 0 349.43 278.72
  Q 307.27 243.57 273.82 215.96
  Q 270.30 213.06 266.34 213.86
  Q 263.71 214.39 259.53 217.95
  Q 209.22 260.74 157.23 304.71
  Q 153.17 308.14 153.17 312.06
  Q 153.14 435.52 153.14 436.52
  Q 153.13 441.00 153.83 442.49
  C 156.43 447.98 159.58 448.29 166.22 448.29
  Q 286.07 448.29 371.66 448.26
  Q 376.86 448.26 378.29 447.64
  C 382.62 445.76 384.03 441.95 384.03 437.00
  Q 383.99 372.44 384.03 318.75
  Q 384.04 313.13 383.45 311.21
  A 6.21 6.17 -75.6 0 0 382.02 308.77
  L 378.63 305.24
  A 0.46 0.45 45.4 0 0 377.97 305.23
  L 368.98 314.21
  A 2.03 2.02 67.3 0 0 368.40 315.63
  L 368.40 431.64
  A 0.37 0.37 0.0 0 1 368.03 432.01
  L 178.97 432.02"
/>
<path stroke="#834237" vector-effect="non-scaling-stroke" d="
  M 169.17 412.39
  L 169.26 431.46
  A 0.52 0.51 0.0 0 0 169.78 431.97
  L 178.97 432.02"
/>
<path stroke="#8497af" vector-effect="non-scaling-stroke" d="
  M 675.23 322.14
  C 677.75 348.78 699.14 365.93 725.60 362.62
  C 751.00 359.44 766.47 338.71 764.11 313.75
  C 761.75 288.78 742.68 271.31 717.13 272.95
  C 690.52 274.65 672.72 295.49 675.23 322.14"
/>
<path stroke="#8497af" vector-effect="non-scaling-stroke" d="
  M 774.60 317.95
  Q 774.60 324.28 775.05 326.74
  C 778.79 347.13 793.51 361.34 814.50 362.88
  C 835.42 364.43 852.01 353.15 857.15 332.45
  A 0.52 0.52 0.0 0 0 856.65 331.81
  L 839.02 331.81
  A 0.80 0.80 0.0 0 0 838.28 332.31
  C 835.86 338.42 832.98 342.47 826.47 344.97
  Q 822.83 346.36 816.69 346.23
  C 800.71 345.91 793.31 332.10 793.31 317.94
  C 793.30 303.79 800.70 289.98 816.68 289.65
  Q 822.82 289.52 826.46 290.91
  C 832.97 293.40 835.85 297.45 838.28 303.56
  A 0.80 0.80 0.0 0 0 839.02 304.06
  L 856.65 304.06
  A 0.52 0.52 0.0 0 0 857.15 303.42
  C 852.00 282.72 835.41 271.44 814.49 273.00
  C 793.50 274.55 778.78 288.76 775.05 309.15
  Q 774.60 311.61 774.60 317.95"
/>
<path stroke="#8497af" vector-effect="non-scaling-stroke" d="
  M 446.85 317.60
  Q 446.83 359.61 446.88 360.25
  A 0.69 0.68 88.0 0 0 447.55 360.89
  L 464.90 360.89
  A 0.35 0.35 0.0 0 0 465.25 360.54
  L 465.25 325.76
  A 0.39 0.38 -89.9 0 1 465.63 325.37
  Q 475.40 325.37 484.01 325.37
  Q 492.62 325.38 502.38 325.39
  A 0.39 0.38 89.9 0 1 502.77 325.78
  L 502.74 360.56
  A 0.35 0.35 0.0 0 0 503.09 360.91
  L 520.44 360.92
  A 0.69 0.68 -87.9 0 0 521.11 360.28
  Q 521.16 359.64 521.17 317.63
  Q 521.19 275.61 521.15 274.97
  A 0.69 0.68 88.0 0 0 520.47 274.33
  L 503.12 274.33
  A 0.35 0.35 0.0 0 0 502.77 274.68
  L 502.77 309.46
  A 0.39 0.38 -89.9 0 1 502.39 309.85
  Q 492.63 309.86 484.02 309.85
  Q 475.40 309.85 465.64 309.84
  A 0.39 0.38 89.9 0 1 465.26 309.45
  L 465.29 274.67
  A 0.35 0.35 0.0 0 0 464.94 274.32
  L 447.59 274.31
  A 0.69 0.68 -87.9 0 0 446.91 274.94
  Q 446.87 275.58 446.85 317.60"
/>
<path stroke="#8497af" vector-effect="non-scaling-stroke" d="
  M 540.43 317.89
  Q 540.48 359.18 540.47 360.59
  A 0.53 0.53 0.0 0 0 541.00 361.13
  L 598.04 361.13
  A 0.39 0.39 0.0 0 0 598.43 360.74
  L 598.43 345.45
  A 0.45 0.44 90.0 0 0 597.99 345.00
  L 559.19 345.00
  A 0.37 0.37 0.0 0 1 558.82 344.63
  L 558.82 326.24
  A 0.58 0.58 0.0 0 1 559.40 325.66
  L 594.27 325.66
  A 0.55 0.55 0.0 0 0 594.82 325.12
  Q 594.84 322.76 594.84 317.83
  Q 594.83 312.89 594.80 310.54
  A 0.55 0.55 0.0 0 0 594.25 310.00
  L 559.38 310.08
  A 0.58 0.58 0.0 0 1 558.80 309.50
  L 558.76 291.11
  A 0.37 0.37 0.0 0 1 559.13 290.74
  L 597.93 290.65
  A 0.45 0.44 89.9 0 0 598.36 290.20
  L 598.33 274.91
  A 0.39 0.39 0.0 0 0 597.94 274.52
  L 540.90 274.65
  A 0.53 0.53 0.0 0 0 540.37 275.19
  Q 540.38 276.61 540.43 317.89"
/>
<path stroke="#8497af" vector-effect="non-scaling-stroke" d="
  M 633.98 344.94
  A 0.55 0.55 0.0 0 1 633.43 344.39
  L 633.43 275.04
  A 0.55 0.55 0.0 0 0 632.88 274.49
  L 615.71 274.49
  A 0.55 0.55 0.0 0 0 615.16 275.04
  L 615.16 360.52
  A 0.55 0.55 0.0 0 0 615.71 361.07
  L 670.38 361.07
  A 0.55 0.55 0.0 0 0 670.93 360.52
  L 670.93 345.49
  A 0.55 0.55 0.0 0 0 670.38 344.94
  L 633.98 344.94"
/>
<path stroke="#87aed4" vector-effect="non-scaling-stroke" d="
  M 271.23 354.75
  L 297.12 328.86
  A 4.02 4.02 0.0 0 0 298.31 325.98
  Q 298.16 301.75 298.21 290.25
  Q 298.23 285.85 293.82 285.85
  Q 276.58 285.88 274.11 285.84
  Q 270.61 285.78 270.62 289.98
  Q 270.71 325.73 270.62 354.50
  A 0.36 0.36 0.0 0 0 271.23 354.75"
/>
<path stroke="#87aed4" vector-effect="non-scaling-stroke" d="
  M 260.76 366.00
  A 2.03 2.02 67.3 0 0 261.34 364.58
  L 261.34 313.49
  A 2.43 2.41 12.9 0 0 259.96 311.31
  Q 258.61 310.66 256.25 310.73
  Q 253.62 310.82 237.70 310.64
  Q 233.11 310.59 233.12 315.22
  Q 233.17 359.04 233.14 362.76
  A 2.03 2.02 22.0 0 0 233.78 364.26
  Q 239.60 369.83 245.17 375.46
  C 246.71 377.01 248.52 378.17 250.27 376.49
  Q 254.25 372.63 260.76 366.00"
/>
<path stroke="#87aed4" vector-effect="non-scaling-stroke" d="
  M 197.19 373.79
  L 213.26 358.75
  A 3.71 3.71 0.0 0 1 214.56 357.98
  Q 218.65 356.58 223.77 357.21
  A 0.63 0.63 0.0 0 0 224.47 356.58
  Q 224.41 352.80 224.41 340.35
  C 224.41 334.41 223.22 334.04 217.77 333.98
  Q 206.55 333.86 201.71 333.90
  C 199.26 333.92 196.69 334.75 196.69 337.25
  Q 196.70 373.09 196.69 373.57
  A 0.30 0.30 0.0 0 0 197.19 373.79"
/>
<path stroke="#8497af" vector-effect="non-scaling-stroke" d="
  M 636.04 377.61
  A 0.49 0.49 0.0 0 0 635.55 377.12
  L 626.47 377.12
  A 0.49 0.49 0.0 0 0 625.98 377.61
  L 625.98 431.71
  A 0.49 0.49 0.0 0 0 626.47 432.20
  L 635.55 432.20
  A 0.49 0.49 0.0 0 0 636.04 431.71
  L 636.04 377.61"
/>
<path stroke="#8497af" vector-effect="non-scaling-stroke" d="
  M 467.30 422.29
  Q 475.92 422.27 476.90 422.22
  A 0.84 0.83 -11.4 0 1 477.74 422.77
  L 481.07 431.76
  A 0.60 0.59 79.0 0 0 481.62 432.14
  L 492.34 432.14
  A 0.25 0.24 -10.6 0 0 492.57 431.81
  L 473.22 379.57
  A 0.59 0.57 79.8 0 0 472.67 379.18
  Q 469.69 379.19 467.23 379.19
  Q 464.78 379.19 461.79 379.20
  A 0.59 0.57 -79.9 0 0 461.25 379.59
  L 442.06 431.89
  A 0.25 0.24 10.4 0 0 442.29 432.22
  L 453.01 432.18
  A 0.60 0.59 -79.2 0 0 453.56 431.80
  L 456.86 422.80
  A 0.84 0.83 11.3 0 1 457.69 422.25
  Q 458.68 422.30 467.30 422.29"
/>
<path stroke="#8497af" vector-effect="non-scaling-stroke" d="
  M 761.95 402.87
  Q 761.98 414.82 762.07 420.24
  Q 762.26 432.34 774.25 433.08
  Q 777.64 433.29 781.35 432.11
  A 0.83 0.82 81.4 0 0 781.92 431.32
  L 781.92 423.88
  A 0.46 0.45 83.9 0 0 781.37 423.43
  Q 772.27 425.28 772.20 418.25
  Q 772.05 403.93 772.09 402.70
  A 0.62 0.62 0.0 0 1 772.71 402.10
  L 781.47 402.10
  A 0.55 0.55 0.0 0 0 782.02 401.55
  L 782.02 394.10
  A 0.51 0.51 0.0 0 0 781.51 393.59
  L 772.49 393.59
  A 0.52 0.52 0.0 0 1 771.97 393.07
  L 771.97 382.56
  A 0.42 0.42 0.0 0 0 771.55 382.14
  L 763.05 382.14
  A 0.29 0.29 0.0 0 0 762.76 382.41
  L 762.01 393.14
  A 0.49 0.49 0.0 0 1 761.52 393.60
  L 756.69 393.60
  A 0.89 0.89 0.0 0 0 755.80 394.49
  L 755.80 401.15
  A 0.99 0.99 0.0 0 0 756.79 402.14
  L 761.22 402.14
  A 0.73 0.73 0.0 0 1 761.95 402.87"
/>
<path stroke="#8497af" vector-effect="non-scaling-stroke" d="
  M 494.46 412.92
  C 494.43 425.02 502.72 432.92 514.44 433.17
  Q 528.80 433.47 533.33 419.93
  A 0.77 0.76 -80.7 0 0 532.62 418.91
  L 523.39 418.89
  A 1.24 1.24 0.0 0 0 522.28 419.58
  Q 519.46 425.33 512.48 424.09
  C 507.04 423.12 504.71 418.03 504.72 412.94
  C 504.74 407.85 507.09 402.77 512.53 401.83
  Q 519.52 400.62 522.31 406.38
  A 1.24 1.24 0.0 0 0 523.42 407.08
  L 532.64 407.10
  A 0.77 0.76 81.0 0 0 533.37 406.09
  Q 528.90 392.52 514.53 392.76
  C 502.81 392.95 494.49 400.81 494.46 412.92"
/>
<path stroke="#8497af" vector-effect="non-scaling-stroke" d="
  M 537.27 412.98
  C 537.27 425.08 545.57 432.97 557.30 433.18
  Q 571.67 433.45 576.17 419.89
  A 0.77 0.76 -80.8 0 0 575.45 418.88
  L 566.22 418.88
  A 1.24 1.24 0.0 0 0 565.11 419.57
  Q 562.31 425.33 555.32 424.11
  C 549.88 423.15 547.53 418.07 547.53 412.97
  C 547.53 407.88 549.88 402.79 555.32 401.84
  Q 562.31 400.61 565.11 406.37
  A 1.24 1.24 0.0 0 0 566.22 407.06
  L 575.45 407.06
  A 0.77 0.76 80.8 0 0 576.17 406.05
  Q 571.66 392.49 557.29 392.76
  C 545.57 392.98 537.26 400.87 537.27 412.98"
/>
<path stroke="#8497af" vector-effect="non-scaling-stroke" d="
  M 619.69 415.46
  C 620.13 405.35 615.83 395.13 605.06 393.20
  Q 590.65 390.61 583.22 401.54
  C 578.93 407.85 579.09 418.48 583.55 424.70
  Q 589.21 432.61 599.72 433.22
  C 607.81 433.69 616.47 429.88 618.79 421.70
  A 0.45 0.44 7.5 0 0 618.36 421.14
  L 609.22 421.14
  A 1.48 1.44 20.3 0 0 608.13 421.62
  C 602.05 428.33 592.05 425.29 590.59 416.52
  A 0.36 0.36 0.0 0 1 590.94 416.10
  L 619.02 416.10
  A 0.67 0.67 0.0 0 0 619.69 415.46"
/>
<path stroke="#8497af" vector-effect="non-scaling-stroke" d="
  M 682.03 415.46
  C 682.45 405.34 678.14 395.12 667.36 393.20
  Q 652.93 390.63 645.51 401.57
  C 641.22 407.90 641.40 418.53 645.87 424.75
  Q 651.54 432.66 662.06 433.26
  C 670.16 433.72 678.82 429.90 681.13 421.71
  A 0.45 0.45 0.0 0 0 680.70 421.15
  L 671.56 421.16
  A 1.48 1.44 20.2 0 0 670.47 421.64
  C 664.39 428.36 654.38 425.33 652.90 416.56
  A 0.36 0.36 0.0 0 1 653.25 416.14
  L 681.36 416.10
  A 0.67 0.67 0.0 0 0 682.03 415.46"
/>
<path stroke="#8497af" vector-effect="non-scaling-stroke" d="
  M 741.03 429.67
  L 740.90 431.44
  A 0.70 0.69 1.9 0 0 741.60 432.18
  L 750.18 432.18
  A 0.68 0.67 -0.4 0 0 750.86 431.50
  Q 750.79 411.90 750.86 409.97
  Q 751.07 404.17 749.50 401.22
  C 745.49 393.67 736.18 391.64 728.26 393.11
  Q 717.70 395.07 716.30 405.83
  A 0.32 0.31 3.2 0 0 716.62 406.18
  L 726.58 406.18
  A 0.60 0.59 -0.0 0 0 727.18 405.59
  Q 727.17 402.02 731.98 401.55
  Q 740.61 400.70 740.86 409.12
  A 0.56 0.56 0.0 0 1 740.13 409.68
  C 731.67 407.08 715.75 408.73 715.11 420.46
  Q 714.57 430.15 723.42 432.74
  C 728.47 434.21 735.94 433.72 740.44 429.39
  A 0.35 0.35 0.0 0 1 741.03 429.67"
/>
<path stroke="#8497af" vector-effect="non-scaling-stroke" d="
  M 827.00 413.04
  A 20.61 20.61 0.0 0 0 806.39 392.43
  A 20.61 20.61 0.0 0 0 785.78 413.04
  A 20.61 20.61 0.0 0 0 806.39 433.65
  A 20.61 20.61 0.0 0 0 827.00 413.04"
/>
<path stroke="#8497af" vector-effect="non-scaling-stroke" d="
  M 698.51 398.64
  L 698.81 394.27
  A 0.62 0.62 0.0 0 0 698.19 393.60
  L 689.38 393.60
  A 0.68 0.68 0.0 0 0 688.70 394.28
  L 688.70 431.79
  A 0.43 0.42 0.0 0 0 689.13 432.21
  L 698.31 432.21
  A 0.63 0.63 0.0 0 0 698.94 431.58
  Q 698.90 415.87 698.95 413.00
  C 699.10 405.08 704.89 401.78 712.25 403.31
  A 0.43 0.43 0.0 0 0 712.77 402.89
  L 712.77 393.90
  A 0.80 0.79 4.2 0 0 712.09 393.12
  Q 703.22 391.91 699.02 398.80
  A 0.28 0.27 -27.4 0 1 698.51 398.64"
/>
<path stroke="#8497af" vector-effect="non-scaling-stroke" d="
  M 842.86 398.63
  L 843.15 394.27
  A 0.62 0.62 0.0 0 0 842.53 393.60
  L 833.73 393.61
  A 0.68 0.68 0.0 0 0 833.05 394.29
  L 833.10 431.76
  A 0.43 0.42 -0.1 0 0 833.53 432.18
  L 842.70 432.17
  A 0.63 0.63 0.0 0 0 843.33 431.54
  Q 843.27 415.84 843.31 412.98
  C 843.45 405.06 849.23 401.76 856.59 403.28
  A 0.43 0.43 0.0 0 0 857.11 402.86
  L 857.09 393.88
  A 0.79 0.79 0.0 0 0 856.41 393.10
  Q 847.55 391.90 843.36 398.79
  A 0.28 0.27 -27.5 0 1 842.86 398.63"
/>
<path stroke="#8497af" vector-effect="non-scaling-stroke" d="
  M 693.71 317.59
  C 693.56 333.13 703.05 346.02 719.45 346.18
  C 735.85 346.35 745.60 333.65 745.75 318.12
  C 745.91 302.58 736.42 289.69 720.02 289.52
  C 703.62 289.36 693.87 302.06 693.71 317.59"
/>
<path stroke="#8497af" vector-effect="non-scaling-stroke" d="
  M 459.72 412.49
  A 0.34 0.34 0.0 0 0 460.03 412.94
  L 474.51 413.00
  A 0.34 0.34 0.0 0 0 474.84 412.54
  L 467.67 391.92
  A 0.34 0.34 0.0 0 0 467.03 391.92
  L 459.72 412.49"
/>
<path stroke="#8497af" vector-effect="non-scaling-stroke" d="
  M 590.99 408.95
  L 609.25 408.91
  A 0.13 0.13 0.0 0 0 609.38 408.78
  L 609.38 408.73
  A 8.67 7.86 -0.1 0 0 600.69 400.89
  L 599.51 400.89
  A 8.67 7.86 -0.1 0 0 590.86 408.77
  L 590.86 408.82
  A 0.13 0.13 0.0 0 0 590.99 408.95"
/>
<path stroke="#8497af" vector-effect="non-scaling-stroke" d="
  M 653.08 408.92
  L 671.70 408.92
  A 0.13 0.13 0.0 0 0 671.83 408.79
  L 671.83 408.75
  A 8.95 7.87 0.0 0 0 662.88 400.88
  L 661.90 400.88
  A 8.95 7.87 0.0 0 0 652.95 408.75
  L 652.95 408.79
  A 0.13 0.13 0.0 0 0 653.08 408.92"
/>
<path stroke="#8497af" vector-effect="non-scaling-stroke" d="
  M 741.09 417.71
  A 1.20 1.20 0.0 0 0 740.15 416.48
  Q 734.56 415.21 729.74 415.96
  C 723.49 416.94 723.94 425.10 730.06 425.63
  Q 734.32 426.00 736.06 425.09
  Q 740.86 422.61 741.09 417.71"
/>
<path stroke="#8497af" vector-effect="non-scaling-stroke" d="
  M 806.6705 401.5734
  A 11.48 10.43 -88.6 0 0 795.9631 412.7952
  A 11.48 10.43 -88.6 0 0 806.1095 424.5266
  A 11.48 10.43 -88.6 0 0 816.8169 413.3048
  A 11.48 10.43 -88.6 0 0 806.6705 401.5734"
/>
</g>
<path fill="#ffffff" d="
  M 1024.00 0.00
  L 1024.00 682.00
  L 0.00 682.00
  L 0.00 0.00
  L 1024.00 0.00
  Z
  M 178.97 432.02
  L 219.92 391.87
  A 0.59 0.59 0.0 0 1 220.75 391.88
  Q 223.14 394.32 246.33 417.95
  Q 249.40 421.08 252.82 420.16
  Q 254.47 419.72 258.37 415.81
  Q 353.09 320.88 377.42 296.44
  A 0.54 0.54 0.0 0 1 378.19 296.44
  L 387.45 305.70
  A 0.92 0.87 71.2 0 0 387.89 305.93
  Q 390.30 306.33 390.76 304.45
  Q 397.14 278.62 403.20 254.73
  Q 403.57 253.28 403.75 250.98
  A 2.96 2.71 -78.8 0 0 401.96 248.03
  Q 400.72 247.59 399.00 248.00
  Q 351.51 259.27 351.47 259.28
  Q 346.44 260.74 347.34 264.00
  A 1.44 1.41 -76.1 0 0 347.67 264.56
  L 360.59 277.48
  A 0.96 0.95 -45.2 0 1 360.59 278.83
  L 249.12 390.30
  A 0.65 0.64 45.3 0 1 248.20 390.29
  Q 237.83 379.58 224.95 366.81
  Q 221.28 363.17 217.41 366.65
  Q 192.97 388.72 169.17 412.39
  L 169.14 317.07
  A 1.45 1.43 70.4 0 1 169.66 315.96
  L 267.34 233.20
  A 0.60 0.60 0.0 0 1 268.12 233.20
  L 337.44 290.70
  A 0.92 0.91 -47.7 0 0 338.67 290.64
  L 349.48 279.83
  A 0.76 0.75 42.5 0 0 349.43 278.72
  Q 307.27 243.57 273.82 215.96
  Q 270.30 213.06 266.34 213.86
  Q 263.71 214.39 259.53 217.95
  Q 209.22 260.74 157.23 304.71
  Q 153.17 308.14 153.17 312.06
  Q 153.14 435.52 153.14 436.52
  Q 153.13 441.00 153.83 442.49
  C 156.43 447.98 159.58 448.29 166.22 448.29
  Q 286.07 448.29 371.66 448.26
  Q 376.86 448.26 378.29 447.64
  C 382.62 445.76 384.03 441.95 384.03 437.00
  Q 383.99 372.44 384.03 318.75
  Q 384.04 313.13 383.45 311.21
  A 6.21 6.17 -75.6 0 0 382.02 308.77
  L 378.63 305.24
  A 0.46 0.45 45.4 0 0 377.97 305.23
  L 368.98 314.21
  A 2.03 2.02 67.3 0 0 368.40 315.63
  L 368.40 431.64
  A 0.37 0.37 0.0 0 1 368.03 432.01
  L 178.97 432.02
  Z
  M 675.23 322.14
  C 677.75 348.78 699.14 365.93 725.60 362.62
  C 751.00 359.44 766.47 338.71 764.11 313.75
  C 761.75 288.78 742.68 271.31 717.13 272.95
  C 690.52 274.65 672.72 295.49 675.23 322.14
  Z
  M 774.60 317.95
  Q 774.60 324.28 775.05 326.74
  C 778.79 347.13 793.51 361.34 814.50 362.88
  C 835.42 364.43 852.01 353.15 857.15 332.45
  A 0.52 0.52 0.0 0 0 856.65 331.81
  L 839.02 331.81
  A 0.80 0.80 0.0 0 0 838.28 332.31
  C 835.86 338.42 832.98 342.47 826.47 344.97
  Q 822.83 346.36 816.69 346.23
  C 800.71 345.91 793.31 332.10 793.31 317.94
  C 793.30 303.79 800.70 289.98 816.68 289.65
  Q 822.82 289.52 826.46 290.91
  C 832.97 293.40 835.85 297.45 838.28 303.56
  A 0.80 0.80 0.0 0 0 839.02 304.06
  L 856.65 304.06
  A 0.52 0.52 0.0 0 0 857.15 303.42
  C 852.00 282.72 835.41 271.44 814.49 273.00
  C 793.50 274.55 778.78 288.76 775.05 309.15
  Q 774.60 311.61 774.60 317.95
  Z
  M 446.85 317.60
  Q 446.83 359.61 446.88 360.25
  A 0.69 0.68 88.0 0 0 447.55 360.89
  L 464.90 360.89
  A 0.35 0.35 0.0 0 0 465.25 360.54
  L 465.25 325.76
  A 0.39 0.38 -89.9 0 1 465.63 325.37
  Q 475.40 325.37 484.01 325.37
  Q 492.62 325.38 502.38 325.39
  A 0.39 0.38 89.9 0 1 502.77 325.78
  L 502.74 360.56
  A 0.35 0.35 0.0 0 0 503.09 360.91
  L 520.44 360.92
  A 0.69 0.68 -87.9 0 0 521.11 360.28
  Q 521.16 359.64 521.17 317.63
  Q 521.19 275.61 521.15 274.97
  A 0.69 0.68 88.0 0 0 520.47 274.33
  L 503.12 274.33
  A 0.35 0.35 0.0 0 0 502.77 274.68
  L 502.77 309.46
  A 0.39 0.38 -89.9 0 1 502.39 309.85
  Q 492.63 309.86 484.02 309.85
  Q 475.40 309.85 465.64 309.84
  A 0.39 0.38 89.9 0 1 465.26 309.45
  L 465.29 274.67
  A 0.35 0.35 0.0 0 0 464.94 274.32
  L 447.59 274.31
  A 0.69 0.68 -87.9 0 0 446.91 274.94
  Q 446.87 275.58 446.85 317.60
  Z
  M 540.43 317.89
  Q 540.48 359.18 540.47 360.59
  A 0.53 0.53 0.0 0 0 541.00 361.13
  L 598.04 361.13
  A 0.39 0.39 0.0 0 0 598.43 360.74
  L 598.43 345.45
  A 0.45 0.44 90.0 0 0 597.99 345.00
  L 559.19 345.00
  A 0.37 0.37 0.0 0 1 558.82 344.63
  L 558.82 326.24
  A 0.58 0.58 0.0 0 1 559.40 325.66
  L 594.27 325.66
  A 0.55 0.55 0.0 0 0 594.82 325.12
  Q 594.84 322.76 594.84 317.83
  Q 594.83 312.89 594.80 310.54
  A 0.55 0.55 0.0 0 0 594.25 310.00
  L 559.38 310.08
  A 0.58 0.58 0.0 0 1 558.80 309.50
  L 558.76 291.11
  A 0.37 0.37 0.0 0 1 559.13 290.74
  L 597.93 290.65
  A 0.45 0.44 89.9 0 0 598.36 290.20
  L 598.33 274.91
  A 0.39 0.39 0.0 0 0 597.94 274.52
  L 540.90 274.65
  A 0.53 0.53 0.0 0 0 540.37 275.19
  Q 540.38 276.61 540.43 317.89
  Z
  M 633.98 344.94
  A 0.55 0.55 0.0 0 1 633.43 344.39
  L 633.43 275.04
  A 0.55 0.55 0.0 0 0 632.88 274.49
  L 615.71 274.49
  A 0.55 0.55 0.0 0 0 615.16 275.04
  L 615.16 360.52
  A 0.55 0.55 0.0 0 0 615.71 361.07
  L 670.38 361.07
  A 0.55 0.55 0.0 0 0 670.93 360.52
  L 670.93 345.49
  A 0.55 0.55 0.0 0 0 670.38 344.94
  L 633.98 344.94
  Z
  M 271.23 354.75
  L 297.12 328.86
  A 4.02 4.02 0.0 0 0 298.31 325.98
  Q 298.16 301.75 298.21 290.25
  Q 298.23 285.85 293.82 285.85
  Q 276.58 285.88 274.11 285.84
  Q 270.61 285.78 270.62 289.98
  Q 270.71 325.73 270.62 354.50
  A 0.36 0.36 0.0 0 0 271.23 354.75
  Z
  M 260.76 366.00
  A 2.03 2.02 67.3 0 0 261.34 364.58
  L 261.34 313.49
  A 2.43 2.41 12.9 0 0 259.96 311.31
  Q 258.61 310.66 256.25 310.73
  Q 253.62 310.82 237.70 310.64
  Q 233.11 310.59 233.12 315.22
  Q 233.17 359.04 233.14 362.76
  A 2.03 2.02 22.0 0 0 233.78 364.26
  Q 239.60 369.83 245.17 375.46
  C 246.71 377.01 248.52 378.17 250.27 376.49
  Q 254.25 372.63 260.76 366.00
  Z
  M 197.19 373.79
  L 213.26 358.75
  A 3.71 3.71 0.0 0 1 214.56 357.98
  Q 218.65 356.58 223.77 357.21
  A 0.63 0.63 0.0 0 0 224.47 356.58
  Q 224.41 352.80 224.41 340.35
  C 224.41 334.41 223.22 334.04 217.77 333.98
  Q 206.55 333.86 201.71 333.90
  C 199.26 333.92 196.69 334.75 196.69 337.25
  Q 196.70 373.09 196.69 373.57
  A 0.30 0.30 0.0 0 0 197.19 373.79
  Z
  M 636.04 377.61
  A 0.49 0.49 0.0 0 0 635.55 377.12
  L 626.47 377.12
  A 0.49 0.49 0.0 0 0 625.98 377.61
  L 625.98 431.71
  A 0.49 0.49 0.0 0 0 626.47 432.20
  L 635.55 432.20
  A 0.49 0.49 0.0 0 0 636.04 431.71
  L 636.04 377.61
  Z
  M 467.30 422.29
  Q 475.92 422.27 476.90 422.22
  A 0.84 0.83 -11.4 0 1 477.74 422.77
  L 481.07 431.76
  A 0.60 0.59 79.0 0 0 481.62 432.14
  L 492.34 432.14
  A 0.25 0.24 -10.6 0 0 492.57 431.81
  L 473.22 379.57
  A 0.59 0.57 79.8 0 0 472.67 379.18
  Q 469.69 379.19 467.23 379.19
  Q 464.78 379.19 461.79 379.20
  A 0.59 0.57 -79.9 0 0 461.25 379.59
  L 442.06 431.89
  A 0.25 0.24 10.4 0 0 442.29 432.22
  L 453.01 432.18
  A 0.60 0.59 -79.2 0 0 453.56 431.80
  L 456.86 422.80
  A 0.84 0.83 11.3 0 1 457.69 422.25
  Q 458.68 422.30 467.30 422.29
  Z
  M 761.95 402.87
  Q 761.98 414.82 762.07 420.24
  Q 762.26 432.34 774.25 433.08
  Q 777.64 433.29 781.35 432.11
  A 0.83 0.82 81.4 0 0 781.92 431.32
  L 781.92 423.88
  A 0.46 0.45 83.9 0 0 781.37 423.43
  Q 772.27 425.28 772.20 418.25
  Q 772.05 403.93 772.09 402.70
  A 0.62 0.62 0.0 0 1 772.71 402.10
  L 781.47 402.10
  A 0.55 0.55 0.0 0 0 782.02 401.55
  L 782.02 394.10
  A 0.51 0.51 0.0 0 0 781.51 393.59
  L 772.49 393.59
  A 0.52 0.52 0.0 0 1 771.97 393.07
  L 771.97 382.56
  A 0.42 0.42 0.0 0 0 771.55 382.14
  L 763.05 382.14
  A 0.29 0.29 0.0 0 0 762.76 382.41
  L 762.01 393.14
  A 0.49 0.49 0.0 0 1 761.52 393.60
  L 756.69 393.60
  A 0.89 0.89 0.0 0 0 755.80 394.49
  L 755.80 401.15
  A 0.99 0.99 0.0 0 0 756.79 402.14
  L 761.22 402.14
  A 0.73 0.73 0.0 0 1 761.95 402.87
  Z
  M 494.46 412.92
  C 494.43 425.02 502.72 432.92 514.44 433.17
  Q 528.80 433.47 533.33 419.93
  A 0.77 0.76 -80.7 0 0 532.62 418.91
  L 523.39 418.89
  A 1.24 1.24 0.0 0 0 522.28 419.58
  Q 519.46 425.33 512.48 424.09
  C 507.04 423.12 504.71 418.03 504.72 412.94
  C 504.74 407.85 507.09 402.77 512.53 401.83
  Q 519.52 400.62 522.31 406.38
  A 1.24 1.24 0.0 0 0 523.42 407.08
  L 532.64 407.10
  A 0.77 0.76 81.0 0 0 533.37 406.09
  Q 528.90 392.52 514.53 392.76
  C 502.81 392.95 494.49 400.81 494.46 412.92
  Z
  M 537.27 412.98
  C 537.27 425.08 545.57 432.97 557.30 433.18
  Q 571.67 433.45 576.17 419.89
  A 0.77 0.76 -80.8 0 0 575.45 418.88
  L 566.22 418.88
  A 1.24 1.24 0.0 0 0 565.11 419.57
  Q 562.31 425.33 555.32 424.11
  C 549.88 423.15 547.53 418.07 547.53 412.97
  C 547.53 407.88 549.88 402.79 555.32 401.84
  Q 562.31 400.61 565.11 406.37
  A 1.24 1.24 0.0 0 0 566.22 407.06
  L 575.45 407.06
  A 0.77 0.76 80.8 0 0 576.17 406.05
  Q 571.66 392.49 557.29 392.76
  C 545.57 392.98 537.26 400.87 537.27 412.98
  Z
  M 619.69 415.46
  C 620.13 405.35 615.83 395.13 605.06 393.20
  Q 590.65 390.61 583.22 401.54
  C 578.93 407.85 579.09 418.48 583.55 424.70
  Q 589.21 432.61 599.72 433.22
  C 607.81 433.69 616.47 429.88 618.79 421.70
  A 0.45 0.44 7.5 0 0 618.36 421.14
  L 609.22 421.14
  A 1.48 1.44 20.3 0 0 608.13 421.62
  C 602.05 428.33 592.05 425.29 590.59 416.52
  A 0.36 0.36 0.0 0 1 590.94 416.10
  L 619.02 416.10
  A 0.67 0.67 0.0 0 0 619.69 415.46
  Z
  M 682.03 415.46
  C 682.45 405.34 678.14 395.12 667.36 393.20
  Q 652.93 390.63 645.51 401.57
  C 641.22 407.90 641.40 418.53 645.87 424.75
  Q 651.54 432.66 662.06 433.26
  C 670.16 433.72 678.82 429.90 681.13 421.71
  A 0.45 0.45 0.0 0 0 680.70 421.15
  L 671.56 421.16
  A 1.48 1.44 20.2 0 0 670.47 421.64
  C 664.39 428.36 654.38 425.33 652.90 416.56
  A 0.36 0.36 0.0 0 1 653.25 416.14
  L 681.36 416.10
  A 0.67 0.67 0.0 0 0 682.03 415.46
  Z
  M 741.03 429.67
  L 740.90 431.44
  A 0.70 0.69 1.9 0 0 741.60 432.18
  L 750.18 432.18
  A 0.68 0.67 -0.4 0 0 750.86 431.50
  Q 750.79 411.90 750.86 409.97
  Q 751.07 404.17 749.50 401.22
  C 745.49 393.67 736.18 391.64 728.26 393.11
  Q 717.70 395.07 716.30 405.83
  A 0.32 0.31 3.2 0 0 716.62 406.18
  L 726.58 406.18
  A 0.60 0.59 -0.0 0 0 727.18 405.59
  Q 727.17 402.02 731.98 401.55
  Q 740.61 400.70 740.86 409.12
  A 0.56 0.56 0.0 0 1 740.13 409.68
  C 731.67 407.08 715.75 408.73 715.11 420.46
  Q 714.57 430.15 723.42 432.74
  C 728.47 434.21 735.94 433.72 740.44 429.39
  A 0.35 0.35 0.0 0 1 741.03 429.67
  Z
  M 827.00 413.04
  A 20.61 20.61 0.0 0 0 806.39 392.43
  A 20.61 20.61 0.0 0 0 785.78 413.04
  A 20.61 20.61 0.0 0 0 806.39 433.65
  A 20.61 20.61 0.0 0 0 827.00 413.04
  Z
  M 698.51 398.64
  L 698.81 394.27
  A 0.62 0.62 0.0 0 0 698.19 393.60
  L 689.38 393.60
  A 0.68 0.68 0.0 0 0 688.70 394.28
  L 688.70 431.79
  A 0.43 0.42 0.0 0 0 689.13 432.21
  L 698.31 432.21
  A 0.63 0.63 0.0 0 0 698.94 431.58
  Q 698.90 415.87 698.95 413.00
  C 699.10 405.08 704.89 401.78 712.25 403.31
  A 0.43 0.43 0.0 0 0 712.77 402.89
  L 712.77 393.90
  A 0.80 0.79 4.2 0 0 712.09 393.12
  Q 703.22 391.91 699.02 398.80
  A 0.28 0.27 -27.4 0 1 698.51 398.64
  Z
  M 842.86 398.63
  L 843.15 394.27
  A 0.62 0.62 0.0 0 0 842.53 393.60
  L 833.73 393.61
  A 0.68 0.68 0.0 0 0 833.05 394.29
  L 833.10 431.76
  A 0.43 0.42 -0.1 0 0 833.53 432.18
  L 842.70 432.17
  A 0.63 0.63 0.0 0 0 843.33 431.54
  Q 843.27 415.84 843.31 412.98
  C 843.45 405.06 849.23 401.76 856.59 403.28
  A 0.43 0.43 0.0 0 0 857.11 402.86
  L 857.09 393.88
  A 0.79 0.79 0.0 0 0 856.41 393.10
  Q 847.55 391.90 843.36 398.79
  A 0.28 0.27 -27.5 0 1 842.86 398.63
  Z"
/>
<path fill="#092f5e" d="
  M 169.17 412.39
  L 169.26 431.46
  A 0.52 0.51 0.0 0 0 169.78 431.97
  L 178.97 432.02
  L 368.03 432.01
  A 0.37 0.37 0.0 0 0 368.40 431.64
  L 368.40 315.63
  A 2.03 2.02 67.3 0 1 368.98 314.21
  L 377.97 305.23
  A 0.46 0.45 45.4 0 1 378.63 305.24
  L 382.02 308.77
  A 6.21 6.17 -75.6 0 1 383.45 311.21
  Q 384.04 313.13 384.03 318.75
  Q 383.99 372.44 384.03 437.00
  C 384.03 441.95 382.62 445.76 378.29 447.64
  Q 376.86 448.26 371.66 448.26
  Q 286.07 448.29 166.22 448.29
  C 159.58 448.29 156.43 447.98 153.83 442.49
  Q 153.13 441.00 153.14 436.52
  Q 153.14 435.52 153.17 312.06
  Q 153.17 308.14 157.23 304.71
  Q 209.22 260.74 259.53 217.95
  Q 263.71 214.39 266.34 213.86
  Q 270.30 213.06 273.82 215.96
  Q 307.27 243.57 349.43 278.72
  A 0.76 0.75 42.5 0 1 349.48 279.83
  L 338.67 290.64
  A 0.92 0.91 -47.7 0 1 337.44 290.70
  L 268.12 233.20
  A 0.60 0.60 0.0 0 0 267.34 233.20
  L 169.66 315.96
  A 1.45 1.43 70.4 0 0 169.14 317.07
  L 169.17 412.39
  Z"
/>
<path fill="#fc5410" d="
  M 178.97 432.02
  L 169.78 431.97
  A 0.52 0.51 0.0 0 1 169.26 431.46
  L 169.17 412.39
  Q 192.97 388.72 217.41 366.65
  Q 221.28 363.17 224.95 366.81
  Q 237.83 379.58 248.20 390.29
  A 0.65 0.64 45.3 0 0 249.12 390.30
  L 360.59 278.83
  A 0.96 0.95 -45.2 0 0 360.59 277.48
  L 347.67 264.56
  A 1.44 1.41 -76.1 0 1 347.34 264.00
  Q 346.44 260.74 351.47 259.28
  Q 351.51 259.27 399.00 248.00
  Q 400.72 247.59 401.96 248.03
  A 2.96 2.71 -78.8 0 1 403.75 250.98
  Q 403.57 253.28 403.20 254.73
  Q 397.14 278.62 390.76 304.45
  Q 390.30 306.33 387.89 305.93
  A 0.92 0.87 71.2 0 1 387.45 305.70
  L 378.19 296.44
  A 0.54 0.54 0.0 0 0 377.42 296.44
  Q 353.09 320.88 258.37 415.81
  Q 254.47 419.72 252.82 420.16
  Q 249.40 421.08 246.33 417.95
  Q 223.14 394.32 220.75 391.88
  A 0.59 0.59 0.0 0 0 219.92 391.87
  L 178.97 432.02
  Z"
/>
<path fill="#092f5e" d="
  M 764.11 313.75
  C 766.47 338.71 751.00 359.44 725.60 362.62
  C 699.14 365.93 677.75 348.78 675.23 322.14
  C 672.72 295.49 690.52 274.65 717.13 272.95
  C 742.68 271.31 761.75 288.78 764.11 313.75
  Z
  M 693.71 317.59
  C 693.56 333.13 703.05 346.02 719.45 346.18
  C 735.85 346.35 745.60 333.65 745.75 318.12
  C 745.91 302.58 736.42 289.69 720.02 289.52
  C 703.62 289.36 693.87 302.06 693.71 317.59
  Z"
/>
<path fill="#092f5e" d="
  M 793.31 317.94
  C 793.31 332.10 800.71 345.91 816.69 346.23
  Q 822.83 346.36 826.47 344.97
  C 832.98 342.47 835.86 338.42 838.28 332.31
  A 0.80 0.80 0.0 0 1 839.02 331.81
  L 856.65 331.81
  A 0.52 0.52 0.0 0 1 857.15 332.45
  C 852.01 353.15 835.42 364.43 814.50 362.88
  C 793.51 361.34 778.79 347.13 775.05 326.74
  Q 774.60 324.28 774.60 317.95
  Q 774.60 311.61 775.05 309.15
  C 778.78 288.76 793.50 274.55 814.49 273.00
  C 835.41 271.44 852.00 282.72 857.15 303.42
  A 0.52 0.52 0.0 0 1 856.65 304.06
  L 839.02 304.06
  A 0.80 0.80 0.0 0 1 838.28 303.56
  C 835.85 297.45 832.97 293.40 826.46 290.91
  Q 822.82 289.52 816.68 289.65
  C 800.70 289.98 793.30 303.79 793.31 317.94
  Z"
/>
<path fill="#092f5e" d="
  M 484.02 309.85
  Q 492.63 309.86 502.39 309.85
  A 0.39 0.38 -89.9 0 0 502.77 309.46
  L 502.77 274.68
  A 0.35 0.35 0.0 0 1 503.12 274.33
  L 520.47 274.33
  A 0.69 0.68 88.0 0 1 521.15 274.97
  Q 521.19 275.61 521.17 317.63
  Q 521.16 359.64 521.11 360.28
  A 0.69 0.68 -87.9 0 1 520.44 360.92
  L 503.09 360.91
  A 0.35 0.35 0.0 0 1 502.74 360.56
  L 502.77 325.78
  A 0.39 0.38 89.9 0 0 502.38 325.39
  Q 492.62 325.38 484.01 325.37
  Q 475.40 325.37 465.63 325.37
  A 0.39 0.38 -89.9 0 0 465.25 325.76
  L 465.25 360.54
  A 0.35 0.35 0.0 0 1 464.90 360.89
  L 447.55 360.89
  A 0.69 0.68 88.0 0 1 446.88 360.25
  Q 446.83 359.61 446.85 317.60
  Q 446.87 275.58 446.91 274.94
  A 0.69 0.68 -87.9 0 1 447.59 274.31
  L 464.94 274.32
  A 0.35 0.35 0.0 0 1 465.29 274.67
  L 465.26 309.45
  A 0.39 0.38 89.9 0 0 465.64 309.84
  Q 475.40 309.85 484.02 309.85
  Z"
/>
<path fill="#092f5e" d="
  M 594.84 317.83
  Q 594.84 322.76 594.82 325.12
  A 0.55 0.55 0.0 0 1 594.27 325.66
  L 559.40 325.66
  A 0.58 0.58 0.0 0 0 558.82 326.24
  L 558.82 344.63
  A 0.37 0.37 0.0 0 0 559.19 345.00
  L 597.99 345.00
  A 0.45 0.44 -90.0 0 1 598.43 345.45
  L 598.43 360.74
  A 0.39 0.39 0.0 0 1 598.04 361.13
  L 541.00 361.13
  A 0.53 0.53 0.0 0 1 540.47 360.59
  Q 540.48 359.18 540.43 317.89
  Q 540.38 276.61 540.37 275.19
  A 0.53 0.53 0.0 0 1 540.90 274.65
  L 597.94 274.52
  A 0.39 0.39 0.0 0 1 598.33 274.91
  L 598.36 290.20
  A 0.45 0.44 89.9 0 1 597.93 290.65
  L 559.13 290.74
  A 0.37 0.37 0.0 0 0 558.76 291.11
  L 558.80 309.50
  A 0.58 0.58 0.0 0 0 559.38 310.08
  L 594.25 310.00
  A 0.55 0.55 0.0 0 1 594.80 310.54
  Q 594.83 312.89 594.84 317.83
  Z"
/>
<path fill="#092f5e" d="
  M 633.98 344.94
  L 670.38 344.94
  A 0.55 0.55 0.0 0 1 670.93 345.49
  L 670.93 360.52
  A 0.55 0.55 0.0 0 1 670.38 361.07
  L 615.71 361.07
  A 0.55 0.55 0.0 0 1 615.16 360.52
  L 615.16 275.04
  A 0.55 0.55 0.0 0 1 615.71 274.49
  L 632.88 274.49
  A 0.55 0.55 0.0 0 1 633.43 275.04
  L 633.43 344.39
  A 0.55 0.55 0.0 0 0 633.98 344.94
  Z"
/>
<path fill="#0e5da8" d="
  M 271.23 354.75
  A 0.36 0.36 0.0 0 1 270.62 354.50
  Q 270.71 325.73 270.62 289.98
  Q 270.61 285.78 274.11 285.84
  Q 276.58 285.88 293.82 285.85
  Q 298.23 285.85 298.21 290.25
  Q 298.16 301.75 298.31 325.98
  A 4.02 4.02 0.0 0 1 297.12 328.86
  L 271.23 354.75
  Z"
/>
<path fill="#ffffff" d="
  M 720.02 289.52
  C 736.42 289.69 745.91 302.58 745.75 318.12
  C 745.60 333.65 735.85 346.35 719.45 346.18
  C 703.05 346.02 693.56 333.13 693.71 317.59
  C 693.87 302.06 703.62 289.36 720.02 289.52
  Z"
/>
<path fill="#0e5da8" d="
  M 260.76 366.00
  Q 254.25 372.63 250.27 376.49
  C 248.52 378.17 246.71 377.01 245.17 375.46
  Q 239.60 369.83 233.78 364.26
  A 2.03 2.02 22.0 0 1 233.14 362.76
  Q 233.17 359.04 233.12 315.22
  Q 233.11 310.59 237.70 310.64
  Q 253.62 310.82 256.25 310.73
  Q 258.61 310.66 259.96 311.31
  A 2.43 2.41 12.9 0 1 261.34 313.49
  L 261.34 364.58
  A 2.03 2.02 67.3 0 1 260.76 366.00
  Z"
/>
<path fill="#0e5da8" d="
  M 197.19 373.79
  A 0.30 0.30 0.0 0 1 196.69 373.57
  Q 196.70 373.09 196.69 337.25
  C 196.69 334.75 199.26 333.92 201.71 333.90
  Q 206.55 333.86 217.77 333.98
  C 223.22 334.04 224.41 334.41 224.41 340.35
  Q 224.41 352.80 224.47 356.58
  A 0.63 0.63 0.0 0 1 223.77 357.21
  Q 218.65 356.58 214.56 357.98
  A 3.71 3.71 0.0 0 0 213.26 358.75
  L 197.19 373.79
  Z"
/>
<rect fill="#092f5e" x="625.98" y="377.12" width="10.06" height="55.08" rx="0.49"/>
<path fill="#092f5e" d="
  M 467.23 379.19
  Q 469.69 379.19 472.67 379.18
  A 0.59 0.57 79.8 0 1 473.22 379.57
  L 492.57 431.81
  A 0.25 0.24 -10.6 0 1 492.34 432.14
  L 481.62 432.14
  A 0.60 0.59 79.0 0 1 481.07 431.76
  L 477.74 422.77
  A 0.84 0.83 -11.4 0 0 476.90 422.22
  Q 475.92 422.27 467.30 422.29
  Q 458.68 422.30 457.69 422.25
  A 0.84 0.83 11.3 0 0 456.86 422.80
  L 453.56 431.80
  A 0.60 0.59 -79.2 0 1 453.01 432.18
  L 442.29 432.22
  A 0.25 0.24 10.4 0 1 442.06 431.89
  L 461.25 379.59
  A 0.59 0.57 -79.9 0 1 461.79 379.20
  Q 464.78 379.19 467.23 379.19
  Z
  M 459.72 412.49
  A 0.34 0.34 0.0 0 0 460.03 412.94
  L 474.51 413.00
  A 0.34 0.34 0.0 0 0 474.84 412.54
  L 467.67 391.92
  A 0.34 0.34 0.0 0 0 467.03 391.92
  L 459.72 412.49
  Z"
/>
<path fill="#092f5e" d="
  M 761.22 402.14
  L 756.79 402.14
  A 0.99 0.99 0.0 0 1 755.80 401.15
  L 755.80 394.49
  A 0.89 0.89 0.0 0 1 756.69 393.60
  L 761.52 393.60
  A 0.49 0.49 0.0 0 0 762.01 393.14
  L 762.76 382.41
  A 0.29 0.29 0.0 0 1 763.05 382.14
  L 771.55 382.14
  A 0.42 0.42 0.0 0 1 771.97 382.56
  L 771.97 393.07
  A 0.52 0.52 0.0 0 0 772.49 393.59
  L 781.51 393.59
  A 0.51 0.51 0.0 0 1 782.02 394.10
  L 782.02 401.55
  A 0.55 0.55 0.0 0 1 781.47 402.10
  L 772.71 402.10
  A 0.62 0.62 0.0 0 0 772.09 402.70
  Q 772.05 403.93 772.20 418.25
  Q 772.27 425.28 781.37 423.43
  A 0.46 0.45 83.9 0 1 781.92 423.88
  L 781.92 431.32
  A 0.83 0.82 81.4 0 1 781.35 432.11
  Q 777.64 433.29 774.25 433.08
  Q 762.26 432.34 762.07 420.24
  Q 761.98 414.82 761.95 402.87
  A 0.73 0.73 0.0 0 0 761.22 402.14
  Z"
/>
<path fill="#ffffff" d="
  M 459.72 412.49
  L 467.03 391.92
  A 0.34 0.34 0.0 0 1 467.67 391.92
  L 474.84 412.54
  A 0.34 0.34 0.0 0 1 474.51 413.00
  L 460.03 412.94
  A 0.34 0.34 0.0 0 1 459.72 412.49
  Z"
/>
<path fill="#092f5e" d="
  M 494.46 412.92
  C 494.49 400.81 502.81 392.95 514.53 392.76
  Q 528.90 392.52 533.37 406.09
  A 0.77 0.76 81.0 0 1 532.64 407.10
  L 523.42 407.08
  A 1.24 1.24 0.0 0 1 522.31 406.38
  Q 519.52 400.62 512.53 401.83
  C 507.09 402.77 504.74 407.85 504.72 412.94
  C 504.71 418.03 507.04 423.12 512.48 424.09
  Q 519.46 425.33 522.28 419.58
  A 1.24 1.24 0.0 0 1 523.39 418.89
  L 532.62 418.91
  A 0.77 0.76 -80.7 0 1 533.33 419.93
  Q 528.80 433.47 514.44 433.17
  C 502.72 432.92 494.43 425.02 494.46 412.92
  Z"
/>
<path fill="#092f5e" d="
  M 547.53 412.97
  C 547.53 418.07 549.88 423.15 555.32 424.11
  Q 562.31 425.33 565.11 419.57
  A 1.24 1.24 0.0 0 1 566.22 418.88
  L 575.45 418.88
  A 0.77 0.76 -80.8 0 1 576.17 419.89
  Q 571.67 433.45 557.30 433.18
  C 545.57 432.97 537.27 425.08 537.27 412.98
  C 537.26 400.87 545.57 392.98 557.29 392.76
  Q 571.66 392.49 576.17 406.05
  A 0.77 0.76 80.8 0 1 575.45 407.06
  L 566.22 407.06
  A 1.24 1.24 0.0 0 1 565.11 406.37
  Q 562.31 400.61 555.32 401.84
  C 549.88 402.79 547.53 407.88 547.53 412.97
  Z"
/>
<path fill="#092f5e" d="
  M 619.02 416.10
  L 590.94 416.10
  A 0.36 0.36 0.0 0 0 590.59 416.52
  C 592.05 425.29 602.05 428.33 608.13 421.62
  A 1.48 1.44 20.3 0 1 609.22 421.14
  L 618.36 421.14
  A 0.45 0.44 7.5 0 1 618.79 421.70
  C 616.47 429.88 607.81 433.69 599.72 433.22
  Q 589.21 432.61 583.55 424.70
  C 579.09 418.48 578.93 407.85 583.22 401.54
  Q 590.65 390.61 605.06 393.20
  C 615.83 395.13 620.13 405.35 619.69 415.46
  A 0.67 0.67 0.0 0 1 619.02 416.10
  Z
  M 590.99 408.95
  L 609.25 408.91
  A 0.13 0.13 0.0 0 0 609.38 408.78
  L 609.38 408.73
  A 8.67 7.86 -0.1 0 0 600.69 400.89
  L 599.51 400.89
  A 8.67 7.86 -0.1 0 0 590.86 408.77
  L 590.86 408.82
  A 0.13 0.13 0.0 0 0 590.99 408.95
  Z"
/>
<path fill="#092f5e" d="
  M 682.03 415.46
  A 0.67 0.67 0.0 0 1 681.36 416.10
  L 653.25 416.14
  A 0.36 0.36 0.0 0 0 652.90 416.56
  C 654.38 425.33 664.39 428.36 670.47 421.64
  A 1.48 1.44 20.2 0 1 671.56 421.16
  L 680.70 421.15
  A 0.45 0.45 0.0 0 1 681.13 421.71
  C 678.82 429.90 670.16 433.72 662.06 433.26
  Q 651.54 432.66 645.87 424.75
  C 641.40 418.53 641.22 407.90 645.51 401.57
  Q 652.93 390.63 667.36 393.20
  C 678.14 395.12 682.45 405.34 682.03 415.46
  Z
  M 653.08 408.92
  L 671.70 408.92
  A 0.13 0.13 0.0 0 0 671.83 408.79
  L 671.83 408.75
  A 8.95 7.87 0.0 0 0 662.88 400.88
  L 661.90 400.88
  A 8.95 7.87 0.0 0 0 652.95 408.75
  L 652.95 408.79
  A 0.13 0.13 0.0 0 0 653.08 408.92
  Z"
/>
<path fill="#092f5e" d="
  M 741.03 429.67
  A 0.35 0.35 0.0 0 0 740.44 429.39
  C 735.94 433.72 728.47 434.21 723.42 432.74
  Q 714.57 430.15 715.11 420.46
  C 715.75 408.73 731.67 407.08 740.13 409.68
  A 0.56 0.56 0.0 0 0 740.86 409.12
  Q 740.61 400.70 731.98 401.55
  Q 727.17 402.02 727.18 405.59
  A 0.60 0.59 0.0 0 1 726.58 406.18
  L 716.62 406.18
  A 0.32 0.31 3.2 0 1 716.30 405.83
  Q 717.70 395.07 728.26 393.11
  C 736.18 391.64 745.49 393.67 749.50 401.22
  Q 751.07 404.17 750.86 409.97
  Q 750.79 411.90 750.86 431.50
  A 0.68 0.67 -0.4 0 1 750.18 432.18
  L 741.60 432.18
  A 0.70 0.69 1.9 0 1 740.90 431.44
  L 741.03 429.67
  Z
  M 741.09 417.71
  A 1.20 1.20 0.0 0 0 740.15 416.48
  Q 734.56 415.21 729.74 415.96
  C 723.49 416.94 723.94 425.10 730.06 425.63
  Q 734.32 426.00 736.06 425.09
  Q 740.86 422.61 741.09 417.71
  Z"
/>
<path fill="#092f5e" d="
  M 827.00 413.04
  A 20.61 20.61 0.0 0 1 806.39 433.65
  A 20.61 20.61 0.0 0 1 785.78 413.04
  A 20.61 20.61 0.0 0 1 806.39 392.43
  A 20.61 20.61 0.0 0 1 827.00 413.04
  Z
  M 806.6705 401.5734
  A 11.48 10.43 -88.6 0 0 795.9631 412.7952
  A 11.48 10.43 -88.6 0 0 806.1095 424.5266
  A 11.48 10.43 -88.6 0 0 816.8169 413.3048
  A 11.48 10.43 -88.6 0 0 806.6705 401.5734
  Z"
/>
<path fill="#092f5e" d="
  M 698.51 398.64
  A 0.28 0.27 -27.4 0 0 699.02 398.80
  Q 703.22 391.91 712.09 393.12
  A 0.80 0.79 4.2 0 1 712.77 393.90
  L 712.77 402.89
  A 0.43 0.43 0.0 0 1 712.25 403.31
  C 704.89 401.78 699.10 405.08 698.95 413.00
  Q 698.90 415.87 698.94 431.58
  A 0.63 0.63 0.0 0 1 698.31 432.21
  L 689.13 432.21
  A 0.43 0.42 -0.0 0 1 688.70 431.79
  L 688.70 394.28
  A 0.68 0.68 0.0 0 1 689.38 393.60
  L 698.19 393.60
  A 0.62 0.62 0.0 0 1 698.81 394.27
  L 698.51 398.64
  Z"
/>
<path fill="#092f5e" d="
  M 842.86 398.63
  A 0.28 0.27 -27.5 0 0 843.36 398.79
  Q 847.55 391.90 856.41 393.10
  A 0.79 0.79 0.0 0 1 857.09 393.88
  L 857.11 402.86
  A 0.43 0.43 0.0 0 1 856.59 403.28
  C 849.23 401.76 843.45 405.06 843.31 412.98
  Q 843.27 415.84 843.33 431.54
  A 0.63 0.63 0.0 0 1 842.70 432.17
  L 833.53 432.18
  A 0.43 0.42 -0.1 0 1 833.10 431.76
  L 833.05 394.29
  A 0.68 0.68 0.0 0 1 833.73 393.61
  L 842.53 393.60
  A 0.62 0.62 0.0 0 1 843.15 394.27
  L 842.86 398.63
  Z"
/>
<path fill="#ffffff" d="
  M 590.99 408.95
  A 0.13 0.13 0.0 0 1 590.86 408.82
  L 590.86 408.77
  A 8.67 7.86 -0.1 0 1 599.51 400.89
  L 600.69 400.89
  A 8.67 7.86 -0.1 0 1 609.38 408.73
  L 609.38 408.78
  A 0.13 0.13 0.0 0 1 609.25 408.91
  L 590.99 408.95
  Z"
/>
<path fill="#ffffff" d="
  M 653.08 408.92
  A 0.13 0.13 0.0 0 1 652.95 408.79
  L 652.95 408.75
  A 8.95 7.87 -0.0 0 1 661.90 400.88
  L 662.88 400.88
  A 8.95 7.87 0.0 0 1 671.83 408.75
  L 671.83 408.79
  A 0.13 0.13 0.0 0 1 671.70 408.92
  L 653.08 408.92
  Z"
/>
<ellipse fill="#ffffff" cx="0.00" cy="0.00" transform="translate(806.39,413.05) rotate(-88.6)" rx="11.48" ry="10.43"/>
<path fill="#ffffff" d="
  M 741.09 417.71
  Q 740.86 422.61 736.06 425.09
  Q 734.32 426.00 730.06 425.63
  C 723.94 425.10 723.49 416.94 729.74 415.96
  Q 734.56 415.21 740.15 416.48
  A 1.20 1.20 0.0 0 1 741.09 417.71
  Z"
/>
</svg>
