<?xml version="1.0" encoding="UTF-8"?>
<svg id="Layer_1" xmlns="http://www.w3.org/2000/svg" version="1.1" viewBox="0 0 1024 1024">
  <!-- Generator: Adobe Illustrator 29.6.1, SVG Export Plug-In . SVG Version: 2.1.1 Build 9)  -->
  <defs>
    <style>
      .st0 {
        stroke: #8095af;
      }

      .st0, .st1, .st2, .st3, .st4, .st5, .st6 {
        fill: none;
        stroke-width: 2px;
      }

      .st7 {
        fill: #00061e;
      }

      .st1 {
        stroke: #ffac89;
      }

      .st2 {
        stroke: #80828e;
      }

      .st3 {
        stroke: #7f433a;
      }

      .st8 {
        fill: #fff;
        stroke: #000;
        stroke-miterlimit: 10;
      }

      .st4 {
        stroke: #00193f;
      }

      .st9 {
        fill: #fffefe;
      }

      .st5 {
        stroke: #053d7d;
      }

      .st10 {
        fill: #002c60;
      }

      .st6 {
        stroke: #85a6cc;
      }

      .st11 {
        fill: #0a4e99;
      }

      .st12 {
        fill: #fe5914;
      }
    </style>
  </defs>
  <g>
    <path class="st0" d="M712.5,548c0-2.6.1-5.2.1-7.8,0-50,0-111.4,0-184,0-3.8-.3-6.6-1-8.5-1.4-4.3-4.3-7.4-8.7-9.4-.8-.4-1.7-.2-2.3.4l-16.2,15.1c-.4.4-.5.9-.3,1.4.8,1.6,1.2,3.4,1.2,5.4,0,32.3,0,97,0,194,0,.3-.2.5-.4.5h-332.7" vector-effect="non-scaling-stroke"/>
    <path class="st1" d="M352.2,555c3-2.7,6-5.4,8.9-8.1,28.9-26.3,50.9-46.4,65.9-60.4,2.8-2.6,4.3-4.6,7.5-1.3,11.7,11.9,26.3,26.5,43.8,43.7,5.7,5.7,11.3,3.2,16.1-1.7,61.7-61.8,128-127.7,198.9-197.6,1.5-1.4,4.4-4.2,8.9-8.4,1.4-1.3,2.8-1.3,4.2,0,4.5,4.3,10.6,10,18.5,17,4.3,3.9,8.9,1.1,10-3.9,12.4-54.1,19.7-85.9,21.8-95.4.9-3.9-.1-8.8-4.2-10-1-.3-2.8,0-5.6.7-35.6,9.7-66.1,17.9-91.3,24.4-2.1.6-5.3,1.9-5.7,4.6-.3,2,.4,3.7,1.9,5.1,7.9,7,15.5,14.1,22.9,21.3.5.5.7,1.3.3,2-.6,1.1-1.3,2.1-2.1,2.9-3,3-24.9,24.2-65.7,63.8-1.2,1.2-42.3,41.1-123.2,119.8-2.2,2.1-3.7,4-6.2,1.6-10.7-10.1-21.3-20.3-31.9-30.6-1.4-1.4-4.4-4.3-9.1-8.7-2.1-2-4.4-2.4-6.6-1-.5.3-.9.6-1.3,1-30.6,28.3-60.6,56.5-90.2,84.6" vector-effect="non-scaling-stroke"/>
    <path class="st0" d="M338.6,520.3v-126" vector-effect="non-scaling-stroke"/>
    <path class="st2" d="M338.6,394.3v-34.3c0-.5.2-1,.5-1.3l172.6-141.8c.3-.3.8-.3,1.1,0l114.2,94.6" vector-effect="non-scaling-stroke"/>
    <path class="st0" d="M627,311.6l3.1,2.5c.3.3.8.3,1.1,0l19.1-17c.3-.2.3-.6.2-.9-.3-.7-.9-1.3-1.8-1.7" vector-effect="non-scaling-stroke"/>
    <path class="st2" d="M648.7,294.5c-41.1-33.8-82.1-67.7-123.1-101.6-2.8-2.3-5.5-4-8-4.9-3.5-1.3-7.1-1.4-10.7-.3-1.6.5-4.6,2.5-8.9,6.1-40.7,33.6-100.2,82.4-178.5,146.6-5.3,4.3-7.6,8-7.6,14.3.2,62.1.2,131.8,0,209,0,3.8.2,6.5.7,8.1,1.9,6,5.9,9.4,12.2,10.3.9.1,2.8.2,5.6.2,217.3,0,337.9,0,361.8,0,9.1,0,14.9-.9,18.8-8.5.9-1.8,1.4-6,1.4-12.7s0-8.6,0-12.9" vector-effect="non-scaling-stroke"/>
    <path class="st4" d="M648.7,294.5c0,.3-.3.5-.5.5-.6,0-1.1-.3-1.5-.7-79.5-65.5-120.3-99.1-122.4-100.8-3-2.4-5.2-3.9-6.4-4.3-4.9-1.8-9.3-1.5-13.2.9-2.7,1.7-7.6,5.9-14.7,12.4-.1.1-.3.2-.4.3-3.5,2.2-6.2,4.5-8.2,6.8-.3.4-.7.7-1.1.9-1.8,1.2-3.5,2.4-5,3.6-9.1,7.3-16.3,13.3-21.8,18.2-1.8,1.6-6.5,5.4-14.1,11.3-4.2,3.3-8.8,7.1-13.8,11.7-2.7,2.5-5.8,4.1-8,6.2-4.3,4.1-10.4,8.4-13.6,11.5-1.7,1.7-3.8,3.3-6.2,5-1.9,1.3-3.9,3-6.1,5.1-.2.2-.3.3-.5.4-2,1.4-3.4,2.6-4.3,3.6-.1.2-.3.3-.5.4-.3.1-1.1.7-2.4,1.7-10.2,8.4-16.8,13.9-19.8,16.3-2.4,2-5.4,4-7.3,6.1-.2.3-.5.5-.8.7-2.7,1.7-5.8,4.1-9.4,7.3-3.3,2.9-9.5,8-18.6,15.2-1.8,1.4-2.9,2.8-4.9,4.1-.2.1-.4.3-.5.4-3,2.7-6.6,5.1-8,7.9-1,2.1-1.5,3.9-1.5,5.3.1,71.4,0,141.3-.3,209.7,0,.5,0,1.5.2,2.7.3,2.3.1,4.9.7,6.8,1.4,4.7,5.1,7.7,10.1,8.8,2.5.5,4.6.8,6.3.8,142.1,0,263,0,362.8,0,3.3,0,7.7-.4,10.3-1.7,4.4-2.2,6.9-5.7,7.7-10.6.5-3.4-.4-10.6.1-15.4.3-2.3.4-4.3.4-5.8,0-.2.2-.4.4-.4,0,0,0,0,.1,0,.1,0,.3.3.4.6" vector-effect="non-scaling-stroke"/>
    <path class="st4" d="M627,311.6c.3,0,.4,0,.5-.1.3-.5.2-1-.3-1.3-2.3-1.4-3.7-3.5-5.8-4.9-1.4-.9-3.8-2.9-7.2-5.9-2.2-2-4.6-4-7.2-6.1-6.9-5.5-14-11.4-21.4-17.8-6.3-5.4-11-9.3-14.3-11.9-5-3.9-8.3-7.3-12.7-10.7-3.3-2.5-6.3-4.9-9-7.1-5.9-4.8-15.4-12.7-28.5-23.5-2.5-2-4.7-4.7-7.7-6.3-.8-.5-1.9-.4-2.6.2l-155.9,128.7c0,0-.1,0-.2.1-1.3.6-2.6,1.6-4,3-.8.8-1.5,1.5-2.1,1.9-1.4,1-5,3.8-10.6,8.3-.2.2-.4.5-.4.8-.3,3.3-.4,6-.4,8-.2,7.1,0,15.4.2,25,0,2,.5,2.8,1.2,2.3" vector-effect="non-scaling-stroke"/>
    <path class="st3" d="M338.6,520.3v33.9c.1.6.5,1,1.1,1.1,4.9.8,9.1.7,12.5-.4" vector-effect="non-scaling-stroke"/>
    <path class="st6" d="M518.4,416.8c.3,0,.6-.2.9-.5,20.1-19.1,34.9-33.2,44.5-42.5.9-.9,1.5-2.2,1.5-3.5,0-34.1-.1-54.1,0-60.1,0-5.1-2.5-7.7-7.5-7.7-14.3,0-24.4,0-30.3-.1-5.2,0-9.5,1-9.5,6.6,0,30.7,0,66.4,0,107.4,0,.2.2.4.4.4,0,0,0,0,0,0" vector-effect="non-scaling-stroke"/>
    <path class="st0" d="M497.4,346.6c-10.2-.8-20.3-.9-30.2-.5" vector-effect="non-scaling-stroke"/>
    <path class="st6" d="M467.3,346.1c-5.4-1-11.7-.2-11.6,6.9,0,5.8,0,30.9,0,75.3,0,3.5.4,4.9,2.9,7,4.5,3.9,10.6,9.6,18.3,16.8,2.2,2.1,4.6,1.9,7-.5,8.7-8.6,14.6-14.6,17.9-17.9.8-.8,1.2-2,1.2-3.5,0-.6,0-26.1,0-76.5,0-4.7-1.9-7.1-5.6-7.2" vector-effect="non-scaling-stroke"/>
    <path class="st5" d="M467.3,346.1c-.1.2-.2.4-.2.4,0,.3.3.5.6.5,10,.3,19.9.2,29.8-.5" vector-effect="non-scaling-stroke"/>
    <path class="st0" d="M439.9,417.6c.7-8.3.7-16.6,0-25.1" vector-effect="non-scaling-stroke"/>
    <path class="st6" d="M440,392.5c.3-2.7-.6-4.6-2.9-5.7-1.3-.6-3.5-.9-6.8-.9-18.3,0-28.5,0-30.5.1-4.5.1-6.7,2.2-6.8,6.3,0,16.5,0,34.2,0,53.2,0,.4.3.7.8.7.2,0,.4,0,.5-.2,5.4-4.9,11.2-10.3,17.4-16.1,7.1-6.6,12.7-10.9,22.7-9.7,1.3.2,3,.4,4.9.8.3,0,.7,0,.8-.4.7-1.2.6-2.2-.2-3" vector-effect="non-scaling-stroke"/>
    <path class="st5" d="M440,392.5c-.8,8.5-.9,16.9,0,25.1" vector-effect="non-scaling-stroke"/>
    <path class="st2" d="M546.9,667.2c-4.5,17.4-2.3,36.7,7.8,51.6,9,13.2,23.1,21.7,38.8,23.9,10.1,1.4,19.7.7,28.7-2,23.1-7.1,38-26.7,39.6-50.7.5-8.5-.1-16-2.1-22.6-4.3-14.7-13.2-25.9-26.7-33.5-8.8-5-18.5-7.3-29.2-6.7" vector-effect="non-scaling-stroke"/>
    <path class="st0" d="M603.8,627.2c-4-.5-8.4-.3-13.2.6-21.2,4.3-37.5,18.5-43.7,39.4" vector-effect="non-scaling-stroke"/>
    <path class="st4" d="M603.8,627.2c5.5.6,10.8,1.5,15.9,2.8,5.9,1.5,10.9,3.5,14.9,6,10.5,6.5,19.7,17.2,23.4,29.5,1.2,3.9,1.8,6.3,1.8,7.1.1,3.4.5,6.8,1.1,10.1.4,2.4.2,4.9-.6,7.4,0,0,0,.2,0,.3l-.8,9.4c0,0,0,.2,0,.2-1.3,2.9-1.7,5.6-3.1,8.8-2.8,6.3-6.3,11.6-10.4,16-3.6,3.8-6.6,6.4-9.1,8-3.9,2.4-8,4.4-12,6-4.3,1.7-8.6,2.7-13.1,3.1-8.7.8-16.2.5-22.4-1-7.7-1.8-15-5.3-21.7-10.5-8.2-6.3-13.9-13.7-17.2-22.3-1.6-4.1-2.8-8.5-3.7-13.3-.5-2.6-.6-5.8-.5-9.7.3-6.7,0-11.5,1.8-16.7.2-.6.2-.9-.2-1-.2,0-.5,0-.9,0" vector-effect="non-scaling-stroke"/>
    <path class="st0" d="M707.1,631.9c-9.3,4.4-16.7,10.9-22.2,19.7" vector-effect="non-scaling-stroke"/>
    <path class="st2" d="M684.9,651.6c-8.2,13.1-10.4,28.8-8.3,43.8,2.3,16.3,10.1,29.1,23.4,38.4,6.5,4.6,13.7,7.5,21.5,8.7,28,4.3,53-6.8,62-35.1" vector-effect="non-scaling-stroke"/>
    <path class="st0" d="M783.5,707.5l.7-3.9c0-.3-.1-.5-.4-.6,0,0,0,0,0,0h-22.4c-.5,0-1,.3-1.3.8-5.1,10.7-13.5,16.8-25.3,18.1" vector-effect="non-scaling-stroke"/>
    <path class="st2" d="M734.8,721.9c-19.9,1.1-32.6-13.3-34.4-32-1.3-13.5,2.7-27.7,13.6-36,4.4-3.3,9.1-5.2,14.3-5.7,12.1-1.2,21.5,2.9,28.3,12.1,0,0,.7,1.3,2.2,3.8.9,1.6,2,2.5,3.2,2.8" vector-effect="non-scaling-stroke"/>
    <path class="st0" d="M761.9,667h21.4c.3,0,.5-.2.5-.5,0,0,0,0,0,0-.2-2.4-.7-4.1-1.6-5.1" vector-effect="non-scaling-stroke"/>
    <path class="st2" d="M782.2,661.3c-1-5.9-3.6-11.3-7.7-16.3-9.5-11.4-21.6-17.4-36.5-18.1-10.9-.5-20.9.5-30.9,5" vector-effect="non-scaling-stroke"/>
    <path class="st4" d="M782.2,661.3c-4.9-13.8-13.6-23.5-26.4-29.2-2-.9-3.3-1.4-4.1-1.5-3.8-.7-7-2-10.8-2.4-6.7-.6-13-.5-19.1.4-4.3.6-9,2-14.1,4.2-.1,0-.2,0-.3,0-.2-.2-.3-.4-.2-.9" vector-effect="non-scaling-stroke"/>
    <path class="st4" d="M761.9,667c-2.1-4.6-5-8.5-8.5-11.9-4.5-4.4-9.7-6.8-15.5-7.3-1.6-.1-3-.3-4.3-.3-2.5-.2-4-.3-4.3-.2-13.8,1.2-24,10.5-28.4,23.4-.8,2.5-1.4,5.4-1.6,8.6-.6,9.9.2,18.5,5.1,27.4,6.7,12,16.9,17.5,30.8,16.6.4,0,.7-.3.6-.7,0-.2-.2-.5-.4-.6-.2,0-.4,0-.8,0" vector-effect="non-scaling-stroke"/>
    <path class="st4" d="M783.5,707.5c-.6-.4-1-.4-1.2,0-2.2,6.9-5.5,14-10.8,18.6-1.8,1.5-3.3,3.2-4.6,5-.1.2-.3.3-.5.3-.3,0-1,.5-2.1,1.3-5,4-10.8,6.7-17.3,8.1-9,1.8-18.6,1.8-28.8-.2-3.1-.6-7.7-2.5-13.7-5.6-2.6-1.4-5.1-3.9-7.4-5.4-5-3.2-8.9-9-12.2-14.1-2.2-3.3-3.8-6.9-4.9-10.7-2.5-9.1-3.3-18.4-2.3-27.7.9-8.9,3.7-17,8.2-24.4.2-.3.1-.7-.2-.9,0,0-.3,0-.7,0" vector-effect="non-scaling-stroke"/>
    <path class="st2" d="M290.1,695c14.7,0,22.5,0,23.3,0,.3,0,.6.3.6.6v45.5c0,.2.1.3.3.3h23.4c.1,0,.3-.1.3-.3v-111.8c0-.2-.2-.4-.4-.4h-23.2c-.2,0-.4.2-.4.4h0v43.7c0,.4-.3.8-.7.8-1,.1-2.1.2-3.3.2-8,0-14.6,0-19.9,0s-12,0-19.9,0c-1.2,0-2.3,0-3.3-.2-.4,0-.7-.4-.7-.8v-43.6c0-.2-.2-.4-.4-.4h-23.2c-.2,0-.4.2-.4.4v111.8c0,.1,0,.3.2.3h23.3c.2,0,.3-.1.3-.3h0s0-45.5,0-45.5c0-.3.3-.6.6-.6.8,0,8.6,0,23.3,0" vector-effect="non-scaling-stroke"/>
    <path class="st2" d="M364,633v108.2c0,.2.2.3.3.3h26.4" vector-effect="non-scaling-stroke"/>
    <path class="st0" d="M390.7,741.5h50.6c.2,0,.4-.1.4-.4h0v-19.6c0-.3-.2-.5-.5-.5h-52.3c-.5,0-1-.4-1-1v-25.5c0,0,0,0,0-.1,0-.2.2-.3.3-.3" vector-effect="non-scaling-stroke"/>
    <path class="st2" d="M388.2,694h46.7c.2,0,.3-.1.3-.3h0v-18c0-.3-.2-.5-.5-.5h-7.5" vector-effect="non-scaling-stroke"/>
    <path class="st0" d="M427.2,675h-24.7" vector-effect="non-scaling-stroke"/>
    <path class="st2" d="M402.5,675h-14.5" vector-effect="non-scaling-stroke"/>
    <path class="st0" d="M387.9,674.9c0-8.5,0-16.8,0-24.9,0-.3.2-.5.5-.5" vector-effect="non-scaling-stroke"/>
    <path class="st2" d="M388.4,649.5l51.3.2c.1,0,.3-.1.3-.2,0,0,0,0,0,0l-.2-16.8" vector-effect="non-scaling-stroke"/>
    <path class="st0" d="M439.7,632.6c.4-.8.5-1.9.2-3.1,0-.3-.3-.5-.7-.5h-74.7c-.3,0-.6.2-.6.5h0v3.5" vector-effect="non-scaling-stroke"/>
    <path class="st4" d="M439.7,632.6c-.7,5.1-.9,10.1-.6,15.1,0,.5-.3.9-.8.9,0,0,0,0,0,0-2,0-4.1-.1-6.3-.1-16.4,0-30.6,0-42.8,0-.6,0-.8.3-.8.9" vector-effect="non-scaling-stroke"/>
    <path class="st4" d="M387.9,674.9c-1,.4-.7.8.7,1.2.2,0,.4,0,.6,0h13.1c.3,0,.5-.3.5-.5,0-.1,0-.2-.1-.3l-.3-.3" vector-effect="non-scaling-stroke"/>
    <path class="st4" d="M427.2,675c-.8.7-.3,1.1,1.3,1.1,1.7,0,3.2,0,4.7-.2.5,0,1,.3,1.1.9,0,0,0,0,0,0,0,5-.8,10,0,14.7.1.7-.3,1.3-1,1.4,0,0-.1,0-.2,0-6.1.3-11.4.4-16,.3-9.3-.2-18.6-.3-27.8-.3-.3,0-.6,0-.8.3-.2.2-.3.4-.4.7" vector-effect="non-scaling-stroke"/>
    <path class="st4" d="M390.7,741.5l-24.4-1.1c-.8,0-1.5-.7-1.5-1.5.4-34.5.4-68.9,0-103.1,0-1.3-.3-2.3-1-2.8" vector-effect="non-scaling-stroke"/>
    <path class="st2" d="M465,632.8c-.3,1.5-.5,3.4-.5,5.8,0,30.8-.1,61.7-.1,92.5,0,1.3,0,2.6.2,3.9" vector-effect="non-scaling-stroke"/>
    <path class="st0" d="M464.5,734.9v6.2c0,.3.1.5.4.5,0,0,0,0,0,0h73.8c.3,0,.6-.3.6-.6h0v-20.3c0-.3-.2-.5-.5-.5h-49.6c-.2,0-.3-.1-.3-.3h0v-90.4c0-.3-.2-.5-.5-.5h-23.4c-.3,0-.6.2-.6.5-.3,1.6,0,2.7.6,3.2" vector-effect="non-scaling-stroke"/>
    <path class="st4" d="M464.5,734.9c.8.4,1.2-.3,1.2-2.2,0-31.7,0-63.3,0-95,0-2.6-.3-4.2-.9-5" vector-effect="non-scaling-stroke"/>
    <path class="st0" d="M492.9,762.5c0-.3-.2-.5-.5-.5h-12.7c-.3,0-.5.2-.5.5h0v72c0,.3.2.5.5.5h12.7c.3,0,.5-.2.5-.5h0v-72" vector-effect="non-scaling-stroke"/>
    <path class="st0" d="M271.3,819.4c2.4.6,5.1.7,8.3.3" vector-effect="non-scaling-stroke"/>
    <path class="st2" d="M279.6,819.7l3.6.2c.3,0,.6.2.7.5l4.4,13.6c.2.6.7,1,1.3,1h14c.3,0,.6-.3.6-.6,0,0,0-.1,0-.2l-25.5-69c-.3-.8-1-1.3-1.8-1.2h-13.5c-.4,0-.7.2-.9.6l-25.6,69.5c-.1.3,0,.7.4.9,0,0,.2,0,.2,0h13c.7,0,1.3-.4,1.6-1.1l5.1-13.8c0-.3.3-.4.6-.4l13.5-.3" vector-effect="non-scaling-stroke"/>
    <path class="st4" d="M279.6,819.7c-.4-.2-.8-.3-1.2-.3-.1,0-.2-.1-.2-.2,0,0,0-.1,0-.1.9-.5,2.5-.5,4.3-.4,1.2,0,2.2.8,2.5,1.9l4,12.4c.2.7,1,1.2,1.8,1.1,3.3-.5,7-.4,10.9.1.5,0,1-.3,1-.8,0-.2,0-.4-.1-.6l-1.3-2.1c0,0,0-.1,0-.2l-23.7-64.2c-.1-.4-.5-.6-.9-.6h-12.9c-.3,0-.6.2-.7.5l-1.9,6.8c0,0,0,.1,0,.2-1,2-1.7,3.7-2.1,5.1-.9,3.1-2.5,7.3-4.8,12.8-1.4,3.5-2.2,5.5-2.4,6.2-.8,2.5-1.5,4.6-2.2,6.2-.7,1.5-1.8,4.6-3.5,9.3-2.1,6-4.4,11.9-6.8,17.5-.3.8-.5,1.8-.6,2.8,0,.4.3.8.8.8,0,0,0,0,0,0h9.9c1.2,0,2.2-1,2.2-2.2,0,0,0,0,0,0,0-1.2.1-2.1.5-2.7.4-.7.7-1.3.8-1.8.9-2.9,1.9-5.5,3.1-7.9.3-.5.8-.9,1.3-.9,4.7-.1,9.2.2,13.7,1.1" vector-effect="non-scaling-stroke"/>
    <path class="st2" d="M656.2,795.6h3.1c.4,0,.7.3.7.7,0,10.3-.1,17-.1,20.1,0,7.6,1.6,14.2,9.4,17.2,5,1.9,10,1.5,15.9,1.3.3,0,.5-.2.5-.5v-11.3c0-.3-.2-.5-.5-.5,0,0,0,0,0,0-5.6.8-11.1.4-11.6-6.7-.2-2.2-.2-8.9-.3-19.9,0-.2.2-.4.4-.4h11.6c0,.1.2.1.2,0,.3-.3.4-.8.3-1.6" vector-effect="non-scaling-stroke"/>
    <path class="st0" d="M685.7,794.2v-10.3c0-.2-.1-.5-.4-.5h-11.8c-.1,0-.3-.1-.3-.3h0v-12.7c0-.3-.2-.5-.5-.5h-12.2c-.3,0-.5.2-.5.5v12.3c0,.3-.3.6-.6.6h-7.4c-.4,0-.6.3-.6.7v11.1c0,.4.3.7.7.7,0,0,0,0,0,0l4.2-.2" vector-effect="non-scaling-stroke"/>
    <path class="st4" d="M685.7,794.2l-11.3.4c-1.3,0-2.3,1.1-2.3,2.5,0,6.2.1,11.3.1,15.5,0,4,.5,6.7,1.4,8.1,1.5,2.3,4,3.5,7.4,3.5.9,0,1.8,0,2.8-.2.3,0,.7.2.7.5,0,0,0,0,0,0v8.2c0,.7-.6,1.3-1.3,1.3,0,0,0,0-.1,0-3-.3-6.5.3-9.6-.4-6.2-1.4-10.6-3.5-11.7-10.3-1.1-6.5-.7-12.6-.7-21.7,0-2.1.4-4.1-.3-6.2-.1-.4-.5-.7-.9-.7-1.8-.3-3.1,0-3.8,1" vector-effect="non-scaling-stroke"/>
    <path class="st2" d="M355.8,818.2l-11.2-1.2c-.6,0-1.2.3-1.5.8-2,3.8-5.8,6.1-10.2,6.2-7.8,0-12.3-4.2-13.4-12.7-1.3-10.2,5.5-18.8,16.4-16.6,3.8.8,5.1,3.1,7.1,5.9.2.3.5.5.9.5h11.5c.5,0,.8-.4.8-.8,0,0,0-.1,0-.2-2.7-10-9.1-15.8-19-17.2-16.8-2.4-31.1,8.7-31.2,25.7,0,9.9,3.5,17.5,10.7,22.7,6.2,4.5,15.5,5.4,22.8,3.8,8.7-2,14.3-7.3,16.9-15.8.1-.4,0-.7-.5-.9,0,0,0,0-.1,0" vector-effect="non-scaling-stroke"/>
    <path class="st0" d="M631.6,828.6v5.7c.1.4.4.7.8.7h11.7c.2,0,.4-.2.4-.4,0,0,0,0,0,0l-.2-29.9" vector-effect="non-scaling-stroke"/>
    <path class="st2" d="M644.4,804.7c.6-6.2-.9-11.4-4.5-15.4-6.2-7-16-7.7-24.6-6.4-8.2,1.3-15.7,7.3-15.4,16.1,0,.4.3.6.6.7l9.6,1.1c.4,0,.8-.2,1-.7,1.8-7,10.3-7.4,15.8-5.2,2,.8,3.5,2.4,4.1,4.4l1.2,3.6c.3,1-.2,2-1.2,2.3-.3.1-.7.1-1,0-7.1-1.7-14.6-1.9-22.4-.5-7,1.2-10.9,7.4-10.6,14.5.5,13.6,14.7,19,26.4,15.8,3.2-.9,6-3,8.4-6.4" vector-effect="non-scaling-stroke"/>
    <path class="st4" d="M644.4,804.7c0,.3,0,.5-.2.6-.3.1-.6,0-.7-.3,0,0,0-.1,0-.2.1-6.9-.9-12.5-6.8-17-3.1-2.4-6.6-3.7-10.5-4.1-11.1-1.1-23,1.5-25.5,14.1-.1.7.3,1.4,1,1.5,0,0,.2,0,.3,0h7.1c.6,0,1.2-.3,1.5-.9l1.3-2.7c.2-.3.4-.6.7-.8,3.8-2.4,7.9-3,12.5-2,5.9,1.3,8.8,6.7,7.7,12.6-.1.6-.7.9-1.2.8-3.5-.6-8.1-1.2-13.8-1.7-2.3-.2-4.5,0-6.7.4-3.8.8-6,1.4-6.6,1.7-4.7,2.7-6.7,7.1-6.2,13,.6,6.1,3.7,10.5,9.5,13.1,1.2.5,4,1.2,8.4,2.1.3,0,.7,0,1,0,3.5-.5,5.6-.9,6.5-1.2,1.8-.7,4.5-2.4,8.1-5.2" vector-effect="non-scaling-stroke"/>
    <path class="st2" d="M412.8,818.1l-11.2-1.2c-.6,0-1.2.3-1.5.8-2,3.8-5.8,6.2-10.2,6.2-7.8,0-12.3-4.2-13.5-12.6-1.4-10.2,5.4-18.9,16.4-16.7,3.8.8,5.1,3,7.1,5.9.2.3.6.5.9.5h11.5c.5,0,.8-.4.8-.9,0,0,0-.1,0-.2-2.8-10-9.1-15.7-19.1-17.1-16.8-2.4-31,8.8-31.1,25.9,0,9.9,3.6,17.5,10.8,22.6,6.2,4.5,15.5,5.4,22.8,3.7,8.7-2.1,14.3-7.4,16.8-15.9.1-.4,0-.7-.4-.9,0,0,0,0-.1,0" vector-effect="non-scaling-stroke"/>
    <path class="st0" d="M466.4,825.7c1.2-.5,2-1.6,2.5-3.5,0-.3,0-.6-.3-.8-.8-.5-1.6-.7-2.3-.5" vector-effect="non-scaling-stroke"/>
    <path class="st2" d="M466.3,821l-8-2.7c-.6-.2-1.2,0-1.5.5-2.4,3.2-5.8,5-10.3,5.3-7.7.6-12.4-2.9-14.2-10.4,0-.3.1-.5.4-.6,0,0,0,0,.1,0h36.5c.3,0,.6-.3.6-.6.3-11.3-3.3-23.3-14.4-28-5.9-2.5-14.5-2.5-20.5,0-13.8,5.7-19.4,21.9-14.1,35.5,4,10.2,11.8,15.5,23.4,15.9,5.3.2,10.2-.8,14.8-3,3.2-1.6,5.6-3.9,7.3-7" vector-effect="non-scaling-stroke"/>
    <path class="st4" d="M466.3,821c-2.1.2-4.3-.2-6.6-1.4-1.1-.5-2.4-.2-3.1.7-3,4-8.9,5.2-14,4.6-6-.7-9.7-4.7-11.1-10.2-.4-1.8.2-2.7,1.8-2.7,6.5,0,18.1,0,34.9,0,.6,0,1.1-.5,1.1-1.1,0,0,0-.2,0-.2-.5-2.5-.9-3.3-1-6-.7-9.8-7-18.8-17.1-20.7-4.8-.9-9.8-.6-15,.9-3.9,1.2-7.7,3.9-11.1,8.3-1.5,1.9-4.3,8.4-4.5,10.2-.5,6-.2,10.8.9,14.6,1.4,4.9,4.2,9,8.5,12.2,5.7,4.4,14.9,4.8,21.7,3.7,5.4-.9,10.3-3.6,14.7-8.3" vector-effect="non-scaling-stroke"/>
    <path class="st2" d="M515.8,813h36.4c.4,0,.8-.4.8-.8.6-18.2-10.2-32.4-29.9-29.3-11.8,1.8-20,11.6-21,23.3-1.5,18.6,10.6,30.9,29.3,29.3,9.4-.8,16.2-5.1,20.4-13,.2-.3,0-.8-.3-1,0,0,0,0,0,0l-9.7-3.6c-.6-.2-1.4,0-1.8.5-2.5,3.3-5.9,5.2-10.1,5.6-7.8.8-12.7-2.7-14.7-10.3,0-.3.1-.6.4-.7,0,0,0,0,.1,0" vector-effect="non-scaling-stroke"/>
    <path class="st2" d="M744.3,806.6c0-13.2-10.6-23.9-23.7-23.9h-4.7c-13.2,0-23.9,10.6-23.9,23.7h0v5.2c0,13.2,10.6,23.9,23.7,23.9h4.7c13.2,0,23.9-10.6,23.9-23.7v-5.2" vector-effect="non-scaling-stroke"/>
    <path class="st0" d="M576.4,789.2c-.9.9-1.4.9-1.4.3" vector-effect="non-scaling-stroke"/>
    <path class="st2" d="M574.9,789.5c.5-1.8.6-3.6.4-5.5,0-.3-.3-.6-.6-.6h-12.2c-.3,0-.5.2-.5.5l.4,46.2" vector-effect="non-scaling-stroke"/>
    <path class="st0" d="M562.5,830.1c-.6.2-.7,1.4-.3,3.7" vector-effect="non-scaling-stroke"/>
    <path class="st2" d="M562.1,833.8c-.2.2-.1.4,0,.8.1.2.3.3.5.4,4.6.5,9,.2,13.2-.8" vector-effect="non-scaling-stroke"/>
    <path class="st0" d="M575.9,834.2v-28.4" vector-effect="non-scaling-stroke"/>
    <path class="st2" d="M575.9,805.8c.2-2.4,1-4.4,2.4-6,3.1-3.6,9.4-4.1,13.5-3,.2,0,.4,0,.5-.3,0,0,0,0,0-.1v-13.2c0-.3-.2-.5-.5-.5-6.3-.4-11.4,1.7-15.5,6.4" vector-effect="non-scaling-stroke"/>
    <path class="st4" d="M575.9,805.8c-.3,0-.6,0-.7,0-.3-.2-.4-.5-.4-.9,1.2-5.8,5.8-9.8,11.8-9.5,0,0,1.4,0,4,0,.4,0,.8-.3.8-.8,0,0,0,0,0,0v-10.1c0-.5-.4-.9-.9-.9,0,0,0,0,0,0-3.5.3-6.6,1.3-9.5,3-.2.1-.4.3-.6.5-1.4,1.6-2.8,2.3-4,2.1" vector-effect="non-scaling-stroke"/>
    <path class="st4" d="M575.9,834.2l-13.8-.3" vector-effect="non-scaling-stroke"/>
    <path class="st4" d="M574.9,789.5c-.3,0-.5,0-.7-.2-.1-.2-.2-.4-.1-.7.2-1.4.4-2.3.4-2.8,0-.7-.4-1.2-1.1-1.3,0,0,0,0-.1,0h-9.8c-.4,0-.8.4-.8.8,0,1.7.4,3.3.4,5.4.2,13.2-.1,26.3-.8,39.5" vector-effect="non-scaling-stroke"/>
    <path class="st0" d="M767.4,790.1c-.3.4-.6.6-1,.6" vector-effect="non-scaling-stroke"/>
    <path class="st2" d="M766.4,790.7l.5-6.7c0-.3-.2-.5-.5-.6,0,0,0,0,0,0h-12.2c-.2,0-.3.2-.3.3v50.7c0,.3.3.6.6.6h12.8c.3,0,.5-.2.5-.5-.2-10.7-.2-20.3,0-28.8.2-8.7,9.5-10.8,16.1-8.8.2,0,.4,0,.5-.3,0,0,0,0,0-.1v-13c0-.3-.2-.6-.6-.6-5.8-.7-13.3,1.7-16.3,7.2" vector-effect="non-scaling-stroke"/>
    <path class="st4" d="M766.4,790.7c-.2.2-.3.2-.5.2-.6-.1-1-.7-.8-1.3,0,0,0,0,0,0,.3-1.5.5-2.9.5-4.1,0-.5-.4-.9-.9-.9h-9c-.5,0-.9.4-.9.9h0v47.7c0,.5.4.9.9.9h9.9c.5,0,1-.4,1-1,0,0,0-.1,0-.2l-.7-4.6s0,0,0,0c.2-6.6.3-12.8.2-18.8,0-2.9.6-5.6,1.4-7.7,2.5-6.2,9-7,14.9-6.4.5,0,1-.3,1-.8,0,0,0,0,0,0v-9.6c0-.7-.5-1.2-1.2-1.2,0,0,0,0-.1,0-5.5.7-9.7,1.8-13.4,6.1-.2.2-.5.4-.8.3-.1,0-.3,0-.4,0" vector-effect="non-scaling-stroke"/>
    <path class="st0" d="M585.5,652.8l-9.3,7.4" vector-effect="non-scaling-stroke"/>
    <path class="st4" d="M576.2,660.2c-3.7,3.1-6.2,7.1-7.7,12.3-.5,1.8-.8,3.2-.8,4.4,0,1.8,0,3.3-.3,4.5-.6,3.1.2,8.6.6,11,1.4,8.4,5.1,15.5,11,21.3,3.7,3.6,7.3,5.8,11,6.8.5.1,2.1.7,4.8,1.7.4.1.8.2,1.2.2,5.8.4,10.8.2,15-.5,9.8-1.7,17.2-6.7,22.1-15,1.9-3.2,3.5-7.2,4.8-12.2.8-3.1.6-5.4,1-8.2.2-1.7.2-3.7-.1-6.2-.6-5.1-1.9-9.6-3.9-13.8-5.2-10.6-13.8-16.8-25.9-18.6-.8-.1-4.1-.3-10-.4-.3,0-.6,0-.8,0-4.8.9-9.1,2.3-12.8,4.2-.3.2-.5.6-.3.9,0,0,.1.2.2.2.2.2.3.1.3,0" vector-effect="non-scaling-stroke"/>
    <path class="st2" d="M576.2,660.2c-3.9,5.7-6.3,11.8-7.1,18.1-2.8,21.3,8.6,42.7,32.3,42.9,3.6,0,6.3-.1,8.2-.4,21.3-3.4,30.3-22.2,27.5-42.1-2.3-16.1-12.9-28.3-29.5-29.7-8.1-.7-15.5.6-22,3.8" vector-effect="non-scaling-stroke"/>
    <path class="st4" d="M290.2,693.8c13.3,0,21,0,23.1.1,1,0,1.8.9,1.8,1.9v43.6c0,.6.5,1.2,1.2,1.2,0,0,0,0,0,0,6.9-.5,13.4-.5,19.6,0,.6,0,1.1-.4,1.2-1,0,0,0,0,0-.1-.6-18.4-.7-36.4-.5-54.1.2-17.1,0-34.7.5-54.5,0-.4-.3-.7-.7-.7,0,0,0,0,0,0h-20.5c-.5,0-.9.4-.9.9h0v42.4c0,.9-.7,1.6-1.6,1.6-7.4.2-15.1,0-23.3,0-8.2,0-16,.2-23.4,0-.9,0-1.6-.7-1.6-1.6v-42.4c0-.5-.4-.9-.9-.9h-20.5c-.4,0-.7.3-.7.7,0,0,0,0,0,0,.5,19.8.2,37.5.5,54.5.2,17.7,0,35.7-.5,54.1,0,.6.4,1.1,1,1.1,0,0,0,0,.1,0,6.1-.5,12.7-.5,19.6,0,.6,0,1.2-.4,1.3-1.1,0,0,0,0,0,0v-43.6c0-1,.8-1.9,1.9-1.9,2.1,0,9.8-.1,23.1-.1" vector-effect="non-scaling-stroke"/>
    <path class="st0" d="M270.3,807.8c5.5,0,8.3,0,8.3,0,.2,0,.4-.2.4-.4,0,0,0,0,0-.1l-8.5-26.4c0,0,0-.1,0-.1,0,0,0,0,0,0s0,0-.1,0c0,0,0,0,0,.1l-8.6,26.4c0,.2,0,.4.3.5,0,0,0,0,.1,0,0,0,2.8,0,8.3,0" vector-effect="non-scaling-stroke"/>
    <path class="st4" d="M353.4,799.4c.5,0,.9-.5.8-1,0,0,0-.1,0-.2-2.4-8.5-9.2-14-18-14.4-5.2-.2-11.2-.3-15.7,2.4-5.1,3-9.6,7.2-11.4,12.9-1.2,3.7-1.9,5.6-1.9,5.6-.5,5.4-.2,9.4,1,12.2,1.5,3.5,2.7,6,3.6,7.5,3.2,5.1,8.1,8.2,14.6,9.3,9.8,1.7,18.9,0,25.4-7.9,1.6-1.9,2.4-4.1,3.1-5.8.2-.4,0-.8-.4-1,0,0-.1,0-.2,0l-9.3-1c-.5,0-1.1.2-1.3.7-2.4,5.2-8.7,6.5-14.1,5.9-9-1-12.3-11.2-11.5-19.2,0-.2,0-.4.1-.6l1.9-4.9c0,0,0-.1.1-.2,3.7-5.3,8.7-7.4,15.1-6.2,4.4.8,6.7,3.9,9,6.2.2.2.6.4.9.3l8-.7" vector-effect="non-scaling-stroke"/>
    <path class="st4" d="M410.9,799.4c.4,0,.7-.3.7-.7,0,0,0-.2,0-.2-3-8.2-8.6-13-16.8-14.5-2.3-.4-5.3-.4-9,0-3.1.3-6,1.2-8.6,2.7-6.4,3.5-10.5,8.9-12.4,16.3-1.2,4.8-.5,10,.5,14.5,1.8,8.2,9.9,15.1,17.6,16.4,12.3,2,24.3-1,28.9-13.8.1-.3,0-.7-.4-.8,0,0-.1,0-.2,0l-8.9-1c-.7,0-1.3.3-1.6.8-1.4,2.6-3.6,4.3-6.5,5.2-11.8,3.5-19-4.3-19.1-15.6,0-6.7,3.5-13,10-14.7,6.8-1.8,11.9,0,15.4,5.4.2.3.6.6.9.6,1,.2,2.2,0,3.5-.3.2,0,.4,0,.7,0h5.3" vector-effect="non-scaling-stroke"/>
    <path class="st4" d="M550,821.7l-8.2-2.2c-.7-.2-1.4,0-1.9.6-3.3,3.9-7,4.8-12,5-6.8.4-11.2-3.3-13.3-9.6-.6-1.7-.5-2.9.4-3.4.1,0,.2,0,.3,0h35.8c.7,0,1.2-.5,1.2-1.2,0-.1,0-.3,0-.4-1-3-.8-6.1-1.6-8.9-3-10.4-9.5-17.1-20.7-17.8-9.4-.6-16.6,2.5-21.8,9.4-3.2,4.3-4.9,9.5-5.1,15.6-.1,5.9,1.4,11.2,4.5,15.8,4,5.9,8.9,8.9,15.6,9.6,11.2,1.3,21.5-1,27.2-11.4.2-.4,0-.8-.3-1,0,0-.1,0-.2,0" vector-effect="non-scaling-stroke"/>
    <path class="st4" d="M743.5,807.1c0-12.7-10.2-23-22.8-23.1h-4.6c-12.7,0-23,10.1-23.1,22.8v4.6c0,12.7,10.1,23,22.8,23.1h4.6c12.7,0,23-10.1,23.1-22.8v-4.6" vector-effect="non-scaling-stroke"/>
    <path class="st4" d="M431.8,804l26,.3c0,0,.1,0,.1-.1h0c0-6.5-5.3-11.7-12-11.8,0,0,0,0,0,0h-2c-6.7,0-12.2,5-12.3,11.5h0c0,.1,0,.2.1.2" vector-effect="non-scaling-stroke"/>
    <path class="st4" d="M527.7,804.3c3.1,0,7.1,0,12-.3.7,0,1.3-.6,1.3-1.3,0,0,0-.2,0-.3-1.6-6.4-6.5-10.2-13.2-10.2-6.7,0-11.6,3.8-13.2,10.2-.2.7.2,1.4.9,1.6,0,0,.2,0,.3,0,4.9.2,9,.3,12,.3" vector-effect="non-scaling-stroke"/>
    <path class="st0" d="M630.7,819.8c2.1-3.9-1.1-6-4.5-6.5-5.3-.8-19.2-2-16.3,7,1,3,3.2,4.5,6.6,4.7,5.6.2,11.5-.2,14.2-5.2" vector-effect="non-scaling-stroke"/>
    <path class="st4" d="M732.1,806.1c0-7-5.7-12.8-12.7-12.8h-2.3c-7,0-12.8,5.7-12.8,12.7v5.9c0,7,5.6,12.8,12.7,12.8h2.3c7,0,12.8-5.7,12.8-12.7v-5.9" vector-effect="non-scaling-stroke"/>
    <path class="st2" d="M432.9,803h23.5c0,0,.1,0,.1,0h0c0-5.3-5.2-9.6-11.7-9.6h-.2c-6.5,0-11.8,4.2-11.8,9.4,0,0,0,0,0,0h0c0,.2,0,.2.1.2h0" vector-effect="non-scaling-stroke"/>
    <path class="st2" d="M515.9,803h23.6c0,0,.1,0,.1,0h0c0-5.3-5.2-9.5-11.8-9.5h-.2c-6.5,0-11.8,4.2-11.8,9.4,0,0,0,0,0,0h0c0,.1,0,.2.1.2h0" vector-effect="non-scaling-stroke"/>
    <path class="st2" d="M718.4,794c-7.4-.1-13.4,6.6-13.5,15h0c-.1,8.4,5.8,15.3,13.1,15.4s13.4-6.6,13.5-15-5.8-15.3-13.1-15.4" vector-effect="non-scaling-stroke"/>
  </g>
  <path class="st9" d="M1024,0v1024H0V0h1024ZM712.5,548c0-2.6.1-5.2.1-7.8,0-50,0-111.4,0-184,0-3.8-.3-6.6-1-8.5-1.4-4.3-4.3-7.4-8.7-9.4-.8-.4-1.7-.2-2.3.4l-16.2,15.1c-.4.4-.5.9-.3,1.4.8,1.6,1.2,3.4,1.2,5.4,0,32.3,0,97,0,194,0,.3-.2.5-.4.5h-332.7c3-2.7,6-5.4,8.9-8.1,28.9-26.3,50.9-46.4,65.9-60.4,2.8-2.6,4.3-4.6,7.5-1.3,11.7,11.9,26.3,26.5,43.8,43.7,5.7,5.7,11.3,3.2,16.1-1.7,61.7-61.8,128-127.7,198.9-197.6,1.5-1.4,4.4-4.2,8.9-8.4,1.4-1.3,2.8-1.3,4.2,0,4.5,4.3,10.6,10,18.5,17,4.3,3.9,8.9,1.1,10-3.9,12.4-54.1,19.7-85.9,21.8-95.4.9-3.9-.1-8.8-4.2-10-1-.3-2.8,0-5.6.7-35.6,9.7-66.1,17.9-91.3,24.4-2.1.6-5.3,1.9-5.7,4.6-.3,2,.4,3.7,1.9,5.1,7.9,7,15.5,14.1,22.9,21.3.5.5.7,1.3.3,2-.6,1.1-1.3,2.1-2.1,2.9-3,3-24.9,24.2-65.7,63.8-1.2,1.2-42.3,41.1-123.2,119.8-2.2,2.1-3.7,4-6.2,1.6-10.7-10.1-21.3-20.3-31.9-30.6-1.4-1.4-4.4-4.3-9.1-8.7-2.1-2-4.4-2.4-6.6-1-.5.3-.9.6-1.3,1-30.6,28.3-60.6,56.5-90.2,84.6v-126s-.1-34.3-.1-34.3c0-.5.2-1,.6-1.3l172.6-141.8c.3-.3.8-.3,1.1,0l114.2,94.6,3.1,2.5c.3.3.8.3,1.1,0l19.1-17c.3-.2.3-.6.2-.9-.3-.7-.9-1.3-1.8-1.7-41.1-33.8-82.1-67.7-123.1-101.6-2.8-2.3-5.5-4-8-4.9-3.5-1.3-7.1-1.4-10.7-.3-1.6.5-4.6,2.5-8.9,6.1-40.7,33.6-100.2,82.4-178.5,146.6-5.3,4.3-7.6,8-7.6,14.3.2,62.1.2,131.8,0,209,0,3.8.2,6.5.7,8.1,1.9,6,5.9,9.4,12.2,10.3.9.1,2.8.2,5.6.2,217.3,0,337.9,0,361.8,0,9.1,0,14.9-.9,18.8-8.5.9-1.8,1.4-6,1.4-12.7s0-8.6,0-12.9ZM518.4,416.8c.3,0,.6-.2.9-.5,20.1-19.1,34.9-33.2,44.5-42.5.9-.9,1.5-2.2,1.5-3.5,0-34.1-.1-54.1,0-60.1,0-5.1-2.5-7.7-7.5-7.7-14.3,0-24.4,0-30.3-.1-5.2,0-9.5,1-9.5,6.6,0,30.7,0,66.4,0,107.4,0,.2.2.4.4.4,0,0,0,0,0,0ZM497.4,346.6c-10.2-.8-20.3-.9-30.2-.5-5.4-1-11.7-.2-11.6,6.9,0,5.8,0,30.9,0,75.3,0,3.5.4,4.9,2.9,7,4.5,3.9,10.6,9.6,18.3,16.8,2.2,2.1,4.6,1.9,7-.5,8.7-8.6,14.6-14.6,17.9-17.9.8-.8,1.2-2,1.2-3.5,0-.6,0-26.1,0-76.5,0-4.7-1.9-7.1-5.6-7.2ZM439.9,417.6c.7-8.3.7-16.6,0-25.1.3-2.7-.6-4.6-2.9-5.7-1.3-.6-3.5-.9-6.8-.9-18.3,0-28.5,0-30.5.1-4.5.1-6.7,2.2-6.8,6.3,0,16.5,0,34.2,0,53.2,0,.4.3.7.8.7.2,0,.4,0,.5-.2,5.4-4.9,11.2-10.3,17.4-16.1,7.1-6.6,12.7-10.9,22.7-9.7,1.3.2,3,.4,4.9.8.3,0,.7,0,.8-.4.7-1.2.6-2.2-.2-3ZM546.9,667.2c-4.5,17.4-2.3,36.7,7.8,51.6,9,13.2,23.1,21.7,38.8,23.9,10.1,1.4,19.7.7,28.7-2,23.1-7.1,38-26.7,39.6-50.7.5-8.5-.1-16-2.1-22.6-4.3-14.7-13.2-25.9-26.7-33.5-8.8-5-18.5-7.3-29.2-6.7-4-.5-8.4-.3-13.2.6-21.2,4.3-37.5,18.5-43.7,39.4ZM707.1,631.9c-9.3,4.4-16.7,10.9-22.2,19.7-8.2,13.1-10.4,28.8-8.3,43.8,2.3,16.3,10.1,29.1,23.4,38.4,6.5,4.6,13.7,7.5,21.5,8.7,28,4.3,53-6.8,62-35.1l.7-3.9c0-.3-.1-.5-.4-.6,0,0,0,0,0,0h-22.4c-.5,0-1,.3-1.3.8-5.1,10.7-13.5,16.8-25.3,18.1-19.9,1.1-32.6-13.3-34.4-32-1.3-13.5,2.7-27.7,13.6-36,4.4-3.3,9.1-5.2,14.3-5.7,12.1-1.2,21.5,2.9,28.3,12.1,0,0,.7,1.3,2.2,3.8.9,1.6,2,2.5,3.2,2.8h21.4c.3,0,.5-.2.5-.5,0,0,0,0,0,0-.2-2.4-.7-4.1-1.6-5.1-1-5.9-3.6-11.3-7.7-16.3-9.5-11.4-21.6-17.4-36.5-18.1-10.9-.5-20.9.5-30.9,5ZM290.1,695c14.7,0,22.5,0,23.3,0,.3,0,.6.3.6.6v45.5c0,.2.1.3.3.3h23.4c.1,0,.3-.1.3-.3v-111.8c0-.2-.2-.4-.4-.4h-23.2c-.2,0-.4.2-.4.4h0v43.7c0,.4-.3.8-.7.8-1,.1-2.1.2-3.3.2-8,0-14.6,0-19.9,0s-12,0-19.9,0c-1.2,0-2.3,0-3.3-.2-.4,0-.7-.4-.7-.8v-43.6c0-.2-.2-.4-.4-.4h-23.2c-.2,0-.4.2-.4.4v111.8c0,.1,0,.3.2.3h23.3c.2,0,.3-.1.3-.3h0s0-45.5,0-45.5c0-.3.3-.6.6-.6.8,0,8.6,0,23.3,0ZM364,633v108.2c0,.2.2.3.3.3h26.4s50.6,0,50.6,0c.2,0,.4-.2.4-.4h0v-19.6c0-.3-.2-.5-.5-.5h-52.3c-.5,0-1-.4-1-1v-25.5c0,0,0,0,0-.1,0-.2.2-.3.3-.3h46.7c.2,0,.3-.1.3-.3h0v-18c0-.3-.2-.5-.5-.5h-7.5c0-.1-24.7-.2-24.7-.2h-14.5c0-8.6,0-16.9,0-25,0-.3.2-.5.5-.5l51.3.2c.1,0,.3-.1.3-.2,0,0,0,0,0,0l-.2-16.8c.4-.8.5-1.9.2-3.1,0-.3-.3-.5-.7-.5h-74.7c-.3,0-.6.2-.6.5h0v3.5ZM465,632.8c-.3,1.5-.5,3.4-.5,5.8,0,30.8-.1,61.7-.1,92.5,0,1.3,0,2.6.2,3.9v6.2c0,.3.1.5.4.5,0,0,0,0,0,0h73.8c.3,0,.6-.3.6-.6h0v-20.3c0-.3-.2-.5-.5-.5h-49.6c-.2,0-.3-.1-.3-.3h0v-90.4c0-.3-.2-.5-.5-.5h-23.4c-.3,0-.6.2-.6.5-.3,1.6,0,2.7.6,3.2ZM492.9,762.5c0-.3-.2-.5-.5-.5h-12.7c-.3,0-.5.2-.5.5h0v72c0,.3.2.5.5.5h12.7c.3,0,.5-.2.5-.5h0v-72ZM271.3,819.4c2.4.6,5.1.7,8.3.3l3.6.2c.3,0,.6.2.7.5l4.4,13.6c.2.6.7,1,1.3,1h14c.3,0,.6-.3.6-.6,0,0,0-.1,0-.2l-25.5-69c-.3-.8-1-1.3-1.8-1.2h-13.5c-.4,0-.7.2-.9.6l-25.6,69.5c-.1.3,0,.7.4.9,0,0,.2,0,.2,0h13c.7,0,1.3-.4,1.6-1.1l5.1-13.8c0-.3.3-.4.6-.4l13.5-.3ZM656.2,795.6h3.1c.4,0,.7.3.7.7,0,10.3-.1,17-.1,20.1,0,7.6,1.6,14.2,9.4,17.2,5,1.9,10,1.5,15.9,1.3.3,0,.5-.2.5-.5v-11.3c0-.3-.2-.5-.5-.5,0,0,0,0,0,0-5.6.8-11.1.4-11.6-6.7-.2-2.2-.2-8.9-.3-19.9,0-.2.2-.4.4-.4h11.6c0,.1.2.1.2,0,.3-.3.4-.8.3-1.6v-10.3c0-.2-.1-.5-.4-.5h-11.8c-.1,0-.3-.1-.3-.3h0v-12.7c0-.3-.2-.5-.5-.5h-12.2c-.3,0-.5.2-.5.5v12.3c0,.3-.3.6-.6.6h-7.4c-.4,0-.6.3-.6.7v11.1c0,.4.3.7.7.7,0,0,0,0,0,0l4.2-.2ZM355.8,818.2l-11.2-1.2c-.6,0-1.2.3-1.5.8-2,3.8-5.8,6.1-10.2,6.2-7.8,0-12.3-4.2-13.4-12.7-1.3-10.2,5.5-18.8,16.4-16.6,3.8.8,5.1,3.1,7.1,5.9.2.3.5.5.9.5h11.5c.5,0,.8-.4.8-.8,0,0,0-.1,0-.2-2.7-10-9.1-15.8-19-17.2-16.8-2.4-31.1,8.7-31.2,25.7,0,9.9,3.5,17.5,10.7,22.7,6.2,4.5,15.5,5.4,22.8,3.8,8.7-2,14.3-7.3,16.9-15.8.1-.4,0-.7-.5-.9,0,0,0,0-.1,0ZM631.6,828.6v5.7c.1.4.4.7.8.7h11.7c.2,0,.4-.2.4-.4,0,0,0,0,0,0l-.2-29.9c.6-6.2-.9-11.4-4.5-15.4-6.2-7-16-7.7-24.6-6.4-8.2,1.3-15.7,7.3-15.4,16.1,0,.4.3.6.6.7l9.6,1.1c.4,0,.8-.2,1-.7,1.8-7,10.3-7.4,15.8-5.2,2,.8,3.5,2.4,4.1,4.4l1.2,3.6c.3,1-.2,2-1.2,2.3-.3.1-.7.1-1,0-7.1-1.7-14.6-1.9-22.4-.5-7,1.2-10.9,7.4-10.6,14.5.5,13.6,14.7,19,26.4,15.8,3.2-.9,6-3,8.4-6.4ZM412.8,818.1l-11.2-1.2c-.6,0-1.2.3-1.5.8-2,3.8-5.8,6.2-10.2,6.2-7.8,0-12.3-4.2-13.5-12.6-1.4-10.2,5.4-18.9,16.4-16.7,3.8.8,5.1,3,7.1,5.9.2.3.6.5.9.5h11.5c.5,0,.8-.4.8-.9,0,0,0-.1,0-.2-2.8-10-9.1-15.7-19.1-17.1-16.8-2.4-31,8.8-31.1,25.9,0,9.9,3.6,17.5,10.8,22.6,6.2,4.5,15.5,5.4,22.8,3.7,8.7-2.1,14.3-7.4,16.8-15.9.1-.4,0-.7-.4-.9,0,0,0,0-.1,0ZM466.4,825.7c1.2-.5,2-1.6,2.5-3.5,0-.3,0-.6-.3-.8-.8-.5-1.6-.7-2.3-.5l-8-2.7c-.6-.2-1.2,0-1.5.5-2.4,3.2-5.8,5-10.3,5.3-7.7.6-12.4-2.9-14.2-10.4,0-.3.1-.5.4-.6,0,0,0,0,.1,0h36.5c.3,0,.6-.3.6-.6.3-11.3-3.3-23.3-14.4-28-5.9-2.5-14.5-2.5-20.5,0-13.8,5.7-19.4,21.9-14.1,35.5,4,10.2,11.8,15.5,23.4,15.9,5.3.2,10.2-.8,14.8-3,3.2-1.6,5.6-3.9,7.3-7ZM515.8,813h36.4c.4,0,.8-.4.8-.8.6-18.2-10.2-32.4-29.9-29.3-11.8,1.8-20,11.6-21,23.3-1.5,18.6,10.6,30.9,29.3,29.3,9.4-.8,16.2-5.1,20.4-13,.2-.3,0-.8-.3-1,0,0,0,0,0,0l-9.7-3.6c-.6-.2-1.4,0-1.8.5-2.5,3.3-5.9,5.2-10.1,5.6-7.8.8-12.7-2.7-14.7-10.3,0-.3.1-.6.4-.7,0,0,0,0,.1,0ZM744.3,806.6c0-13.2-10.6-23.9-23.7-23.9h-4.7c-13.2,0-23.9,10.6-23.9,23.7h0v5.2c0,13.2,10.6,23.9,23.7,23.9h4.7c13.2,0,23.9-10.6,23.9-23.7v-5.2ZM576.4,789.2c-.9.9-1.4.9-1.4.3.5-1.8.6-3.6.4-5.5,0-.3-.3-.6-.6-.6h-12.2c-.3,0-.5.2-.5.5l.4,46.2c-.6.2-.7,1.4-.3,3.7-.2.2-.1.4,0,.8.1.2.3.3.5.4,4.6.5,9,.2,13.2-.8v-28.4c.2-2.4,1-4.4,2.4-6,3.1-3.6,9.4-4.1,13.5-3,.2,0,.4,0,.5-.3,0,0,0,0,0-.1v-13.2c0-.3-.2-.5-.5-.5-6.3-.4-11.4,1.7-15.5,6.4ZM767.4,790.1c-.3.4-.6.6-1,.6l.5-6.7c0-.3-.2-.5-.5-.6,0,0,0,0,0,0h-12.2c-.2,0-.3.2-.3.3v50.7c0,.3.3.6.6.6h12.8c.3,0,.5-.2.5-.5-.2-10.7-.2-20.3,0-28.8.2-8.7,9.5-10.8,16.1-8.8.2,0,.4,0,.5-.3,0,0,0,0,0-.1v-13c0-.3-.2-.6-.6-.6-5.8-.7-13.3,1.7-16.3,7.2Z"/>
  <path class="st7" d="M648.7,294.5c0,.3-.3.5-.5.5-.6,0-1.1-.3-1.5-.7-79.5-65.5-120.3-99.1-122.4-100.8-3-2.4-5.2-3.9-6.4-4.3-4.9-1.8-9.3-1.5-13.2.9-2.7,1.7-7.6,5.9-14.7,12.4-.1.1-.3.2-.4.3-3.5,2.2-6.2,4.5-8.2,6.8-.3.4-.7.7-1.1.9-1.8,1.2-3.5,2.4-5,3.6-9.1,7.3-16.3,13.3-21.8,18.2-1.8,1.6-6.5,5.4-14.1,11.3-4.2,3.3-8.8,7.1-13.8,11.7-2.7,2.5-5.8,4.1-8,6.2-4.3,4.1-10.4,8.4-13.6,11.5-1.7,1.7-3.8,3.3-6.2,5-1.9,1.3-3.9,3-6.1,5.1-.2.2-.3.3-.5.4-2,1.4-3.4,2.6-4.3,3.6-.1.2-.3.3-.5.4-.3.1-1.1.7-2.4,1.7-10.2,8.4-16.8,13.9-19.8,16.3-2.4,2-5.4,4-7.3,6.1-.2.3-.5.5-.8.7-2.7,1.7-5.8,4.1-9.4,7.3-3.3,2.9-9.5,8-18.6,15.2-1.8,1.4-2.9,2.8-4.9,4.1-.2.1-.4.3-.5.4-3,2.7-6.6,5.1-8,7.9-1,2.1-1.5,3.9-1.5,5.3.1,71.4,0,141.3-.3,209.7,0,.5,0,1.5.2,2.7.3,2.3.1,4.9.7,6.8,1.4,4.7,5.1,7.7,10.1,8.8,2.5.5,4.6.8,6.3.8,142.1,0,263,0,362.8,0,3.3,0,7.7-.4,10.3-1.7,4.4-2.2,6.9-5.7,7.7-10.6.5-3.4-.4-10.6.1-15.4.3-2.3.4-4.3.4-5.8,0-.2.2-.4.4-.4,0,0,0,0,.1,0,.1,0,.3.3.4.6,0,4.3,0,8.6,0,12.9,0,6.7-.5,10.9-1.4,12.7-4,7.6-9.7,8.5-18.8,8.5-23.8,0-144.4,0-361.8,0-2.8,0-4.7,0-5.6-.2-6.3-.9-10.3-4.3-12.2-10.3-.5-1.6-.7-4.3-.7-8.1.2-77.2.2-146.9,0-209,0-6.2,2.3-9.9,7.6-14.3,78.3-64.1,137.8-113,178.5-146.6,4.3-3.6,7.3-5.6,8.9-6.1,3.6-1.1,7.2-1,10.7.3,2.5.9,5.2,2.6,8,4.9,41,33.9,82,67.8,123.1,101.6Z"/>
  <path class="st10" d="M648.7,294.5c.9.4,1.5,1,1.8,1.7.1.3,0,.7-.2.9l-19.1,17c-.3.3-.8.3-1.1,0l-3.1-2.5c.3,0,.4,0,.5-.1.3-.5.2-1-.3-1.3-2.3-1.4-3.7-3.5-5.8-4.9-1.4-.9-3.8-2.9-7.2-5.9-2.2-2-4.6-4-7.2-6.1-6.9-5.5-14-11.4-21.4-17.8-6.3-5.4-11-9.3-14.3-11.9-5-3.9-8.3-7.3-12.7-10.7-3.3-2.5-6.3-4.9-9-7.1-5.9-4.8-15.4-12.7-28.5-23.5-2.5-2-4.7-4.7-7.7-6.3-.8-.5-1.9-.4-2.6.2l-155.9,128.7c0,0-.1,0-.2.1-1.3.6-2.6,1.6-4,3-.8.8-1.5,1.5-2.1,1.9-1.4,1-5,3.8-10.6,8.3-.2.2-.4.5-.4.8-.3,3.3-.4,6-.4,8-.2,7.1,0,15.4.2,25,0,2,.5,2.8,1.2,2.3v126s.2,33.9.2,33.9c0,.6.4,1,1,1.1,4.9.8,9.1.7,12.5-.4h332.7c.2,0,.4-.2.4-.5,0-97,0-161.7,0-194,0-1.9-.4-3.7-1.2-5.4-.2-.5-.1-1,.3-1.4l16.2-15.1c.6-.6,1.5-.7,2.3-.4,4.4,2,7.3,5.2,8.7,9.4.6,1.9,1,4.7,1,8.5,0,72.6,0,134,0,184,0,2.6,0,5.2-.1,7.8-.1-.4-.2-.6-.4-.6-.2,0-.4,0-.5.3,0,0,0,0,0,.1,0,1.5-.1,3.5-.4,5.8-.6,4.8.4,12-.1,15.4-.7,4.9-3.3,8.4-7.7,10.6-2.6,1.3-7,1.7-10.3,1.7-99.8,0-220.8,0-362.8,0-1.7,0-3.9-.3-6.3-.8-5-1.1-8.8-4.1-10.1-8.8-.5-1.9-.4-4.5-.7-6.8-.2-1.3-.2-2.2-.2-2.7.3-68.4.4-138.3.3-209.7,0-1.4.5-3.1,1.5-5.3,1.4-2.8,5-5.2,8-7.9.2-.1.3-.3.5-.4,2-1.2,3.1-2.6,4.9-4.1,9.1-7.2,15.3-12.3,18.6-15.2,3.6-3.2,6.8-5.6,9.4-7.3.3-.2.6-.4.8-.7,1.9-2.1,4.9-4.1,7.3-6.1,2.9-2.4,9.5-7.9,19.8-16.3,1.3-1.1,2.1-1.6,2.4-1.7.2,0,.4-.2.5-.4.9-1.1,2.3-2.3,4.3-3.6.2-.1.4-.3.5-.4,2.2-2.1,4.2-3.8,6.1-5.1,2.4-1.6,4.4-3.3,6.2-5,3.1-3.1,9.2-7.4,13.6-11.5,2.2-2.1,5.2-3.8,8-6.2,5-4.5,9.7-8.4,13.8-11.7,7.6-5.9,12.3-9.7,14.1-11.3,5.5-4.9,12.8-11,21.8-18.2,1.5-1.2,3.2-2.4,5-3.6.4-.3.8-.6,1.1-.9,2-2.3,4.8-4.6,8.2-6.8.1,0,.3-.2.4-.3,7-6.6,11.9-10.7,14.7-12.4,3.9-2.4,8.3-2.7,13.2-.9,1.2.5,3.3,1.9,6.4,4.3,2.1,1.7,42.9,35.3,122.4,100.8.4.4,1,.6,1.5.7.2,0,.4-.1.5-.5Z"/>
  <path class="st7" d="M627,311.6l-114.2-94.6c-.3-.3-.8-.3-1.1,0l-172.6,141.8c-.4.3-.6.8-.6,1.3v34.3c-.7.4-1.1-.4-1.1-2.3-.3-9.6-.3-17.9-.2-25,0-2.1.2-4.7.4-8,0-.3.2-.6.4-.8,5.6-4.5,9.1-7.3,10.6-8.3.6-.4,1.3-1.1,2.1-1.9,1.4-1.4,2.7-2.4,4-3,0,0,.1,0,.2-.1l155.9-128.7c.7-.6,1.8-.7,2.6-.2,3,1.7,5.3,4.3,7.7,6.3,13.1,10.8,22.6,18.7,28.5,23.5,2.7,2.2,5.7,4.6,9,7.1,4.4,3.4,7.7,6.8,12.7,10.7,3.2,2.5,8,6.5,14.3,11.9,7.4,6.3,14.6,12.3,21.4,17.8,2.6,2.1,5,4.1,7.2,6.1,3.4,3,5.8,5,7.2,5.9,2.1,1.4,3.5,3.5,5.8,4.9.5.3.6.8.3,1.3,0,0-.2.1-.5.1Z"/>
  <path class="st12" d="M352.2,555c-3.5,1-7.6,1.1-12.5.4-.6,0-1-.6-1-1.1v-33.9c29.4-28.1,59.5-56.3,90-84.6.4-.4.8-.7,1.3-1,2.3-1.4,4.5-1,6.6,1,4.6,4.4,7.7,7.3,9.1,8.7,10.6,10.3,21.2,20.5,31.9,30.6,2.6,2.4,4.1.6,6.2-1.6,80.9-78.7,122-118.6,123.2-119.8,40.8-39.6,62.7-60.8,65.7-63.8.8-.8,1.5-1.8,2.1-2.9.4-.7.2-1.5-.3-2-7.4-7.1-15-14.2-22.9-21.3-1.5-1.4-2.2-3.1-1.9-5.1.4-2.6,3.6-4,5.7-4.6,25.3-6.6,55.7-14.7,91.3-24.4,2.8-.8,4.6-1,5.6-.7,4.1,1.3,5.1,6.1,4.2,10-2.1,9.5-9.4,41.4-21.8,95.4-1.1,5-5.7,7.8-10,3.9-7.8-7.1-14-12.8-18.5-17-1.4-1.4-2.8-1.4-4.2,0-4.4,4.1-7.4,6.9-8.9,8.4-70.9,69.9-137.2,135.8-198.9,197.6-4.9,4.9-10.4,7.4-16.1,1.7-17.4-17.3-32-31.8-43.8-43.7-3.2-3.2-4.6-1.3-7.5,1.3-15.1,13.9-37,34.1-65.9,60.4-2.9,2.7-5.9,5.4-8.9,8.1Z"/>
  <path class="st11" d="M518.4,416.8c-.2,0-.4-.1-.4-.3,0,0,0,0,0,0,0-40.9,0-76.7,0-107.4,0-5.6,4.3-6.7,9.5-6.6,5.9,0,16,.1,30.3.1s7.5,2.6,7.5,7.7c0,5.9,0,25.9,0,60.1,0,1.3-.5,2.6-1.5,3.5-9.6,9.3-24.4,23.4-44.5,42.5-.3.3-.6.5-.9.5Z"/>
  <path class="st11" d="M467.3,346.1c-.1.2-.2.4-.2.4,0,.3.3.5.6.5,10,.3,19.9.2,29.8-.5,3.7,0,5.6,2.5,5.6,7.2,0,50.4,0,75.9,0,76.5,0,1.5-.4,2.6-1.2,3.5-3.2,3.3-9.2,9.3-17.9,17.9-2.5,2.4-4.8,2.6-7,.5-7.7-7.3-13.8-12.9-18.3-16.8-2.5-2.2-2.9-3.5-2.9-7,0-44.4,0-69.5,0-75.3,0-7.1,6.2-7.9,11.6-6.9Z"/>
  <path class="st10" d="M497.4,346.6c-9.9.7-19.8.8-29.8.5-.3,0-.5-.2-.6-.5,0,0,0-.2.2-.4,9.9-.5,19.9-.3,30.2.5Z"/>
  <path class="st11" d="M440,392.5c-.8,8.5-.9,16.9,0,25.1.8.8.9,1.8.2,3-.2.3-.5.4-.8.4-1.9-.3-3.6-.6-4.9-.8-9.9-1.2-15.5,3-22.7,9.7-6.2,5.8-12,11.2-17.4,16.1-.3.3-.8.2-1.1,0-.1-.1-.2-.3-.2-.5,0-18.9,0-36.6,0-53.2,0-4.1,2.3-6.2,6.8-6.3,2,0,12.2,0,30.5-.1,3.3,0,5.5.3,6.8.9,2.3,1.1,3.2,3,2.9,5.7Z"/>
  <path class="st10" d="M440,392.5c.7,8.5.6,16.9,0,25.1-.8-8.3-.8-16.7,0-25.1Z"/>
  <path class="st10" d="M603.8,627.2c5.5.6,10.8,1.5,15.9,2.8,5.9,1.5,10.9,3.5,14.9,6,10.5,6.5,19.7,17.2,23.4,29.5,1.2,3.9,1.8,6.3,1.8,7.1.1,3.4.5,6.8,1.1,10.1.4,2.4.2,4.9-.6,7.4,0,0,0,.2,0,.3l-.8,9.4c0,0,0,.2,0,.2-1.3,2.9-1.7,5.6-3.1,8.8-2.8,6.3-6.3,11.6-10.4,16-3.6,3.8-6.6,6.4-9.1,8-3.9,2.4-8,4.4-12,6-4.3,1.7-8.6,2.7-13.1,3.1-8.7.8-16.2.5-22.4-1-7.7-1.8-15-5.3-21.7-10.5-8.2-6.3-13.9-13.7-17.2-22.3-1.6-4.1-2.8-8.5-3.7-13.3-.5-2.6-.6-5.8-.5-9.7.3-6.7,0-11.5,1.8-16.7.2-.6.2-.9-.2-1-.2,0-.5,0-.9,0,6.2-20.9,22.5-35.1,43.7-39.4,4.8-1,9.2-1.2,13.2-.6ZM585.5,652.8l-9.3,7.4c-3.7,3.1-6.2,7.1-7.7,12.3-.5,1.8-.8,3.2-.8,4.4,0,1.8,0,3.3-.3,4.5-.6,3.1.2,8.6.6,11,1.4,8.4,5.1,15.5,11,21.3,3.7,3.6,7.3,5.8,11,6.8.5.1,2.1.7,4.8,1.7.4.1.8.2,1.2.2,5.8.4,10.8.2,15-.5,9.8-1.7,17.2-6.7,22.1-15,1.9-3.2,3.5-7.2,4.8-12.2.8-3.1.6-5.4,1-8.2.2-1.7.2-3.7-.1-6.2-.6-5.1-1.9-9.6-3.9-13.8-5.2-10.6-13.8-16.8-25.9-18.6-.8-.1-4.1-.3-10-.4-.3,0-.6,0-.8,0-4.8.9-9.1,2.3-12.8,4.2-.3.2-.5.6-.3.9,0,0,.1.2.2.2.2.2.3.1.3,0Z"/>
  <path class="st7" d="M782.2,661.3c-4.9-13.8-13.6-23.5-26.4-29.2-2-.9-3.3-1.4-4.1-1.5-3.8-.7-7-2-10.8-2.4-6.7-.6-13-.5-19.1.4-4.3.6-9,2-14.1,4.2-.1,0-.2,0-.3,0-.2-.2-.3-.4-.2-.9,9.9-4.6,20-5.5,30.9-5,14.8.7,27,6.7,36.5,18.1,4.1,5,6.7,10.4,7.7,16.3Z"/>
  <path class="st7" d="M546.9,667.2c.4,0,.7,0,.9,0,.3,0,.4.4.2,1-1.9,5.3-1.6,10-1.8,16.7-.2,3.9,0,7.1.5,9.7.9,4.8,2.1,9.2,3.7,13.3,3.3,8.6,9,16,17.2,22.3,6.8,5.2,14,8.7,21.7,10.5,6.3,1.5,13.7,1.8,22.4,1,4.4-.4,8.8-1.4,13.1-3.1,4.1-1.6,8.1-3.6,12-6,2.5-1.5,5.5-4.2,9.1-8,4.2-4.4,7.7-9.7,10.4-16,1.4-3.1,1.8-5.8,3.1-8.8,0,0,0-.1,0-.2l.8-9.4c0,0,0-.2,0-.3.9-2.5,1.1-5,.6-7.4-.6-3.3-1-6.7-1.1-10.1,0-.9-.6-3.3-1.8-7.1-3.8-12.2-12.9-22.9-23.4-29.5-4-2.5-8.9-4.5-14.9-6-5.1-1.3-10.4-2.3-15.9-2.8,10.7-.5,20.5,1.7,29.2,6.7,13.5,7.7,22.3,18.9,26.7,33.5,1.9,6.5,2.6,14,2.1,22.6-1.5,24-16.5,43.6-39.6,50.7-9,2.8-18.6,3.4-28.7,2-15.7-2.2-29.8-10.7-38.8-23.9-10.1-14.9-12.3-34.2-7.8-51.6Z"/>
  <path class="st10" d="M782.2,661.3c.9,1,1.4,2.7,1.6,5.1,0,.3-.2.5-.4.5,0,0,0,0,0,0h-21.4c-2.1-4.5-5-8.5-8.5-11.9-4.5-4.4-9.7-6.8-15.5-7.3-1.6-.1-3-.3-4.3-.3-2.5-.2-4-.3-4.3-.2-13.8,1.2-24,10.5-28.4,23.4-.8,2.5-1.4,5.4-1.6,8.6-.6,9.9.2,18.5,5.1,27.4,6.7,12,16.9,17.5,30.8,16.6.4,0,.7-.3.6-.7,0-.2-.2-.5-.4-.6-.2,0-.4,0-.8,0,11.8-1.4,20.2-7.4,25.3-18.1.2-.5.7-.8,1.3-.8h22.4c.3,0,.5.2.5.5,0,0,0,0,0,0l-.7,3.9c-.6-.4-1-.4-1.2,0-2.2,6.9-5.5,14-10.8,18.6-1.8,1.5-3.3,3.2-4.6,5-.1.2-.3.3-.5.3-.3,0-1,.5-2.1,1.3-5,4-10.8,6.7-17.3,8.1-9,1.8-18.6,1.8-28.8-.2-3.1-.6-7.7-2.5-13.7-5.6-2.6-1.4-5.1-3.9-7.4-5.4-5-3.2-8.9-9-12.2-14.1-2.2-3.3-3.8-6.9-4.9-10.7-2.5-9.1-3.3-18.4-2.3-27.7.9-8.9,3.7-17,8.2-24.4.2-.3.1-.7-.2-.9,0,0-.3,0-.7,0,5.5-8.8,12.9-15.3,22.2-19.7,0,.4,0,.7.2.9,0,0,.2,0,.3,0,5.1-2.1,9.8-3.5,14.1-4.2,6-.9,12.4-1,19.1-.4,3.9.4,7,1.6,10.8,2.4.8.2,2.2.7,4.1,1.5,12.7,5.7,21.5,15.4,26.4,29.2Z"/>
  <path class="st7" d="M290.1,674c5.3,0,11.9,0,19.9,0,1.2,0,2.3,0,3.3-.2.4,0,.7-.4.7-.8v-43.6c0-.2.2-.4.4-.4h23.2c.2,0,.4.2.4.4h0v111.9c0,.1-.1.3-.3.3h-23.4c-.2,0-.3-.1-.3-.3h0v-45.5c0-.3-.3-.6-.6-.6-.8,0-8.6,0-23.3,0-14.7,0-22.5,0-23.3,0-.3,0-.6.3-.6.6v45.5c0,.2-.2.3-.3.3h-23.4c-.1,0-.3-.1-.3-.3h0v-111.8c0-.2.2-.4.4-.4h23.2c.2,0,.4.2.4.4h0v43.6c0,.4.3.8.7.8,1,.1,2.1.2,3.3.2,8,0,14.6,0,19.9,0ZM290.2,693.8c13.3,0,21,0,23.1.1,1,0,1.8.9,1.8,1.9v43.6c0,.6.5,1.2,1.2,1.2,0,0,0,0,0,0,6.9-.5,13.4-.5,19.6,0,.6,0,1.1-.4,1.2-1,0,0,0,0,0-.1-.6-18.4-.7-36.4-.5-54.1.2-17.1,0-34.7.5-54.5,0-.4-.3-.7-.7-.7,0,0,0,0,0,0h-20.5c-.5,0-.9.4-.9.9h0v42.4c0,.9-.7,1.6-1.6,1.6-7.4.2-15.1,0-23.3,0-8.2,0-16,.2-23.4,0-.9,0-1.6-.7-1.6-1.6v-42.4c0-.5-.4-.9-.9-.9h-20.5c-.4,0-.7.3-.7.7,0,0,0,0,0,0,.5,19.8.2,37.5.5,54.5.2,17.7,0,35.7-.5,54.1,0,.6.4,1.1,1,1.1,0,0,0,0,.1,0,6.1-.5,12.7-.5,19.6,0,.6,0,1.2-.4,1.3-1.1,0,0,0,0,0,0v-43.6c0-1,.8-1.9,1.9-1.9,2.1,0,9.8-.1,23.1-.1Z"/>
  <path class="st10" d="M439.7,632.6c-.7,5.1-.9,10.1-.6,15.1,0,.5-.3.9-.8.9,0,0,0,0,0,0-2,0-4.1-.1-6.3-.1-16.4,0-30.6,0-42.8,0-.6,0-.8.3-.8.9-.3,0-.5.2-.5.5,0,8.1,0,16.4,0,24.9-1,.4-.7.8.7,1.2.2,0,.4,0,.6,0h13.1c.3,0,.5-.3.5-.5,0-.1,0-.2-.1-.3l-.3-.3h24.7c-.8.8-.3,1.1,1.3,1.1,1.7,0,3.2,0,4.7-.2.5,0,1,.3,1.1.9,0,0,0,0,0,0,0,5-.8,10,0,14.7.1.7-.3,1.3-1,1.4,0,0-.1,0-.2,0-6.1.3-11.4.4-16,.3-9.3-.2-18.6-.3-27.8-.3-.3,0-.6,0-.8.3-.2.2-.3.4-.4.7-.1,0-.2.1-.3.3,0,0,0,0,0,.1v25.5c0,.5.5,1,1,1h52.3c.3,0,.5.2.5.5h0v19.6c0,.2-.2.4-.4.4h-50.6c0,0-24.4-1.2-24.4-1.2-.8,0-1.5-.7-1.5-1.5.4-34.5.4-68.9,0-103.1,0-1.3-.3-2.3-1-2.8v-3.5c0-.3.2-.5.6-.5h74.7c.3,0,.6.2.7.5.3,1.2.3,2.3-.2,3.1Z"/>
  <path class="st10" d="M464.5,734.9c.8.4,1.2-.3,1.2-2.2,0-31.7,0-63.3,0-95,0-2.6-.3-4.2-.9-5-.7-.5-.9-1.6-.6-3.2,0-.3.3-.5.6-.5h23.4c.3,0,.5.2.5.5h0v90.4c0,.2.1.3.3.3h49.6c.3,0,.5.2.5.5h0v20.3c0,.3-.3.6-.6.6h-73.8c-.3,0-.5-.2-.5-.5,0,0,0,0,0,0v-6.2Z"/>
  <path class="st10" d="M290.2,675.1c8.2,0,16,.2,23.3,0,.9,0,1.6-.7,1.6-1.6v-42.4c0-.5.4-.9.9-.9h20.5c.4,0,.7.3.7.7,0,0,0,0,0,0-.5,19.8-.3,37.5-.5,54.5-.3,17.7-.1,35.7.5,54.1,0,.6-.4,1.1-1,1.1,0,0,0,0-.1,0-6.1-.5-12.7-.5-19.6,0-.6,0-1.2-.4-1.3-1.1,0,0,0,0,0,0v-43.6c0-1-.8-1.9-1.8-1.9-2.1,0-9.8-.1-23.1-.1-13.3,0-21,0-23.1.1-1,0-1.8.9-1.8,1.9v43.6c0,.6-.6,1.2-1.2,1.2,0,0,0,0,0,0-6.9-.5-13.4-.5-19.6,0-.6,0-1.1-.4-1.2-1,0,0,0,0,0-.1.6-18.4.7-36.4.5-54.1-.2-17.1,0-34.7-.5-54.5,0-.4.3-.7.7-.7,0,0,0,0,0,0h20.5c.5,0,.9.4.9.9v42.4c0,.9.7,1.6,1.5,1.6,7.4.2,15.1,0,23.4,0Z"/>
  <path class="st7" d="M439.7,632.6l.2,16.8c0,.1-.1.3-.2.3,0,0,0,0,0,0l-51.3-.2c0-.6.3-.9.8-.9,12.1,0,26.4,0,42.8,0,2.2,0,4.3,0,6.3.1.5,0,.9-.4.9-.8,0,0,0,0,0,0-.3-5-.1-10,.6-15.1Z"/>
  <path class="st7" d="M390.7,741.5h-26.4c-.2,0-.3-.1-.3-.3h0v-108.2c.6.5.9,1.4.9,2.8.3,34.2.3,68.6,0,103.1,0,.8.6,1.5,1.5,1.5l24.4,1.1Z"/>
  <path class="st7" d="M464.5,734.9c-.1-1.3-.2-2.6-.2-3.9,0-30.8,0-61.7.1-92.5,0-2.4.2-4.3.5-5.8.6.8.9,2.4.9,5,0,31.7,0,63.3,0,95,0,1.9-.4,2.6-1.2,2.2Z"/>
  <path class="st7" d="M761.9,667c-1.2-.3-2.3-1.2-3.2-2.8-1.5-2.5-2.2-3.7-2.2-3.8-6.8-9.2-16.2-13.3-28.3-12.1-5.2.5-9.9,2.4-14.3,5.7-11,8.3-14.9,22.4-13.6,36,1.8,18.7,14.5,33.1,34.4,32,.3,0,.6-.1.8,0,.3.2.5.6.3.9-.1.2-.3.3-.6.4-13.9.9-24.1-4.7-30.8-16.6-4.9-8.9-5.7-17.5-5.1-27.4.2-3.3.7-6.2,1.6-8.6,4.4-12.9,14.5-22.2,28.4-23.4.4,0,1.8,0,4.3.2,1.3,0,2.8.2,4.3.3,5.8.5,11,3,15.5,7.3,3.5,3.4,6.3,7.4,8.5,11.9Z"/>
  <path class="st7" d="M576.2,660.2c-3.9,5.7-6.3,11.8-7.1,18.1-2.8,21.3,8.6,42.7,32.3,42.9,3.6,0,6.3-.1,8.2-.4,21.3-3.4,30.3-22.2,27.5-42.1-2.3-16.1-12.9-28.3-29.5-29.7-8.1-.7-15.5.6-22,3.8,0,.2-.1.2-.3,0-.3-.2-.3-.6,0-.9,0,0,.2-.2.2-.2,3.8-1.9,8-3.3,12.8-4.2.3,0,.6,0,.8,0,5.8.2,9.1.3,10,.4,12.1,1.8,20.7,8,25.9,18.6,2,4.1,3.3,8.7,3.9,13.8.3,2.4.3,4.5.1,6.2-.3,2.8-.2,5.1-1,8.2-1.3,5-2.9,9-4.8,12.2-4.9,8.3-12.3,13.3-22.1,15-4.1.7-9.1.9-15,.5-.4,0-.8-.1-1.2-.2-2.7-1-4.3-1.5-4.8-1.7-3.7-.9-7.4-3.2-11-6.8-6-5.8-9.7-12.9-11-21.3-.4-2.4-1.1-7.9-.6-11,.2-1.1.3-2.6.3-4.5,0-1.1.3-2.6.8-4.4,1.5-5.1,4-9.2,7.7-12.3Z"/>
  <path class="st9" d="M576.2,660.2l9.3-7.4c6.6-3.2,13.9-4.4,22-3.8,16.6,1.3,27.3,13.6,29.5,29.7,2.8,19.9-6.2,38.7-27.5,42.1-1.8.3-4.6.4-8.2.4-23.7-.2-35.1-21.6-32.3-42.9.8-6.3,3.2-12.4,7.1-18.1Z"/>
  <path class="st7" d="M684.9,651.6c.4,0,.6,0,.7,0,.3.2.4.6.2.9-4.5,7.4-7.3,15.5-8.2,24.4-1,9.4-.2,18.6,2.3,27.7,1.1,3.9,2.7,7.5,4.9,10.7,3.4,5.1,7.3,10.9,12.2,14.1,2.3,1.5,4.8,4,7.4,5.4,6,3.2,10.5,5,13.7,5.6,10.2,1.9,19.8,2,28.8.2,6.5-1.3,12.3-4,17.3-8.1,1-.8,1.7-1.3,2.1-1.3.2,0,.4-.1.5-.3,1.3-1.8,2.9-3.4,4.6-5,5.3-4.6,8.6-11.7,10.8-18.6.1-.5.5-.5,1.2,0-9,28.2-34,39.4-62,35.1-7.8-1.2-14.9-4.1-21.5-8.7-13.2-9.3-21-22.1-23.4-38.4-2.2-15,0-30.7,8.3-43.8Z"/>
  <path class="st7" d="M387.9,674.9h14.5c0,.1.3.4.3.4.2.2.1.6,0,.8,0,0-.2.1-.3.1h-13.1c-.2,0-.4,0-.6,0-1.5-.5-1.7-.9-.7-1.2Z"/>
  <path class="st7" d="M388.2,694c0-.3.2-.5.4-.7.2-.2.4-.3.8-.3,9.3,0,18.5,0,27.8.3,4.6.1,9.9,0,16-.3.7,0,1.2-.6,1.1-1.3,0,0,0-.1,0-.2-.9-4.8-.1-9.7,0-14.7,0-.5-.4-1-1-1,0,0,0,0,0,0-1.5.1-3,.2-4.7.2-1.6,0-2.1-.4-1.3-1.1h7.5c.3.1.5.4.5.6v18c0,.2-.1.3-.3.3h-46.7Z"/>
  <rect class="st10" x="479.1" y="762" width="13.8" height="73" rx=".5" ry=".5"/>
  <path class="st7" d="M279.6,819.7c-.4-.2-.8-.3-1.2-.3-.1,0-.2-.1-.2-.2,0,0,0-.1,0-.1.9-.5,2.5-.5,4.3-.4,1.2,0,2.2.8,2.5,1.9l4,12.4c.2.7,1,1.2,1.8,1.1,3.3-.5,7-.4,10.9.1.5,0,1-.3,1-.8,0-.2,0-.4-.1-.6l-1.3-2.1c0,0,0-.1,0-.2l-23.7-64.2c-.1-.4-.5-.6-.9-.6h-12.9c-.3,0-.6.2-.7.5l-1.9,6.8c0,0,0,.1,0,.2-1,2-1.7,3.7-2.1,5.1-.9,3.1-2.5,7.3-4.8,12.8-1.4,3.5-2.2,5.5-2.4,6.2-.8,2.5-1.5,4.6-2.2,6.2-.7,1.5-1.8,4.6-3.5,9.3-2.1,6-4.4,11.9-6.8,17.5-.3.8-.5,1.8-.6,2.8,0,.4.3.8.8.8,0,0,0,0,0,0h9.9c1.2,0,2.2-1,2.2-2.2,0,0,0,0,0,0,0-1.2.1-2.1.5-2.7.4-.7.7-1.3.8-1.8.9-2.9,1.9-5.5,3.1-7.9.3-.5.8-.9,1.3-.9,4.7-.1,9.2.2,13.7,1.1l-13.5.3c-.3,0-.5.2-.6.4l-5.1,13.8c-.2.7-.9,1.1-1.6,1.1h-13c-.4,0-.7-.3-.7-.7,0,0,0-.2,0-.2l25.6-69.5c.1-.4.5-.6.9-.6h13.5c.8,0,1.5.5,1.8,1.2l25.5,69c.1.3,0,.6-.3.8,0,0-.1,0-.2,0h-14c-.6,0-1.1-.4-1.3-1l-4.4-13.6c0-.3-.4-.5-.7-.5l-3.6-.2Z"/>
  <path class="st10" d="M279.6,819.7c-3.2.4-5.9.3-8.3-.3-4.5-.8-9.1-1.2-13.7-1.1-.6,0-1.1.4-1.3.9-1.1,2.4-2.2,5-3.1,7.9-.2.5-.4,1.1-.8,1.8-.4.6-.5,1.5-.5,2.7,0,1.2-.9,2.2-2.1,2.3,0,0,0,0,0,0h-9.9c-.4,0-.8-.4-.8-.8,0,0,0,0,0,0,0-1.1.2-2,.6-2.8,2.4-5.6,4.6-11.5,6.8-17.5,1.6-4.7,2.8-7.8,3.5-9.3.7-1.6,1.5-3.7,2.2-6.2.2-.6,1-2.7,2.4-6.2,2.3-5.5,3.8-9.8,4.8-12.8.4-1.4,1.1-3.1,2.1-5.1,0,0,0-.1,0-.2l1.9-6.8c0-.3.4-.5.7-.5h12.9c.4,0,.8.3.9.6l23.7,64.2c0,0,0,.1,0,.2l1.3,2.1c.3.4.1,1-.3,1.3-.2.1-.4.2-.6.1-4-.5-7.6-.6-10.9-.1-.8.1-1.5-.4-1.8-1.1l-4-12.4c-.4-1.1-1.4-1.9-2.5-1.9-1.9,0-3.4-.1-4.3.4,0,0-.1.2,0,.3,0,0,0,0,.1,0,.4,0,.8.2,1.2.3ZM270.3,807.8c5.5,0,8.3,0,8.3,0,.2,0,.4-.2.4-.4,0,0,0,0,0-.1l-8.5-26.4c0,0,0-.1,0-.1,0,0,0,0,0,0s0,0-.1,0c0,0,0,0,0,.1l-8.6,26.4c0,.2,0,.4.3.5,0,0,0,0,.1,0,0,0,2.8,0,8.3,0Z"/>
  <path class="st10" d="M685.7,794.2l-11.3.4c-1.3,0-2.3,1.1-2.3,2.5,0,6.2.1,11.3.1,15.5,0,4,.5,6.7,1.4,8.1,1.5,2.3,4,3.5,7.4,3.5.9,0,1.8,0,2.8-.2.3,0,.7.2.7.5,0,0,0,0,0,0v8.2c0,.7-.6,1.3-1.3,1.3,0,0,0,0-.1,0-3-.3-6.5.3-9.6-.4-6.2-1.4-10.6-3.5-11.7-10.3-1.1-6.5-.7-12.6-.7-21.7,0-2.1.4-4.1-.3-6.2-.1-.4-.5-.7-.9-.7-1.8-.3-3.1,0-3.8,1l-4.2.2c-.4,0-.7-.3-.7-.6,0,0,0,0,0,0v-11.1c0-.4.3-.7.6-.7h7.4c.3,0,.6-.3.6-.6h0v-12.3c0-.3.2-.5.5-.5h12.2c.3,0,.5.2.5.5h0v12.7c0,.1.1.3.3.3h11.8c.2,0,.4.2.4.5h0v10.3Z"/>
  <path class="st9" d="M270.4,780.8s0,0,0,0c0,0,0,0,0,.1l8.5,26.4c0,.2,0,.4-.3.5,0,0,0,0-.1,0,0,0-2.8,0-8.3,0-5.5,0-8.2,0-8.3,0-.2,0-.4-.2-.4-.4,0,0,0,0,0-.1l8.6-26.4c0,0,0-.1,0-.1,0,0,0,0,.1,0Z"/>
  <path class="st7" d="M355.8,818.2c.4,0,.6.4.6.8,0,0,0,0,0,.1-2.6,8.5-8.2,13.8-16.9,15.8-7.3,1.7-16.5.7-22.8-3.8-7.2-5.2-10.8-12.7-10.7-22.7.1-17,14.4-28.2,31.2-25.7,9.9,1.4,16.2,7.2,19,17.2.1.4-.1.9-.6,1,0,0-.1,0-.2,0h-11.5c-.4,0-.7-.2-.9-.5-2-2.8-3.3-5.1-7.1-5.9-11-2.3-17.8,6.4-16.4,16.6,1.1,8.5,5.6,12.7,13.4,12.7,4.4,0,8.2-2.4,10.2-6.2.3-.5.9-.9,1.5-.8l11.2,1.2ZM353.4,799.4c.5,0,.9-.5.8-1,0,0,0-.1,0-.2-2.4-8.5-9.2-14-18-14.4-5.2-.2-11.2-.3-15.7,2.4-5.1,3-9.6,7.2-11.4,12.9-1.2,3.7-1.9,5.6-1.9,5.6-.5,5.4-.2,9.4,1,12.2,1.5,3.5,2.7,6,3.6,7.5,3.2,5.1,8.1,8.2,14.6,9.3,9.8,1.7,18.9,0,25.4-7.9,1.6-1.9,2.4-4.1,3.1-5.8.2-.4,0-.8-.4-1,0,0-.1,0-.2,0l-9.3-1c-.5,0-1.1.2-1.3.7-2.4,5.2-8.7,6.5-14.1,5.9-9-1-12.3-11.2-11.5-19.2,0-.2,0-.4.1-.6l1.9-4.9c0,0,0-.1.1-.2,3.7-5.3,8.7-7.4,15.1-6.2,4.4.8,6.7,3.9,9,6.2.2.2.6.4.9.3l8-.7Z"/>
  <path class="st7" d="M644.4,804.7c0,.3,0,.5-.2.6-.3.1-.6,0-.7-.3,0,0,0-.1,0-.2.1-6.9-.9-12.5-6.8-17-3.1-2.4-6.6-3.7-10.5-4.1-11.1-1.1-23,1.5-25.5,14.1-.1.7.3,1.4,1,1.5,0,0,.2,0,.3,0h7.1c.6,0,1.2-.3,1.5-.9l1.3-2.7c.2-.3.4-.6.7-.8,3.8-2.4,7.9-3,12.5-2,5.9,1.3,8.8,6.7,7.7,12.6-.1.6-.7.9-1.2.8-3.5-.6-8.1-1.2-13.8-1.7-2.3-.2-4.5,0-6.7.4-3.8.8-6,1.4-6.6,1.7-4.7,2.7-6.7,7.1-6.2,13,.6,6.1,3.7,10.5,9.5,13.1,1.2.5,4,1.2,8.4,2.1.3,0,.7,0,1,0,3.5-.5,5.6-.9,6.5-1.2,1.8-.7,4.5-2.4,8.1-5.2-2.4,3.4-5.2,5.6-8.4,6.4-11.7,3.2-25.9-2.2-26.4-15.8-.3-7.2,3.7-13.3,10.6-14.5,7.8-1.4,15.3-1.2,22.4.5,1,.2,2-.4,2.2-1.4,0-.3,0-.7,0-1l-1.2-3.6c-.6-2-2.2-3.6-4.1-4.4-5.5-2.1-14-1.8-15.8,5.2-.1.4-.5.7-1,.7l-9.6-1.1c-.3,0-.6-.3-.6-.7-.3-8.8,7.2-14.8,15.4-16.1,8.6-1.4,18.4-.7,24.6,6.4,3.6,4.1,5.1,9.2,4.5,15.4Z"/>
  <path class="st7" d="M412.8,818.1c.4,0,.7.4.6.7,0,0,0,0,0,.1-2.6,8.6-8.2,13.9-16.8,15.9-7.2,1.7-16.5.8-22.8-3.7-7.2-5.1-10.8-12.7-10.8-22.6,0-17,14.3-28.2,31.1-25.9,9.9,1.4,16.3,7.1,19.1,17.1.1.4-.1.9-.6,1,0,0-.1,0-.2,0h-11.5c-.4,0-.7-.1-.9-.4-2-2.8-3.3-5.1-7.1-5.9-11-2.2-17.7,6.5-16.4,16.7,1.1,8.5,5.6,12.7,13.5,12.6,4.4,0,8.2-2.4,10.2-6.2.3-.6.9-.9,1.5-.8l11.2,1.2ZM410.9,799.4c.4,0,.7-.3.7-.7,0,0,0-.2,0-.2-3-8.2-8.6-13-16.8-14.5-2.3-.4-5.3-.4-9,0-3.1.3-6,1.2-8.6,2.7-6.4,3.5-10.5,8.9-12.4,16.3-1.2,4.8-.5,10,.5,14.5,1.8,8.2,9.9,15.1,17.6,16.4,12.3,2,24.3-1,28.9-13.8.1-.3,0-.7-.4-.8,0,0-.1,0-.2,0l-8.9-1c-.7,0-1.3.3-1.6.8-1.4,2.6-3.6,4.3-6.5,5.2-11.8,3.5-19-4.3-19.1-15.6,0-6.7,3.5-13,10-14.7,6.8-1.8,11.9,0,15.4,5.4.2.3.6.6.9.6,1,.2,2.2,0,3.5-.3.2,0,.4,0,.7,0h5.3Z"/>
  <path class="st7" d="M466.3,821c-2.1.2-4.3-.2-6.6-1.4-1.1-.5-2.4-.2-3.1.7-3,4-8.9,5.2-14,4.6-6-.7-9.7-4.7-11.1-10.2-.4-1.8.2-2.7,1.8-2.7,6.5,0,18.1,0,34.9,0,.6,0,1.1-.5,1.1-1.1,0,0,0-.2,0-.2-.5-2.5-.9-3.3-1-6-.7-9.8-7-18.8-17.1-20.7-4.8-.9-9.8-.6-15,.9-3.9,1.2-7.7,3.9-11.1,8.3-1.5,1.9-4.3,8.4-4.5,10.2-.5,6-.2,10.8.9,14.6,1.4,4.9,4.2,9,8.5,12.2,5.7,4.4,14.9,4.8,21.7,3.7,5.4-.9,10.3-3.6,14.7-8.3-1.6,3.1-4,5.4-7.3,7-4.6,2.2-9.5,3.2-14.8,3-11.6-.4-19.4-5.7-23.4-15.9-5.3-13.5.4-29.8,14.1-35.5,6-2.5,14.6-2.5,20.5,0,11.1,4.7,14.6,16.8,14.4,28,0,.4-.3.6-.6.6h-36.5c-.3,0-.5.2-.5.5,0,0,0,0,0,.1,1.8,7.5,6.5,11,14.2,10.4,4.5-.3,7.9-2.1,10.3-5.3.3-.5,1-.7,1.5-.5l8,2.7Z"/>
  <path class="st7" d="M515.3,813.7c1.9,7.6,6.8,11.1,14.7,10.3,4.3-.4,7.6-2.3,10.1-5.6.4-.6,1.1-.8,1.8-.5l9.7,3.6c.4.1.6.6.4.9,0,0,0,0,0,0-4.3,7.9-11.1,12.3-20.4,13-18.7,1.5-30.8-10.7-29.3-29.3.9-11.7,9.2-21.5,21-23.3,19.7-3.1,30.5,11,29.9,29.3,0,.4-.4.8-.8.8h-36.4c-.3,0-.6.3-.6.6,0,0,0,0,0,.1ZM550,821.7l-8.2-2.2c-.7-.2-1.4,0-1.9.6-3.3,3.9-7,4.8-12,5-6.8.4-11.2-3.3-13.3-9.6-.6-1.7-.5-2.9.4-3.4.1,0,.2,0,.3,0h35.8c.7,0,1.2-.5,1.2-1.2,0-.1,0-.3,0-.4-1-3-.8-6.1-1.6-8.9-3-10.4-9.5-17.1-20.7-17.8-9.4-.6-16.6,2.5-21.8,9.4-3.2,4.3-4.9,9.5-5.1,15.6-.1,5.9,1.4,11.2,4.5,15.8,4,5.9,8.9,8.9,15.6,9.6,11.2,1.3,21.5-1,27.2-11.4.2-.4,0-.8-.3-1,0,0-.1,0-.2,0Z"/>
  <path class="st7" d="M744.3,811.9c0,13.2-10.8,23.8-23.9,23.7h-4.7c-13.2,0-23.8-10.8-23.7-23.9v-5.2c0-13.2,10.8-23.8,23.9-23.7h4.7c13.2,0,23.8,10.8,23.7,23.9v5.2ZM743.5,807.1c0-12.7-10.2-23-22.8-23.1h-4.6c-12.7,0-23,10.1-23.1,22.8v4.6c0,12.7,10.1,23,22.8,23.1h4.6c12.7,0,23-10.1,23.1-22.8v-4.6Z"/>
  <path class="st7" d="M575.9,805.8c-.3,0-.6,0-.7,0-.3-.2-.4-.5-.4-.9,1.2-5.8,5.8-9.8,11.8-9.5,0,0,1.4,0,4,0,.4,0,.8-.3.8-.8,0,0,0,0,0,0v-10.1c0-.5-.4-.9-.9-.9,0,0,0,0,0,0-3.5.3-6.6,1.3-9.5,3-.2.1-.4.3-.6.5-1.4,1.6-2.8,2.3-4,2.1,4-4.7,9.2-6.8,15.5-6.4.3,0,.5.2.5.5v13.2c0,.2-.2.4-.4.4,0,0,0,0-.1,0-4.1-1.1-10.5-.6-13.5,3-1.4,1.6-2.2,3.6-2.4,6Z"/>
  <path class="st7" d="M766.4,790.7c-.2.2-.3.2-.5.2-.6-.1-1-.7-.8-1.3,0,0,0,0,0,0,.3-1.5.5-2.9.5-4.1,0-.5-.4-.9-.9-.9h-9c-.5,0-.9.4-.9.9h0v47.7c0,.5.4.9.9.9h9.9c.5,0,1-.4,1-1,0,0,0-.1,0-.2l-.7-4.6s0,0,0,0c.2-6.6.3-12.8.2-18.8,0-2.9.6-5.6,1.4-7.7,2.5-6.2,9-7,14.9-6.4.5,0,1-.3,1-.8,0,0,0,0,0,0v-9.6c0-.7-.5-1.2-1.2-1.2,0,0,0,0-.1,0-5.5.7-9.7,1.8-13.4,6.1-.2.2-.5.4-.8.3-.1,0-.3,0-.4,0,3-5.5,10.5-7.9,16.3-7.2.3,0,.6.3.6.6v13c0,.2-.2.4-.4.4,0,0,0,0-.1,0-6.7-1.9-16,.1-16.1,8.8-.2,8.5-.2,18.1,0,28.8,0,.3-.2.5-.5.5h-12.8c-.3,0-.6-.3-.6-.6v-50.7c0-.2.2-.3.3-.3h12.2c.3,0,.5.2.5.5,0,0,0,0,0,0l-.5,6.7Z"/>
  <path class="st7" d="M574.9,789.5c-.3,0-.5,0-.7-.2-.1-.2-.2-.4-.1-.7.2-1.4.4-2.3.4-2.8,0-.7-.4-1.2-1.1-1.3,0,0,0,0-.1,0h-9.8c-.4,0-.8.4-.8.8,0,1.7.4,3.3.4,5.4.2,13.2-.1,26.3-.8,39.5l-.4-46.2c0-.3.2-.5.5-.5h12.2c.3,0,.6.2.6.6.2,1.9,0,3.7-.4,5.5Z"/>
  <path class="st10" d="M575.9,805.8v28.4s-13.8-.3-13.8-.3c-.4-2.3-.3-3.6.3-3.7.7-13.2.9-26.4.8-39.5,0-2.1-.4-3.7-.4-5.4,0-.4.4-.8.8-.8h9.8c.7,0,1.2.5,1.2,1.2,0,0,0,0,0,.1,0,.5-.2,1.4-.4,2.8,0,.3,0,.6.1.7.2.2.4.3.7.2,0,.7.5.6,1.4-.3,1.2.2,2.6-.5,4-2.1.2-.2.4-.4.6-.5,2.9-1.8,6-2.8,9.5-3,.5,0,.9.3,1,.8,0,0,0,0,0,0v10.1c0,.4-.4.8-.8.8s0,0,0,0c-2.6,0-3.9,0-4,0-6-.3-10.6,3.7-11.8,9.5,0,.4,0,.7.4.9.1,0,.4.1.7,0Z"/>
  <path class="st10" d="M353.4,799.4l-8,.7c-.3,0-.7,0-.9-.3-2.3-2.3-4.6-5.4-9-6.2-6.4-1.2-11.4.9-15.1,6.2,0,0,0,.1-.1.2l-1.9,4.9c0,.2-.1.4-.1.6-.8,8,2.4,18.1,11.5,19.2,5.4.6,11.6-.7,14.1-5.9.2-.5.7-.8,1.3-.7l9.3,1c.4,0,.7.4.7.8,0,0,0,.1,0,.2-.7,1.7-1.5,3.8-3.1,5.8-6.5,8-15.6,9.6-25.4,7.9-6.5-1.1-11.4-4.2-14.6-9.3-.9-1.4-2.1-3.9-3.6-7.5-1.2-2.8-1.5-6.8-1-12.2,0,0,.6-1.9,1.9-5.6,1.9-5.7,6.3-9.9,11.4-12.9,4.5-2.7,10.5-2.6,15.7-2.4,8.8.3,15.6,5.8,18,14.4.1.5-.2,1-.6,1.1,0,0-.1,0-.2,0Z"/>
  <path class="st10" d="M410.9,799.4h-5.3c-.2,0-.4,0-.7,0-1.3.4-2.5.5-3.5.3-.4,0-.7-.3-.9-.6-3.5-5.4-8.6-7.2-15.4-5.4-6.5,1.7-10.1,8-10,14.7.1,11.3,7.3,19.1,19.1,15.6,2.9-.9,5-2.6,6.5-5.2.3-.6,1-.9,1.6-.8l8.9,1c.4,0,.6.4.6.7,0,0,0,.1,0,.2-4.6,12.9-16.6,15.8-28.9,13.8-7.7-1.2-15.8-8.2-17.6-16.4-1-4.6-1.7-9.7-.5-14.5,1.9-7.3,6-12.8,12.4-16.3,2.6-1.4,5.5-2.3,8.6-2.7,3.7-.4,6.8-.4,9,0,8.2,1.5,13.8,6.3,16.8,14.5.1.4,0,.8-.4.9,0,0-.2,0-.2,0Z"/>
  <path class="st10" d="M466.3,821c.8-.2,1.5,0,2.3.5.3.2.4.5.3.8-.5,1.9-1.3,3-2.5,3.5-4.4,4.6-9.3,7.4-14.7,8.3-6.8,1.1-15.9.7-21.7-3.7-4.2-3.2-7.1-7.3-8.5-12.2-1.1-3.7-1.4-8.6-.9-14.6.1-1.8,2.9-8.3,4.5-10.2,3.5-4.4,7.2-7.1,11.1-8.3,5.2-1.5,10.1-1.8,15-.9,10.1,1.9,16.3,10.9,17.1,20.7.2,2.6.5,3.4,1,6,.1.6-.3,1.2-.9,1.3,0,0-.2,0-.2,0-16.7,0-28.4,0-34.9,0-1.7,0-2.3.9-1.8,2.7,1.4,5.5,5.1,9.6,11.1,10.2,5,.6,10.9-.6,14-4.6.7-1,2-1.3,3.1-.7,2.3,1.1,4.5,1.6,6.6,1.4ZM431.8,804l26,.3c0,0,.1,0,.1-.1h0c0-6.5-5.3-11.7-12-11.8,0,0,0,0,0,0h-2c-6.7,0-12.2,5-12.3,11.5h0c0,.1,0,.2.1.2Z"/>
  <path class="st10" d="M550.5,822.8c-5.7,10.4-16,12.7-27.2,11.4-6.7-.8-11.6-3.7-15.6-9.6-3.1-4.7-4.6-9.9-4.5-15.8.1-6.1,1.8-11.3,5.1-15.6,5.1-6.9,12.4-10,21.8-9.4,11.2.7,17.7,7.4,20.7,17.8.8,2.8.6,5.9,1.6,8.9.2.6-.1,1.4-.8,1.6-.1,0-.3,0-.4,0h-35.8c-.1,0-.2,0-.3,0-.9.5-1,1.7-.4,3.4,2.2,6.2,6.5,9.9,13.3,9.6,5-.3,8.7-1.1,12-5,.5-.5,1.2-.8,1.9-.6l8.2,2.2c.4.1.6.5.5.9,0,0,0,.1,0,.2ZM527.7,804.3c3.1,0,7.1,0,12-.3.7,0,1.3-.6,1.3-1.3,0,0,0-.2,0-.3-1.6-6.4-6.5-10.2-13.2-10.2-6.7,0-11.6,3.8-13.2,10.2-.2.7.2,1.4.9,1.6,0,0,.2,0,.3,0,4.9.2,9,.3,12,.3Z"/>
  <path class="st10" d="M644.4,804.7l.2,29.9c0,.2-.2.4-.4.4,0,0,0,0,0,0h-11.7c-.4,0-.7-.3-.7-.7v-5.7c-3.6,2.8-6.3,4.5-8.2,5.2-.9.3-3.1.8-6.5,1.2-.4,0-.7,0-1,0-4.4-.8-7.2-1.5-8.4-2.1-5.8-2.6-8.9-6.9-9.5-13.1-.5-5.9,1.5-10.2,6.2-13,.6-.3,2.8-.9,6.6-1.7,2.2-.5,4.4-.6,6.7-.4,5.8.5,10.4,1,13.8,1.7.6,0,1.1-.3,1.2-.8,1.2-5.9-1.8-11.2-7.7-12.6-4.6-1-8.7-.3-12.5,2-.3.2-.5.4-.7.8l-1.3,2.7c-.3.6-.8.9-1.5.9h-7.1c-.7,0-1.3-.6-1.3-1.3,0,0,0-.2,0-.3,2.5-12.6,14.4-15.1,25.5-14.1,3.8.4,7.3,1.7,10.5,4.1,5.9,4.4,6.9,10.1,6.8,17,0,.3.2.6.5.6,0,0,.1,0,.2,0,.1,0,.2-.2.2-.6ZM630.7,819.8c2.1-3.9-1.1-6-4.5-6.5-5.3-.8-19.2-2-16.3,7,1,3,3.2,4.5,6.6,4.7,5.6.2,11.5-.2,14.2-5.2Z"/>
  <path class="st10" d="M743.4,811.6c0,12.7-10.4,22.9-23.1,22.8h-4.6c-12.7,0-22.9-10.4-22.8-23.1h0s0-4.6,0-4.6c0-12.7,10.4-22.9,23.1-22.8h4.6c12.7,0,22.9,10.4,22.8,23.1h0v4.6ZM732.1,806.1c0-7-5.7-12.8-12.7-12.8h-2.3c-7,0-12.8,5.7-12.8,12.7v5.9c0,7,5.6,12.8,12.7,12.8h2.3c7,0,12.8-5.7,12.8-12.7v-5.9Z"/>
  <path class="st10" d="M766.4,790.7c.4,0,.8-.3,1-.6.1,0,.3,0,.4,0,.3,0,.6-.1.8-.3,3.7-4.3,8-5.5,13.4-6.1.7,0,1.3.4,1.4,1.1,0,0,0,0,0,.1v9.6c0,.5-.4.9-.9.9,0,0,0,0,0,0-5.9-.5-12.4.3-14.9,6.4-.8,2.1-1.5,4.8-1.4,7.7,0,5.9,0,12.2-.2,18.8,0,0,0,0,0,0l.7,4.6c0,.5-.3,1-.8,1.1,0,0-.1,0-.2,0h-9.9c-.5,0-.9-.4-.9-.9h0v-47.7c0-.5.4-.9.9-.9h9c.5,0,.9.4.9.9h0c0,1.2-.2,2.6-.5,4.1-.1.6.2,1.2.8,1.3,0,0,0,0,0,0,.1,0,.3,0,.5-.2Z"/>
  <path class="st7" d="M431.8,804c0,0-.1,0-.1-.1h0c0-6.5,5.6-11.6,12.3-11.5h2c6.7,0,12.1,5.3,12,11.7,0,0,0,0,0,0h0c0,.1,0,.2-.1.2h0l-26-.3ZM432.9,803h23.5c0,0,.1,0,.1,0h0c0-5.3-5.2-9.6-11.7-9.6h-.2c-6.5,0-11.8,4.2-11.8,9.4,0,0,0,0,0,0h0c0,.2,0,.2.1.2h0Z"/>
  <path class="st7" d="M527.7,792.2c6.7,0,11.6,3.8,13.2,10.2.2.7-.2,1.4-.9,1.6,0,0-.2,0-.3,0-4.9.2-8.9.3-12,.3-3.1,0-7.1-.1-12-.3-.7,0-1.3-.6-1.2-1.3,0,0,0-.2,0-.3,1.6-6.4,6.5-10.2,13.2-10.2ZM515.9,803h23.6c0,0,.1,0,.1,0h0c0-5.3-5.2-9.5-11.8-9.5h-.2c-6.5,0-11.8,4.2-11.8,9.4,0,0,0,0,0,0h0c0,.1,0,.2.1.2h0Z"/>
  <path class="st7" d="M732.1,812c0,7-5.8,12.7-12.8,12.7h-2.3c-7,0-12.7-5.8-12.7-12.8v-5.9c0-7,5.8-12.7,12.8-12.7h2.3c7,0,12.7,5.8,12.7,12.8h0s0,5.9,0,5.9ZM718.4,794c-7.4-.1-13.4,6.6-13.5,15h0c-.1,8.4,5.8,15.3,13.1,15.4s13.4-6.6,13.5-15-5.8-15.3-13.1-15.4Z"/>
  <path class="st9" d="M432.9,803c0,0-.1,0-.1-.1h0c0-5.3,5.3-9.5,11.8-9.5h.2c6.5,0,11.7,4.3,11.7,9.5h0c0,.2,0,.2-.1.2h-23.5Z"/>
  <path class="st9" d="M515.9,803c0,0-.1,0-.1-.1h0c0-5.3,5.3-9.5,11.8-9.5h.2c6.5,0,11.8,4.3,11.8,9.5h0c0,.1,0,.2-.1.2h-23.6Z"/>
  <path class="st7" d="M685.7,794.2c.1.8,0,1.3-.3,1.6,0,0-.2,0-.2,0h-11.6c-.2-.1-.4,0-.4.2,0,11,.1,17.7.3,19.9.5,7.1,6,7.5,11.6,6.7.3,0,.6.2.6.5,0,0,0,0,0,0v11.3c0,.3-.2.5-.5.5-5.8.2-10.9.6-15.9-1.3-7.8-3-9.3-9.5-9.4-17.2,0-3.1,0-9.8.1-20.1,0-.4-.3-.7-.7-.7h-3.1c.7-1,1.9-1.3,3.8-1,.4,0,.7.3.9.7.7,2.1.3,4.1.3,6.2,0,9.1-.3,15.2.7,21.7,1.1,6.8,5.5,9,11.7,10.3,3.1.7,6.6.1,9.6.4.7,0,1.3-.5,1.4-1.2,0,0,0,0,0-.1v-8.2c0-.4-.3-.6-.6-.6,0,0,0,0,0,0-1,.2-1.9.2-2.8.2-3.4,0-5.9-1.2-7.4-3.5-.9-1.4-1.3-4-1.4-8.1,0-4.1,0-9.3-.1-15.5,0-1.3,1-2.4,2.3-2.5l11.3-.4Z"/>
  <ellipse class="st9" cx="718.2" cy="809.1" rx="15.2" ry="13.3" transform="translate(-100.9 1515.9) rotate(-89.2)"/>
  <path class="st9" d="M626.3,813.3c3.3.5,6.5,2.6,4.5,6.5-2.6,5-8.6,5.4-14.2,5.2-3.4-.1-5.6-1.7-6.6-4.7-2.9-9,11-7.8,16.3-7Z"/>
  <path class="st7" d="M575.9,834.2c-4.2,1-8.6,1.3-13.2.8-.2,0-.4-.2-.5-.4-.2-.3-.2-.6,0-.8l13.8.3Z"/>
  <ellipse class="st8" cx="-284.5" cy="-180" rx="1.5" ry="1"/>
</svg>