<?xml version="1.0" encoding="UTF-8" standalone="no"?>
<!DOCTYPE svg PUBLIC "-//W3C//DTD SVG 1.1//EN" "http://www.w3.org/Graphics/SVG/1.1/DTD/svg11.dtd">
<svg xmlns="http://www.w3.org/2000/svg" version="1.1" viewBox="0.00 0.00 1024.00 1024.00">
<g stroke-width="2.00" fill="none" stroke-linecap="butt">
<path stroke="#8095af" vector-effect="non-scaling-stroke" d="
  M 712.45 548.05
  Q 712.60 544.14 712.60 540.25
  Q 712.67 465.20 712.61 356.25
  Q 712.61 350.59 711.66 347.73
  Q 709.53 341.33 702.93 338.30
  A 2.06 2.04 35.6 0 0 700.67 338.66
  L 684.51 353.79
  A 1.18 1.16 -34.5 0 0 684.25 355.15
  Q 685.41 357.62 685.40 360.50
  Q 685.35 409.00 685.41 554.55
  A 0.46 0.45 90.0 0 1 684.96 555.01
  L 352.23 555.02"
/>
<path stroke="#ffac89" vector-effect="non-scaling-stroke" d="
  M 352.23 555.02
  Q 356.77 550.92 361.17 546.91
  Q 404.53 507.44 427.11 486.52
  C 429.95 483.88 431.37 481.94 434.56 485.17
  Q 452.17 503.01 478.33 528.90
  C 484.07 534.57 489.60 532.08 494.46 527.21
  Q 587.08 434.51 693.36 329.61
  Q 695.56 327.44 702.23 321.22
  Q 704.33 319.26 706.43 321.29
  Q 713.15 327.74 724.89 338.34
  C 729.23 342.26 733.78 339.44 734.93 334.42
  Q 753.53 253.33 756.75 239.01
  C 757.63 235.11 756.64 230.26 752.55 228.97
  Q 751.12 228.51 746.97 229.65
  Q 693.54 244.25 655.62 254.09
  C 653.49 254.64 650.27 256.02 649.92 258.64
  Q 649.51 261.67 651.81 263.73
  Q 663.59 274.28 674.70 285.00
  A 1.68 1.68 0.0 0 1 675.01 287.00
  Q 674.10 288.67 672.88 289.88
  Q 668.37 294.34 607.17 353.67
  Q 605.33 355.45 483.92 473.50
  C 481.75 475.62 480.27 477.50 477.69 475.06
  Q 461.63 459.94 445.77 444.48
  Q 443.68 442.44 436.71 435.80
  Q 433.50 432.73 430.07 434.77
  Q 429.37 435.18 428.78 435.73
  Q 382.94 478.24 338.62 520.32"
/>
<path stroke="#8095af" vector-effect="non-scaling-stroke" d="
  M 338.62 520.32
  L 338.58 394.33"
/>
<path stroke="#80828e" vector-effect="non-scaling-stroke" d="
  M 338.58 394.33
  L 338.51 360.02
  A 1.67 1.67 0.0 0 1 339.12 358.73
  L 511.71 216.93
  A 0.84 0.84 0.0 0 1 512.79 216.93
  L 627.02 311.56"
/>
<path stroke="#8095af" vector-effect="non-scaling-stroke" d="
  M 627.02 311.56
  L 630.08 314.09
  A 0.89 0.88 -45.8 0 0 631.23 314.07
  L 650.32 297.11
  A 0.80 0.79 57.6 0 0 650.52 296.20
  Q 650.07 295.17 648.72 294.50"
/>
<path stroke="#80828e" vector-effect="non-scaling-stroke" d="
  M 648.72 294.50
  Q 587.11 243.76 525.61 192.87
  Q 521.39 189.37 517.63 187.95
  Q 512.34 185.95 506.93 187.61
  Q 504.53 188.35 498.03 193.71
  Q 436.99 244.09 319.51 340.26
  C 314.21 344.60 311.93 348.28 311.95 354.52
  Q 312.22 447.71 311.94 563.50
  Q 311.93 569.24 312.68 571.63
  Q 315.48 580.60 324.87 581.89
  Q 326.29 582.08 330.50 582.08
  Q 656.52 582.05 692.26 582.11
  C 701.34 582.12 707.12 581.18 711.07 573.59
  Q 712.46 570.92 712.46 560.94
  Q 712.46 554.49 712.45 548.05"
/>
<path stroke="#00193f" vector-effect="non-scaling-stroke" d="
  M 648.72 294.50
  Q 648.57 295.00 648.21 294.95
  Q 647.35 294.83 646.68 294.28
  Q 527.40 196.00 524.27 193.48
  Q 519.72 189.83 517.89 189.14
  Q 510.52 186.39 504.72 190.00
  Q 500.60 192.57 490.05 202.43
  A 2.45 2.42 -82.2 0 1 489.66 202.73
  Q 484.41 206.10 481.41 209.57
  A 5.12 5.11 -86.0 0 1 480.34 210.50
  Q 477.65 212.26 475.37 214.09
  Q 461.78 224.99 453.55 232.33
  Q 450.82 234.75 439.44 243.62
  Q 433.17 248.50 425.61 255.28
  C 422.87 257.73 419.83 259.42 417.63 261.48
  C 413.29 265.54 407.19 269.87 404.05 272.95
  Q 401.47 275.47 397.88 277.91
  Q 395.06 279.83 391.77 283.02
  A 4.87 4.64 -83.3 0 1 391.24 283.46
  Q 388.29 285.49 386.94 287.11
  A 1.34 1.26 8.6 0 1 386.39 287.49
  Q 385.92 287.65 384.00 289.23
  Q 368.64 301.88 364.24 305.55
  C 361.79 307.59 358.85 309.54 356.93 311.69
  A 3.84 3.78 -84.8 0 1 356.14 312.36
  Q 352.14 314.87 346.71 319.68
  Q 341.73 324.08 328.07 334.90
  C 326.28 336.32 325.15 337.72 323.17 338.95
  A 4.43 4.41 -82.0 0 0 322.64 339.35
  C 319.69 342.04 316.03 344.43 314.65 347.24
  Q 313.10 350.42 313.11 352.50
  Q 313.27 459.65 312.85 562.19
  Q 312.85 563.01 313.09 564.92
  C 313.37 567.19 313.23 569.86 313.78 571.72
  C 315.17 576.46 318.91 579.43 323.93 580.54
  Q 327.63 581.35 330.25 581.35
  Q 543.34 581.34 693.09 581.36
  C 696.42 581.36 700.81 580.95 703.41 579.64
  Q 709.99 576.34 711.06 569.03
  C 711.56 565.60 710.62 558.44 711.18 553.59
  Q 711.59 550.09 711.59 547.78
  A 0.39 0.38 7.5 0 1 712.08 547.41
  Q 712.29 547.47 712.45 548.05"
/>
<path stroke="#00193f" vector-effect="non-scaling-stroke" d="
  M 627.02 311.56
  Q 627.44 311.55 627.50 311.45
  Q 627.96 310.65 627.17 310.16
  C 624.86 308.73 623.48 306.63 621.39 305.27
  Q 619.25 303.88 614.18 299.32
  Q 610.84 296.31 606.98 293.22
  Q 596.70 284.98 585.57 275.47
  Q 576.17 267.44 571.30 263.62
  C 566.35 259.73 563.03 256.31 558.61 252.94
  Q 553.61 249.14 549.58 245.82
  Q 540.73 238.55 521.09 222.29
  C 518.62 220.25 516.35 217.60 513.35 215.94
  A 2.32 2.31 39.6 0 0 510.76 216.18
  L 354.86 344.84
  A 0.90 0.85 -73.5 0 1 354.69 344.94
  Q 352.79 345.84 350.72 347.97
  Q 349.53 349.20 348.60 349.87
  Q 346.45 351.41 338.05 358.19
  A 1.13 1.11 73.6 0 0 337.63 358.98
  Q 337.25 363.91 337.19 367.00
  Q 336.96 377.61 337.38 391.99
  Q 337.46 394.96 338.58 394.33"
/>
<path stroke="#7f433a" vector-effect="non-scaling-stroke" d="
  M 338.62 520.32
  L 338.76 554.26
  A 1.14 1.13 4.4 0 0 339.72 555.38
  Q 347.04 556.54 352.23 555.02"
/>
<path stroke="#85a6cc" vector-effect="non-scaling-stroke" d="
  M 518.38 416.83
  Q 518.79 416.79 519.30 416.30
  Q 549.39 387.70 563.76 373.79
  A 4.80 4.79 67.8 0 0 565.21 370.33
  Q 565.08 319.16 565.15 310.27
  Q 565.22 302.55 557.65 302.55
  Q 536.26 302.55 527.35 302.44
  C 522.17 302.38 517.84 303.44 517.85 309.07
  Q 517.94 355.05 517.94 416.44
  A 0.40 0.39 -3.3 0 0 518.38 416.83"
/>
<path stroke="#8095af" vector-effect="non-scaling-stroke" d="
  M 497.44 346.57
  Q 482.08 345.40 467.27 346.11"
/>
<path stroke="#85a6cc" vector-effect="non-scaling-stroke" d="
  M 467.27 346.11
  C 461.88 345.09 455.58 345.91 455.66 353.00
  Q 455.76 361.76 455.71 428.30
  C 455.71 431.79 456.07 433.15 458.57 435.34
  Q 465.32 441.26 476.87 452.18
  Q 480.20 455.33 483.90 451.66
  Q 496.94 438.75 501.75 433.73
  Q 502.96 432.46 502.98 430.25
  Q 502.99 429.39 503.02 353.76
  Q 503.02 346.65 497.44 346.57"
/>
<path stroke="#053d7d" vector-effect="non-scaling-stroke" d="
  M 467.27 346.11
  Q 467.08 346.44 467.09 346.51
  A 0.60 0.60 0.0 0 0 467.66 347.04
  Q 482.63 347.55 497.44 346.57"
/>
<path stroke="#8095af" vector-effect="non-scaling-stroke" d="
  M 439.88 417.63
  Q 440.95 405.24 439.97 392.50"
/>
<path stroke="#85a6cc" vector-effect="non-scaling-stroke" d="
  M 439.97 392.50
  Q 440.49 388.40 437.08 386.79
  Q 435.16 385.88 430.28 385.88
  Q 402.79 385.89 399.77 385.98
  Q 393.03 386.18 393.02 392.30
  Q 393.00 417.08 392.99 445.46
  A 0.75 0.75 0.0 0 0 394.24 446.01
  Q 402.32 438.63 411.67 429.93
  C 418.81 423.28 424.39 418.99 434.34 420.24
  Q 436.33 420.49 439.25 421.00
  A 0.79 0.78 -69.5 0 0 440.07 420.62
  Q 441.10 418.80 439.88 417.63"
/>
<path stroke="#053d7d" vector-effect="non-scaling-stroke" d="
  M 439.97 392.50
  Q 438.70 405.21 439.88 417.63"
/>
<path stroke="#80828e" vector-effect="non-scaling-stroke" d="
  M 546.88 667.21
  C 542.36 684.61 544.54 703.92 554.66 718.82
  C 563.66 732.06 577.74 740.54 593.47 742.73
  Q 608.69 744.86 622.20 740.71
  C 645.28 733.63 660.24 714.04 661.79 690.03
  Q 662.61 677.24 659.73 667.48
  Q 653.22 645.47 633.04 633.94
  Q 619.85 626.41 603.79 627.22"
/>
<path stroke="#8095af" vector-effect="non-scaling-stroke" d="
  M 603.79 627.22
  Q 597.73 626.41 590.57 627.84
  C 569.40 632.10 553.03 646.34 546.88 667.21"
/>
<path stroke="#00193f" vector-effect="non-scaling-stroke" d="
  M 603.79 627.22
  Q 612.01 628.06 619.67 630.04
  Q 628.58 632.34 634.55 636.05
  C 645.05 642.58 654.23 653.27 657.99 665.51
  Q 659.78 671.34 659.82 672.66
  Q 659.98 677.83 660.88 682.76
  Q 661.54 686.39 660.24 690.13
  A 0.95 0.93 58.3 0 0 660.18 690.40
  L 659.38 699.80
  A 0.83 0.57 68.2 0 1 659.33 700.02
  C 658.04 702.93 657.63 705.64 656.25 708.77
  Q 652.09 718.17 645.81 724.75
  Q 640.41 730.40 636.67 732.70
  Q 630.75 736.33 624.65 738.70
  Q 618.25 741.18 611.60 741.80
  Q 598.57 743.00 589.19 740.81
  Q 577.60 738.10 567.46 730.27
  Q 555.21 720.83 550.26 707.99
  Q 547.91 701.90 546.56 694.68
  Q 545.84 690.84 546.07 684.98
  C 546.34 678.30 546.03 673.52 547.91 668.26
  Q 548.22 667.39 547.75 667.25
  Q 547.43 667.16 546.88 667.21"
/>
<path stroke="#8095af" vector-effect="non-scaling-stroke" d="
  M 707.14 631.93
  Q 693.17 638.46 684.91 651.63"
/>
<path stroke="#80828e" vector-effect="non-scaling-stroke" d="
  M 684.91 651.63
  C 676.70 664.72 674.49 680.42 676.65 695.42
  Q 680.16 719.83 700.03 733.82
  Q 709.84 740.72 721.50 742.53
  C 749.46 746.87 774.45 735.72 783.49 707.47"
/>
<path stroke="#8095af" vector-effect="non-scaling-stroke" d="
  M 783.49 707.47
  L 784.18 703.56
  A 0.48 0.48 0.0 0 0 783.71 702.99
  L 761.28 702.99
  A 1.40 1.39 -77.2 0 0 760.02 703.79
  Q 752.40 719.87 734.76 721.91"
/>
<path stroke="#80828e" vector-effect="non-scaling-stroke" d="
  M 734.76 721.91
  C 714.85 723.04 702.15 708.63 700.34 689.95
  C 699.02 676.41 703.00 662.23 713.96 653.97
  Q 720.49 649.05 728.25 648.30
  Q 746.33 646.57 756.55 660.40
  Q 756.55 660.41 758.73 664.15
  Q 760.10 666.51 761.92 666.95"
/>
<path stroke="#8095af" vector-effect="non-scaling-stroke" d="
  M 761.92 666.95
  L 783.36 666.91
  A 0.46 0.46 0.0 0 0 783.82 666.42
  Q 783.55 662.79 782.19 661.30"
/>
<path stroke="#80828e" vector-effect="non-scaling-stroke" d="
  M 782.19 661.30
  Q 780.66 652.48 774.46 645.02
  Q 760.24 627.92 738.00 626.89
  C 727.09 626.38 717.08 627.37 707.14 631.93"
/>
<path stroke="#00193f" vector-effect="non-scaling-stroke" d="
  M 782.19 661.30
  Q 774.91 640.62 755.81 632.11
  Q 752.88 630.80 751.67 630.57
  C 747.88 629.84 744.72 628.59 740.83 628.22
  Q 730.81 627.29 721.76 628.64
  Q 715.32 629.60 707.68 632.82
  A 0.32 0.32 0.0 0 1 707.35 632.78
  Q 707.03 632.54 707.14 631.93"
/>
<path stroke="#00193f" vector-effect="non-scaling-stroke" d="
  M 761.92 666.95
  Q 758.70 660.12 753.45 655.04
  Q 746.69 648.50 737.97 647.69
  Q 735.59 647.47 733.63 647.34
  Q 729.86 647.07 729.29 647.12
  C 715.46 648.34 705.30 657.64 700.92 670.52
  Q 699.66 674.23 699.36 679.16
  C 698.76 689.03 699.51 697.68 704.45 706.55
  Q 714.43 724.49 735.25 723.18
  A 0.68 0.68 0.0 0 0 735.53 721.90
  Q 735.28 721.76 734.76 721.91"
/>
<path stroke="#00193f" vector-effect="non-scaling-stroke" d="
  M 783.49 707.47
  Q 782.53 706.86 782.31 707.54
  C 780.09 714.46 776.80 721.57 771.47 726.18
  Q 768.78 728.50 766.82 731.13
  A 0.79 0.79 0.0 0 1 766.32 731.43
  Q 765.82 731.50 764.25 732.76
  Q 756.68 738.81 746.90 740.82
  Q 733.43 743.58 718.10 740.67
  Q 713.38 739.77 704.44 735.02
  C 701.84 733.64 699.36 731.14 697.04 729.63
  C 692.07 726.39 688.16 720.59 684.79 715.49
  Q 681.54 710.58 679.92 704.75
  Q 676.12 691.05 677.60 677.02
  Q 679.00 663.68 685.79 652.61
  A 0.71 0.71 0.0 0 0 685.62 651.67
  Q 685.48 651.56 684.91 651.63"
/>
<path stroke="#80828e" vector-effect="non-scaling-stroke" d="
  M 290.09 694.95
  Q 312.14 694.95 313.40 695.02
  A 0.66 0.65 1.8 0 1 314.02 695.67
  L 314.02 741.18
  A 0.33 0.33 0.0 0 0 314.35 741.51
  L 337.70 741.51
  A 0.26 0.26 0.0 0 0 337.96 741.25
  L 337.96 629.40
  A 0.36 0.36 0.0 0 0 337.60 629.04
  L 314.39 629.04
  A 0.36 0.36 0.0 0 0 314.03 629.40
  L 314.03 673.05
  A 0.82 0.82 0.0 0 1 313.31 673.86
  Q 311.82 674.03 310.00 674.03
  Q 298.07 674.01 290.10 674.01
  Q 282.12 674.01 270.19 674.03
  Q 268.37 674.03 266.88 673.85
  A 0.82 0.82 0.0 0 1 266.16 673.04
  L 266.17 629.39
  A 0.36 0.36 0.0 0 0 265.81 629.03
  L 242.60 629.03
  A 0.36 0.36 0.0 0 0 242.24 629.39
  L 242.22 741.24
  A 0.26 0.26 0.0 0 0 242.48 741.50
  L 265.83 741.50
  A 0.33 0.33 0.0 0 0 266.16 741.17
  L 266.17 695.66
  A 0.66 0.65 -1.8 0 1 266.79 695.02
  Q 268.05 694.94 290.09 694.95"
/>
<path stroke="#80828e" vector-effect="non-scaling-stroke" d="
  M 363.96 632.99
  L 363.97 741.19
  A 0.34 0.34 0.0 0 0 364.31 741.53
  L 390.71 741.51"
/>
<path stroke="#8095af" vector-effect="non-scaling-stroke" d="
  M 390.71 741.51
  L 441.34 741.59
  A 0.44 0.44 0.0 0 0 441.78 741.15
  L 441.78 721.52
  A 0.53 0.53 0.0 0 0 441.25 720.99
  L 388.93 720.99
  A 0.99 0.99 0.0 0 1 387.94 720.00
  L 387.88 694.45
  A 0.22 0.21 61.8 0 1 387.91 694.34
  Q 388.05 694.06 388.21 694.01"
/>
<path stroke="#80828e" vector-effect="non-scaling-stroke" d="
  M 388.21 694.01
  L 434.87 694.05
  A 0.32 0.32 0.0 0 0 435.19 693.73
  L 435.19 675.68
  A 0.50 0.50 0.0 0 0 434.69 675.18
  L 427.18 675.04"
/>
<path stroke="#8095af" vector-effect="non-scaling-stroke" d="
  M 427.18 675.04
  L 402.45 675.01"
/>
<path stroke="#80828e" vector-effect="non-scaling-stroke" d="
  M 402.45 675.01
  L 387.92 674.90"
/>
<path stroke="#8095af" vector-effect="non-scaling-stroke" d="
  M 387.92 674.90
  Q 388.01 662.21 387.97 650.00
  Q 387.97 649.51 388.44 649.46"
/>
<path stroke="#80828e" vector-effect="non-scaling-stroke" d="
  M 388.44 649.46
  L 439.72 649.69
  A 0.25 0.25 0.0 0 0 439.97 649.43
  L 439.74 632.58"
/>
<path stroke="#8095af" vector-effect="non-scaling-stroke" d="
  M 439.74 632.58
  Q 440.39 631.33 439.89 629.47
  A 0.68 0.67 82.8 0 0 439.24 628.96
  L 364.51 628.96
  A 0.55 0.55 0.0 0 0 363.96 629.51
  L 363.96 632.99"
/>
<path stroke="#00193f" vector-effect="non-scaling-stroke" d="
  M 439.74 632.58
  Q 438.71 640.22 439.18 647.69
  A 0.88 0.88 0.0 0 1 438.26 648.62
  Q 435.25 648.49 432.00 648.50
  Q 407.41 648.58 389.25 648.60
  Q 388.41 648.60 388.44 649.46"
/>
<path stroke="#00193f" vector-effect="non-scaling-stroke" d="
  M 387.92 674.90
  Q 386.46 675.44 388.66 676.14
  A 1.90 1.82 52.7 0 0 389.23 676.23
  L 402.29 676.23
  A 0.55 0.54 -19.1 0 0 402.72 675.35
  L 402.45 675.01"
/>
<path stroke="#00193f" vector-effect="non-scaling-stroke" d="
  M 427.18 675.04
  Q 426.04 676.14 428.50 676.13
  Q 430.99 676.12 433.17 675.92
  A 0.98 0.97 -2.7 0 1 434.24 676.89
  C 434.20 681.89 433.41 686.85 434.33 691.62
  A 1.20 1.20 0.0 0 1 433.21 693.04
  Q 424.12 693.51 417.25 693.33
  Q 403.30 692.97 389.41 693.02
  Q 388.92 693.02 388.64 693.29
  Q 388.35 693.57 388.21 694.01"
/>
<path stroke="#00193f" vector-effect="non-scaling-stroke" d="
  M 390.71 741.51
  L 366.29 740.39
  A 1.54 1.54 0.0 0 1 364.82 738.84
  Q 365.36 687.08 364.91 635.75
  Q 364.90 633.74 363.96 632.99"
/>
<path stroke="#80828e" vector-effect="non-scaling-stroke" d="
  M 464.99 632.75
  Q 464.52 634.93 464.52 638.50
  Q 464.43 684.75 464.38 731.00
  Q 464.38 732.98 464.55 734.91"
/>
<path stroke="#8095af" vector-effect="non-scaling-stroke" d="
  M 464.55 734.91
  L 464.46 741.08
  A 0.47 0.47 0.0 0 0 464.93 741.56
  L 538.74 741.56
  A 0.60 0.60 0.0 0 0 539.34 740.96
  L 539.34 720.68
  A 0.51 0.50 0.0 0 0 538.83 720.18
  L 489.20 720.18
  A 0.33 0.33 0.0 0 1 488.87 719.85
  L 488.87 629.44
  A 0.47 0.46 -90.0 0 0 488.41 628.97
  L 465.01 628.97
  A 0.65 0.64 -85.2 0 0 464.38 629.51
  Q 463.96 631.94 464.99 632.75"
/>
<path stroke="#00193f" vector-effect="non-scaling-stroke" d="
  M 464.55 734.91
  Q 465.80 735.57 465.80 732.75
  Q 465.80 685.25 465.89 637.75
  Q 465.90 633.90 464.99 632.75"
/>
<path stroke="#8095af" vector-effect="non-scaling-stroke" d="
  M 492.89 762.52
  A 0.54 0.54 0.0 0 0 492.35 761.98
  L 479.67 761.98
  A 0.54 0.54 0.0 0 0 479.13 762.52
  L 479.13 834.48
  A 0.54 0.54 0.0 0 0 479.67 835.02
  L 492.35 835.02
  A 0.54 0.54 0.0 0 0 492.89 834.48
  L 492.89 762.52"
/>
<path stroke="#8095af" vector-effect="non-scaling-stroke" d="
  M 271.26 819.41
  Q 274.83 820.29 279.56 819.71"
/>
<path stroke="#80828e" vector-effect="non-scaling-stroke" d="
  M 279.56 819.71
  L 283.14 819.95
  A 0.79 0.78 -6.9 0 1 283.85 820.50
  L 288.23 834.11
  A 1.39 1.39 0.0 0 0 289.55 835.07
  L 303.59 835.07
  A 0.59 0.59 0.0 0 0 304.14 834.27
  L 278.66 765.29
  A 1.93 1.92 79.7 0 0 276.86 764.04
  L 263.36 764.04
  A 0.92 0.91 10.1 0 0 262.50 764.64
  L 236.92 834.15
  A 0.67 0.67 0.0 0 0 237.55 835.06
  L 250.54 835.06
  A 1.66 1.66 0.0 0 0 252.10 833.97
  L 257.18 820.18
  A 0.68 0.66 8.7 0 1 257.80 819.74
  L 271.26 819.41"
/>
<path stroke="#00193f" vector-effect="non-scaling-stroke" d="
  M 279.56 819.71
  Q 279.00 819.44 278.36 819.37
  A 0.19 0.19 0.0 0 1 278.29 819.02
  C 279.20 818.52 280.75 818.55 282.61 818.63
  A 2.78 2.78 0.0 0 1 285.15 820.57
  L 289.15 833.00
  A 1.62 1.61 76.9 0 0 290.91 834.10
  Q 295.88 833.39 301.86 834.20
  A 0.93 0.93 0.0 0 0 302.78 832.79
  L 301.47 830.65
  A 0.73 0.62 -74.0 0 1 301.38 830.45
  L 277.64 766.20
  A 0.99 0.97 79.5 0 0 276.73 765.56
  L 263.88 765.56
  A 0.75 0.75 0.0 0 0 263.16 766.11
  L 261.27 772.95
  A 1.45 0.88 -53.4 0 1 261.20 773.13
  Q 259.74 776.08 259.10 778.20
  Q 257.71 782.79 254.33 791.05
  Q 252.19 796.28 251.91 797.22
  Q 250.77 801.02 249.68 803.45
  Q 248.67 805.72 246.20 812.77
  Q 243.03 821.81 239.45 830.25
  Q 238.93 831.48 238.88 833.08
  A 0.80 0.80 0.0 0 0 239.68 833.90
  L 249.60 833.90
  A 2.20 2.20 0.0 0 0 251.80 831.63
  Q 251.74 829.82 252.27 828.91
  Q 252.86 827.89 253.11 827.10
  Q 254.46 822.80 256.17 819.23
  A 1.56 1.55 -78.0 0 1 257.52 818.35
  Q 264.50 818.15 271.26 819.41"
/>
<path stroke="#80828e" vector-effect="non-scaling-stroke" d="
  M 656.22 795.63
  L 659.35 795.64
  A 0.73 0.73 0.0 0 1 660.07 796.37
  Q 659.95 811.86 659.97 816.50
  C 660.02 824.13 661.56 830.72 669.35 833.68
  C 674.30 835.55 679.37 835.13 685.21 834.96
  A 0.48 0.48 0.0 0 0 685.68 834.48
  L 685.68 823.21
  A 0.53 0.53 0.0 0 0 685.08 822.69
  C 679.45 823.51 673.97 823.09 673.49 815.98
  Q 673.26 812.63 673.21 796.06
  A 0.37 0.36 -0.0 0 1 673.58 795.70
  L 685.19 795.84
  A 0.40 0.39 -64.1 0 0 685.44 795.75
  Q 685.94 795.32 685.74 794.15"
/>
<path stroke="#8095af" vector-effect="non-scaling-stroke" d="
  M 685.74 794.15
  L 685.81 783.89
  A 0.45 0.44 -90.0 0 0 685.37 783.44
  L 673.58 783.44
  A 0.27 0.26 -0.0 0 1 673.31 783.18
  L 673.31 770.49
  A 0.52 0.51 0.0 0 0 672.79 769.98
  L 660.54 769.98
  A 0.52 0.52 0.0 0 0 660.02 770.50
  L 660.02 782.84
  A 0.60 0.59 -0.0 0 1 659.42 783.43
  L 651.98 783.43
  A 0.65 0.65 0.0 0 0 651.33 784.08
  L 651.33 795.14
  A 0.69 0.69 0.0 0 0 652.06 795.83
  L 656.22 795.63"
/>
<path stroke="#00193f" vector-effect="non-scaling-stroke" d="
  M 685.74 794.15
  L 674.45 794.60
  A 2.43 2.42 88.7 0 0 672.12 797.05
  Q 672.23 806.30 672.24 812.52
  Q 672.26 818.56 673.60 820.59
  Q 675.90 824.05 681.02 824.12
  Q 682.33 824.14 683.77 823.91
  A 0.64 0.64 0.0 0 1 684.51 824.54
  L 684.51 832.73
  A 1.28 1.27 -87.3 0 1 683.12 834.00
  C 680.11 833.72 676.67 834.30 673.53 833.59
  C 667.35 832.21 662.96 830.10 661.84 823.26
  C 660.78 816.76 661.12 810.63 661.13 801.52
  C 661.13 799.46 661.55 797.46 660.84 795.35
  A 1.12 1.12 0.0 0 0 659.97 794.62
  Q 657.22 794.17 656.22 795.63"
/>
<path stroke="#80828e" vector-effect="non-scaling-stroke" d="
  M 355.75 818.18
  L 344.59 816.95
  A 1.53 1.52 16.9 0 0 343.08 817.75
  C 341.09 821.50 337.23 823.89 332.86 823.90
  Q 321.09 823.93 319.44 811.23
  C 318.11 801.04 324.91 792.38 335.88 794.64
  C 339.65 795.42 340.98 797.71 342.96 800.55
  A 1.12 1.10 -17.3 0 0 343.87 801.02
  L 355.33 801.02
  A 0.84 0.84 0.0 0 0 356.14 799.96
  Q 352.02 784.90 337.15 782.74
  C 320.31 780.30 306.06 791.43 305.93 808.48
  Q 305.82 823.39 316.64 831.15
  C 322.88 835.63 332.17 836.60 339.43 834.91
  Q 352.44 831.88 356.33 819.06
  A 0.69 0.68 -78.4 0 0 355.75 818.18"
/>
<path stroke="#8095af" vector-effect="non-scaling-stroke" d="
  M 631.63 828.61
  L 631.73 834.33
  A 0.74 0.73 -0.4 0 0 632.47 835.05
  L 644.14 835.05
  A 0.42 0.42 0.0 0 0 644.56 834.62
  L 644.41 804.74"
/>
<path stroke="#80828e" vector-effect="non-scaling-stroke" d="
  M 644.41 804.74
  Q 645.30 795.40 639.91 789.31
  C 633.69 782.27 623.92 781.59 615.27 782.95
  C 607.04 784.25 599.53 790.23 599.87 799.04
  A 0.71 0.71 0.0 0 0 600.50 799.72
  L 610.06 800.77
  A 0.87 0.87 0.0 0 0 611.01 800.11
  C 612.76 793.09 621.28 792.75 626.78 794.88
  A 6.98 6.97 1.7 0 1 630.90 799.24
  L 632.07 802.88
  A 1.84 1.84 0.0 0 1 629.89 805.23
  Q 619.20 802.63 607.46 804.68
  C 600.50 805.90 596.59 812.04 596.85 819.19
  C 597.35 832.80 611.58 838.21 623.26 835.03
  Q 628.00 833.74 631.63 828.61"
/>
<path stroke="#00193f" vector-effect="non-scaling-stroke" d="
  M 644.41 804.74
  Q 644.41 805.25 644.24 805.31
  A 0.56 0.56 0.0 0 1 643.48 804.77
  C 643.62 797.88 642.55 792.24 636.68 787.82
  Q 631.97 784.28 626.23 783.72
  C 615.12 782.64 603.27 785.19 600.73 797.77
  A 1.29 1.29 0.0 0 0 601.99 799.32
  L 609.08 799.32
  A 1.63 1.62 -76.6 0 0 610.53 798.42
  L 611.85 795.76
  A 1.95 1.90 87.9 0 1 612.53 795.01
  Q 618.16 791.46 625.02 792.98
  C 630.94 794.30 633.87 799.67 632.69 805.54
  A 1.08 1.07 10.6 0 1 631.46 806.38
  Q 626.26 805.48 617.62 804.73
  Q 614.21 804.44 610.90 805.15
  Q 605.23 806.36 604.33 806.88
  Q 597.34 810.98 598.13 819.85
  Q 598.96 829.05 607.60 832.93
  Q 609.39 833.73 615.99 835.00
  A 3.33 3.23 -42.5 0 0 617.04 835.03
  Q 622.23 834.33 623.56 833.81
  Q 626.32 832.74 631.63 828.61"
/>
<path stroke="#80828e" vector-effect="non-scaling-stroke" d="
  M 412.77 818.12
  L 401.61 816.94
  A 1.53 1.52 16.6 0 0 400.10 817.75
  C 398.13 821.50 394.28 823.91 389.91 823.94
  Q 378.15 824.01 376.45 811.32
  C 375.07 801.14 381.84 792.46 392.81 794.67
  C 396.58 795.44 397.92 797.72 399.91 800.55
  A 1.12 1.10 -17.6 0 0 400.83 801.02
  L 412.28 800.97
  A 0.84 0.84 0.0 0 0 413.09 799.91
  Q 408.91 784.87 394.03 782.77
  C 377.19 780.40 362.99 791.58 362.93 808.63
  Q 362.88 823.54 373.73 831.25
  C 379.98 835.70 389.27 836.63 396.52 834.92
  Q 409.52 831.83 413.36 819.00
  A 0.68 0.68 0.0 0 0 412.77 818.12"
/>
<path stroke="#8095af" vector-effect="non-scaling-stroke" d="
  M 466.41 825.70
  Q 468.15 825.02 468.90 822.22
  A 0.71 0.70 25.1 0 0 468.61 821.44
  Q 467.40 820.62 466.27 820.99"
/>
<path stroke="#80828e" vector-effect="non-scaling-stroke" d="
  M 466.27 820.99
  L 458.30 818.25
  A 1.34 1.33 27.6 0 0 456.79 818.72
  Q 453.20 823.54 446.50 824.05
  Q 434.94 824.92 432.30 813.61
  A 0.51 0.51 0.0 0 1 432.80 812.98
  L 469.33 812.98
  A 0.65 0.64 -89.1 0 0 469.97 812.35
  C 470.26 801.08 466.69 789.02 455.62 784.32
  C 449.67 781.79 441.10 781.83 435.12 784.29
  C 421.35 789.94 415.71 806.21 420.98 819.76
  Q 426.94 835.06 444.34 835.69
  Q 452.26 835.98 459.15 832.66
  Q 463.97 830.33 466.41 825.70"
/>
<path stroke="#00193f" vector-effect="non-scaling-stroke" d="
  M 466.27 820.99
  Q 463.13 821.31 459.69 819.62
  A 2.48 2.48 0.0 0 0 456.62 820.36
  C 453.58 824.41 447.69 825.54 442.64 824.98
  C 436.68 824.32 432.95 820.25 431.56 814.73
  Q 430.89 812.07 433.37 812.07
  Q 443.12 812.05 468.22 812.07
  A 1.14 1.14 0.0 0 0 469.34 810.70
  C 468.83 808.17 468.48 807.38 468.29 804.75
  C 467.58 795.00 461.34 785.95 451.23 784.06
  Q 444.01 782.70 436.28 785.00
  Q 430.36 786.76 425.13 793.31
  C 423.60 795.22 420.82 801.71 420.68 803.50
  Q 419.95 812.46 421.57 818.07
  Q 423.70 825.42 430.05 830.27
  C 435.78 834.64 444.90 835.07 451.70 833.97
  Q 459.80 832.66 466.41 825.70"
/>
<path stroke="#80828e" vector-effect="non-scaling-stroke" d="
  M 515.83 812.98
  L 552.20 812.98
  A 0.81 0.81 0.0 0 0 553.01 812.19
  C 553.60 793.94 542.85 779.82 523.14 782.89
  C 511.38 784.73 503.12 794.50 502.19 806.21
  C 500.72 824.86 512.78 837.08 531.48 835.54
  Q 545.53 834.38 551.91 822.49
  A 0.73 0.72 24.2 0 0 551.52 821.47
  L 541.85 817.91
  A 1.57 1.56 -61.4 0 0 540.06 818.44
  Q 536.34 823.38 529.94 824.01
  Q 518.19 825.17 515.27 813.70
  A 0.58 0.58 0.0 0 1 515.83 812.98"
/>
<path stroke="#80828e" vector-effect="non-scaling-stroke" d="
  M 744.2790 806.6213
  A 23.83 23.83 0.0 0 0 720.5323 782.7083
  L 715.8723 782.6920
  A 23.83 23.83 0.0 0 0 691.9593 806.4387
  L 691.9410 811.6787
  A 23.83 23.83 0.0 0 0 715.6877 835.5917
  L 720.3477 835.6080
  A 23.83 23.83 0.0 0 0 744.2607 811.8613
  L 744.2790 806.6213"
/>
<path stroke="#8095af" vector-effect="non-scaling-stroke" d="
  M 576.38 789.19
  Q 575.02 790.47 574.94 789.48"
/>
<path stroke="#80828e" vector-effect="non-scaling-stroke" d="
  M 574.94 789.48
  Q 575.63 786.78 575.34 783.95
  A 0.65 0.64 87.0 0 0 574.70 783.37
  L 562.54 783.37
  A 0.52 0.52 0.0 0 0 562.02 783.89
  L 562.45 830.14"
/>
<path stroke="#8095af" vector-effect="non-scaling-stroke" d="
  M 562.45 830.14
  Q 561.51 830.37 562.11 833.85"
/>
<path stroke="#80828e" vector-effect="non-scaling-stroke" d="
  M 562.11 833.85
  Q 561.87 834.13 562.14 834.60
  A 0.72 0.71 -11.3 0 0 562.69 834.96
  Q 569.60 835.67 575.88 834.17"
/>
<path stroke="#8095af" vector-effect="non-scaling-stroke" d="
  M 575.88 834.17
  L 575.93 805.80"
/>
<path stroke="#80828e" vector-effect="non-scaling-stroke" d="
  M 575.93 805.80
  Q 576.23 802.22 578.29 799.84
  C 581.37 796.29 587.73 795.72 591.83 796.86
  A 0.38 0.38 0.0 0 0 592.32 796.49
  L 592.32 783.31
  A 0.51 0.50 1.8 0 0 591.84 782.81
  Q 582.43 782.15 576.38 789.19"
/>
<path stroke="#00193f" vector-effect="non-scaling-stroke" d="
  M 575.93 805.80
  Q 575.43 805.90 575.21 805.76
  Q 574.73 805.45 574.85 804.87
  C 576.02 799.06 580.68 795.07 586.65 795.36
  Q 586.79 795.37 590.63 795.38
  A 0.80 0.80 0.0 0 0 591.44 794.58
  L 591.44 784.45
  A 0.89 0.89 0.0 0 0 590.48 783.56
  Q 585.28 783.94 580.98 786.60
  A 2.84 2.60 2.6 0 0 580.38 787.10
  Q 578.25 789.51 576.38 789.19"
/>
<path stroke="#00193f" vector-effect="non-scaling-stroke" d="
  M 575.88 834.17
  L 562.11 833.85"
/>
<path stroke="#00193f" vector-effect="non-scaling-stroke" d="
  M 574.94 789.48
  Q 574.47 789.59 574.24 789.30
  Q 574.04 789.04 574.12 788.57
  Q 574.48 786.47 574.56 785.74
  A 1.19 1.19 0.0 0 0 573.38 784.43
  L 563.57 784.43
  A 0.80 0.79 -90.0 0 0 562.78 785.23
  C 562.80 786.91 563.20 788.52 563.23 790.61
  Q 563.47 810.35 562.45 830.14"
/>
<path stroke="#8095af" vector-effect="non-scaling-stroke" d="
  M 767.44 790.10
  Q 767.03 790.64 766.40 790.72"
/>
<path stroke="#80828e" vector-effect="non-scaling-stroke" d="
  M 766.40 790.72
  L 766.87 783.99
  A 0.53 0.52 -88.0 0 0 766.35 783.42
  L 754.18 783.42
  A 0.34 0.34 0.0 0 0 753.84 783.76
  L 753.84 834.45
  A 0.56 0.56 0.0 0 0 754.40 835.01
  L 767.15 835.01
  A 0.48 0.47 -90.0 0 0 767.62 834.53
  Q 767.36 818.51 767.65 805.77
  C 767.85 797.08 777.14 795.02 783.80 796.95
  A 0.41 0.41 0.0 0 0 784.32 796.56
  L 784.32 783.55
  A 0.66 0.65 3.5 0 0 783.74 782.90
  C 777.97 782.20 770.41 784.64 767.44 790.10"
/>
<path stroke="#00193f" vector-effect="non-scaling-stroke" d="
  M 766.40 790.72
  Q 766.15 790.96 765.93 790.92
  A 1.13 1.08 -77.9 0 1 765.10 789.58
  Q 765.61 787.28 765.61 785.44
  A 0.89 0.89 0.0 0 0 764.72 784.55
  L 755.76 784.55
  A 0.90 0.89 90.0 0 0 754.87 785.45
  L 754.87 833.10
  A 0.90 0.90 0.0 0 0 755.77 834.00
  L 765.65 834.00
  A 0.98 0.98 0.0 0 0 766.62 832.87
  L 765.90 828.30
  Q 765.90 828.25 765.90 828.21
  Q 766.26 818.38 766.12 809.46
  C 766.07 806.56 766.71 803.91 767.56 801.80
  C 770.05 795.64 776.55 794.83 782.43 795.38
  A 0.93 0.92 2.8 0 0 783.45 794.46
  L 783.45 784.86
  A 1.21 1.21 0.0 0 0 782.09 783.66
  C 776.62 784.33 772.35 785.47 768.66 789.78
  A 1.02 0.99 -68.0 0 1 767.86 790.13
  Q 767.66 790.12 767.44 790.10"
/>
<path stroke="#8095af" vector-effect="non-scaling-stroke" d="
  M 585.48 652.75
  L 576.17 660.15"
/>
<path stroke="#00193f" vector-effect="non-scaling-stroke" d="
  M 576.17 660.15
  Q 570.66 664.74 568.45 672.42
  Q 567.69 675.09 567.69 676.79
  Q 567.70 679.55 567.39 681.25
  C 566.83 684.31 567.59 689.81 567.98 692.20
  Q 570.05 704.77 579.01 713.49
  Q 584.51 718.86 590.03 720.28
  Q 590.82 720.48 594.88 721.94
  A 4.32 4.24 56.2 0 0 596.03 722.18
  Q 604.80 722.74 611.01 721.68
  Q 625.72 719.17 633.11 706.70
  Q 635.92 701.96 637.88 694.52
  C 638.69 691.46 638.50 689.10 638.84 686.35
  Q 639.16 683.83 638.73 680.17
  Q 637.84 672.57 634.81 666.42
  Q 627.01 650.54 608.93 647.85
  Q 607.71 647.67 598.98 647.44
  A 3.66 3.64 39.5 0 0 598.13 647.52
  Q 590.93 648.93 585.30 651.73
  A 0.68 0.62 -39.3 0 0 585.14 652.83
  Q 585.49 653.07 585.48 652.75"
/>
<path stroke="#80828e" vector-effect="non-scaling-stroke" d="
  M 576.17 660.15
  Q 570.32 668.75 569.06 678.25
  C 566.23 699.53 577.66 720.98 601.33 721.13
  Q 606.75 721.17 609.52 720.72
  C 630.87 717.30 639.87 698.50 637.06 678.64
  C 634.79 662.57 624.14 650.30 607.51 648.97
  Q 595.35 647.99 585.48 652.75"
/>
<path stroke="#00193f" vector-effect="non-scaling-stroke" d="
  M 290.21 693.76
  Q 310.16 693.77 313.28 693.91
  A 1.92 1.92 0.0 0 1 315.11 695.83
  L 315.11 739.47
  A 1.18 1.17 -2.3 0 0 316.38 740.64
  Q 326.75 739.89 335.97 740.60
  A 1.07 1.07 0.0 0 0 337.13 739.50
  Q 336.28 711.94 336.67 685.38
  C 336.92 668.30 336.72 650.69 337.19 630.85
  A 0.67 0.67 0.0 0 0 336.52 630.17
  L 316.05 630.17
  A 0.93 0.92 0.0 0 0 315.12 631.09
  L 315.12 673.52
  A 1.60 1.60 0.0 0 1 313.56 675.12
  C 306.21 675.29 298.47 675.13 290.22 675.13
  C 281.97 675.12 274.22 675.28 266.87 675.10
  A 1.60 1.60 0.0 0 1 265.31 673.50
  L 265.34 631.07
  A 0.93 0.92 0.0 0 0 264.41 630.15
  L 243.94 630.14
  A 0.67 0.67 0.0 0 0 243.27 630.82
  C 243.73 650.66 243.52 668.27 243.75 685.35
  Q 244.12 711.91 243.25 739.47
  A 1.07 1.07 0.0 0 0 244.41 740.57
  Q 253.63 739.86 264.00 740.62
  A 1.18 1.17 2.3 0 0 265.27 739.45
  L 265.31 695.81
  A 1.92 1.92 0.0 0 1 267.13 693.90
  Q 270.26 693.76 290.21 693.76"
/>
<path stroke="#8095af" vector-effect="non-scaling-stroke" d="
  M 270.32 807.82
  Q 278.55 807.83 278.64 807.83
  A 0.42 0.38 -9.2 0 0 279.04 807.33
  L 270.55 780.92
  A 0.21 0.05 72.3 0 0 270.46 780.77
  Q 270.41 780.75 270.37 780.75
  Q 270.32 780.75 270.27 780.77
  A 0.21 0.05 -72.2 0 0 270.18 780.92
  L 261.61 807.30
  A 0.42 0.38 9.3 0 0 262.01 807.80
  Q 262.10 807.80 270.32 807.82"
/>
<path stroke="#00193f" vector-effect="non-scaling-stroke" d="
  M 353.40 799.41
  A 0.92 0.92 0.0 0 0 354.21 798.25
  C 351.81 789.73 344.98 784.22 336.22 783.88
  C 331.00 783.68 325.01 783.61 320.55 786.28
  C 315.44 789.33 310.99 793.50 309.10 799.20
  Q 307.24 804.77 307.24 804.82
  Q 306.45 812.88 308.23 817.04
  Q 310.51 822.36 311.87 824.51
  Q 316.71 832.19 326.46 833.85
  C 336.23 835.51 345.35 833.91 351.83 825.90
  C 353.39 823.97 354.21 821.82 354.92 820.13
  A 0.75 0.75 0.0 0 0 354.31 819.10
  L 345.02 818.08
  A 1.27 1.26 15.4 0 0 343.73 818.81
  C 341.30 824.05 335.03 825.35 329.68 824.73
  C 320.64 823.68 317.40 813.55 318.20 805.55
  A 2.48 2.19 -35.1 0 1 318.35 804.92
  L 320.28 799.98
  A 1.35 1.28 -16.8 0 1 320.40 799.77
  Q 325.95 791.78 335.52 793.54
  C 339.87 794.34 342.19 797.44 344.48 799.75
  A 1.17 1.16 65.1 0 0 345.39 800.09
  L 353.40 799.41"
/>
<path stroke="#00193f" vector-effect="non-scaling-stroke" d="
  M 410.88 799.38
  A 0.71 0.71 0.0 0 0 411.55 798.43
  Q 407.11 786.14 394.77 783.96
  Q 391.37 783.37 385.75 783.98
  Q 381.06 784.50 377.17 786.64
  Q 367.62 791.90 364.82 802.90
  C 363.60 807.70 364.35 812.87 365.34 817.44
  C 367.12 825.66 375.25 832.57 382.95 833.82
  C 395.26 835.82 407.23 832.85 411.86 819.99
  A 0.64 0.64 0.0 0 0 411.33 819.13
  L 402.38 818.15
  A 1.64 1.64 0.0 0 0 400.76 818.99
  Q 398.62 822.88 394.29 824.16
  C 382.46 827.66 375.25 819.82 375.15 808.51
  C 375.09 801.82 378.68 795.54 385.14 793.83
  Q 395.31 791.14 400.51 799.20
  A 1.38 1.37 -11.5 0 0 401.45 799.82
  Q 403.02 800.09 404.96 799.48
  A 2.26 2.16 35.0 0 1 405.62 799.38
  L 410.88 799.38"
/>
<path stroke="#00193f" vector-effect="non-scaling-stroke" d="
  M 550.02 821.69
  L 541.81 819.52
  A 1.88 1.88 0.0 0 0 539.92 820.11
  C 536.57 824.02 532.96 824.89 527.92 825.16
  C 521.09 825.51 516.74 821.81 514.58 815.57
  Q 513.67 812.96 514.97 812.14
  A 0.71 0.68 -58.7 0 1 515.31 812.05
  L 551.16 812.05
  A 1.24 1.23 80.8 0 0 552.33 810.42
  C 551.34 807.42 551.50 804.30 550.70 801.52
  C 547.72 791.12 541.18 784.46 529.99 783.73
  Q 515.94 782.81 508.22 793.11
  Q 503.38 799.55 503.16 808.74
  Q 502.95 817.57 507.66 824.55
  C 511.64 830.44 516.61 833.41 523.29 834.18
  C 534.50 835.47 544.83 833.17 550.49 822.78
  A 0.76 0.75 21.8 0 0 550.02 821.69"
/>
<path stroke="#00193f" vector-effect="non-scaling-stroke" d="
  M 743.4516 807.0521
  A 22.94 22.94 0.0 0 0 720.6320 783.9923
  L 716.0521 783.9684
  A 22.94 22.94 0.0 0 0 692.9923 806.7879
  L 692.9684 811.3479
  A 22.94 22.94 0.0 0 0 715.7880 834.4077
  L 720.3679 834.4316
  A 22.94 22.94 0.0 0 0 743.4277 811.6121
  L 743.4516 807.0521"
/>
<path stroke="#00193f" vector-effect="non-scaling-stroke" d="
  M 431.79 803.97
  L 457.77 804.25
  A 0.13 0.13 0.0 0 0 457.90 804.12
  L 457.90 804.05
  A 12.14 11.60 0.6 0 0 445.88 792.32
  L 443.92 792.30
  A 12.14 11.60 0.6 0 0 431.66 803.77
  L 431.66 803.84
  A 0.13 0.13 0.0 0 0 431.79 803.97"
/>
<path stroke="#00193f" vector-effect="non-scaling-stroke" d="
  M 527.70 804.31
  Q 532.31 804.31 539.72 804.02
  A 1.30 1.30 0.0 0 0 540.94 802.40
  C 539.33 795.96 534.44 792.19 527.71 792.18
  C 520.98 792.17 516.09 795.94 514.47 802.38
  A 1.30 1.30 0.0 0 0 515.68 804.00
  Q 523.10 804.30 527.70 804.31"
/>
<path stroke="#8095af" vector-effect="non-scaling-stroke" d="
  M 630.74 819.82
  C 632.82 815.93 629.61 813.84 626.28 813.32
  C 621.02 812.51 607.07 811.33 609.99 820.36
  Q 611.43 824.81 616.57 825.02
  C 622.15 825.24 628.09 824.80 630.74 819.82"
/>
<path stroke="#00193f" vector-effect="non-scaling-stroke" d="
  M 732.1102 806.1486
  A 12.75 12.75 0.0 0 0 719.4048 793.3542
  L 717.0648 793.3460
  A 12.75 12.75 0.0 0 0 704.2704 806.0514
  L 704.2498 811.9514
  A 12.75 12.75 0.0 0 0 716.9552 824.7458
  L 719.2952 824.7540
  A 12.75 12.75 0.0 0 0 732.0896 812.0486
  L 732.1102 806.1486"
/>
<path stroke="#80828e" vector-effect="non-scaling-stroke" d="
  M 432.94 802.97
  L 456.44 803.05
  A 0.11 0.11 0.0 0 0 456.55 802.94
  L 456.55 802.85
  A 11.75 9.46 0.2 0 0 444.84 793.35
  L 444.62 793.35
  A 11.75 9.46 0.2 0 0 432.83 802.77
  L 432.83 802.86
  A 0.11 0.11 0.0 0 0 432.94 802.97"
/>
<path stroke="#80828e" vector-effect="non-scaling-stroke" d="
  M 515.89 802.99
  L 539.45 803.07
  A 0.13 0.13 0.0 0 0 539.58 802.94
  L 539.58 802.89
  A 11.80 9.44 0.2 0 0 527.82 793.41
  L 527.60 793.41
  A 11.80 9.44 0.2 0 0 515.76 802.81
  L 515.76 802.86
  A 0.13 0.13 0.0 0 0 515.89 802.99"
/>
<path stroke="#80828e" vector-effect="non-scaling-stroke" d="
  M 718.3718 793.9715
  A 15.17 13.33 -89.2 0 0 704.8313 808.9539
  A 15.17 13.33 -89.2 0 0 717.9482 824.3085
  A 15.17 13.33 -89.2 0 0 731.4887 809.3261
  A 15.17 13.33 -89.2 0 0 718.3718 793.9715"
/>
</g>
<path fill="#fffefe" d="
  M 1024.00 0.00
  L 1024.00 1024.00
  L 0.00 1024.00
  L 0.00 0.00
  L 1024.00 0.00
  Z
  M 712.45 548.05
  Q 712.60 544.14 712.60 540.25
  Q 712.67 465.20 712.61 356.25
  Q 712.61 350.59 711.66 347.73
  Q 709.53 341.33 702.93 338.30
  A 2.06 2.04 35.6 0 0 700.67 338.66
  L 684.51 353.79
  A 1.18 1.16 -34.5 0 0 684.25 355.15
  Q 685.41 357.62 685.40 360.50
  Q 685.35 409.00 685.41 554.55
  A 0.46 0.45 90.0 0 1 684.96 555.01
  L 352.23 555.02
  Q 356.77 550.92 361.17 546.91
  Q 404.53 507.44 427.11 486.52
  C 429.95 483.88 431.37 481.94 434.56 485.17
  Q 452.17 503.01 478.33 528.90
  C 484.07 534.57 489.60 532.08 494.46 527.21
  Q 587.08 434.51 693.36 329.61
  Q 695.56 327.44 702.23 321.22
  Q 704.33 319.26 706.43 321.29
  Q 713.15 327.74 724.89 338.34
  C 729.23 342.26 733.78 339.44 734.93 334.42
  Q 753.53 253.33 756.75 239.01
  C 757.63 235.11 756.64 230.26 752.55 228.97
  Q 751.12 228.51 746.97 229.65
  Q 693.54 244.25 655.62 254.09
  C 653.49 254.64 650.27 256.02 649.92 258.64
  Q 649.51 261.67 651.81 263.73
  Q 663.59 274.28 674.70 285.00
  A 1.68 1.68 0.0 0 1 675.01 287.00
  Q 674.10 288.67 672.88 289.88
  Q 668.37 294.34 607.17 353.67
  Q 605.33 355.45 483.92 473.50
  C 481.75 475.62 480.27 477.50 477.69 475.06
  Q 461.63 459.94 445.77 444.48
  Q 443.68 442.44 436.71 435.80
  Q 433.50 432.73 430.07 434.77
  Q 429.37 435.18 428.78 435.73
  Q 382.94 478.24 338.62 520.32
  L 338.58 394.33
  L 338.51 360.02
  A 1.67 1.67 0.0 0 1 339.12 358.73
  L 511.71 216.93
  A 0.84 0.84 0.0 0 1 512.79 216.93
  L 627.02 311.56
  L 630.08 314.09
  A 0.89 0.88 -45.8 0 0 631.23 314.07
  L 650.32 297.11
  A 0.80 0.79 57.6 0 0 650.52 296.20
  Q 650.07 295.17 648.72 294.50
  Q 587.11 243.76 525.61 192.87
  Q 521.39 189.37 517.63 187.95
  Q 512.34 185.95 506.93 187.61
  Q 504.53 188.35 498.03 193.71
  Q 436.99 244.09 319.51 340.26
  C 314.21 344.60 311.93 348.28 311.95 354.52
  Q 312.22 447.71 311.94 563.50
  Q 311.93 569.24 312.68 571.63
  Q 315.48 580.60 324.87 581.89
  Q 326.29 582.08 330.50 582.08
  Q 656.52 582.05 692.26 582.11
  C 701.34 582.12 707.12 581.18 711.07 573.59
  Q 712.46 570.92 712.46 560.94
  Q 712.46 554.49 712.45 548.05
  Z
  M 518.38 416.83
  Q 518.79 416.79 519.30 416.30
  Q 549.39 387.70 563.76 373.79
  A 4.80 4.79 67.8 0 0 565.21 370.33
  Q 565.08 319.16 565.15 310.27
  Q 565.22 302.55 557.65 302.55
  Q 536.26 302.55 527.35 302.44
  C 522.17 302.38 517.84 303.44 517.85 309.07
  Q 517.94 355.05 517.94 416.44
  A 0.40 0.39 -3.3 0 0 518.38 416.83
  Z
  M 497.44 346.57
  Q 482.08 345.40 467.27 346.11
  C 461.88 345.09 455.58 345.91 455.66 353.00
  Q 455.76 361.76 455.71 428.30
  C 455.71 431.79 456.07 433.15 458.57 435.34
  Q 465.32 441.26 476.87 452.18
  Q 480.20 455.33 483.90 451.66
  Q 496.94 438.75 501.75 433.73
  Q 502.96 432.46 502.98 430.25
  Q 502.99 429.39 503.02 353.76
  Q 503.02 346.65 497.44 346.57
  Z
  M 439.88 417.63
  Q 440.95 405.24 439.97 392.50
  Q 440.49 388.40 437.08 386.79
  Q 435.16 385.88 430.28 385.88
  Q 402.79 385.89 399.77 385.98
  Q 393.03 386.18 393.02 392.30
  Q 393.00 417.08 392.99 445.46
  A 0.75 0.75 0.0 0 0 394.24 446.01
  Q 402.32 438.63 411.67 429.93
  C 418.81 423.28 424.39 418.99 434.34 420.24
  Q 436.33 420.49 439.25 421.00
  A 0.79 0.78 -69.5 0 0 440.07 420.62
  Q 441.10 418.80 439.88 417.63
  Z
  M 546.88 667.21
  C 542.36 684.61 544.54 703.92 554.66 718.82
  C 563.66 732.06 577.74 740.54 593.47 742.73
  Q 608.69 744.86 622.20 740.71
  C 645.28 733.63 660.24 714.04 661.79 690.03
  Q 662.61 677.24 659.73 667.48
  Q 653.22 645.47 633.04 633.94
  Q 619.85 626.41 603.79 627.22
  Q 597.73 626.41 590.57 627.84
  C 569.40 632.10 553.03 646.34 546.88 667.21
  Z
  M 707.14 631.93
  Q 693.17 638.46 684.91 651.63
  C 676.70 664.72 674.49 680.42 676.65 695.42
  Q 680.16 719.83 700.03 733.82
  Q 709.84 740.72 721.50 742.53
  C 749.46 746.87 774.45 735.72 783.49 707.47
  L 784.18 703.56
  A 0.48 0.48 0.0 0 0 783.71 702.99
  L 761.28 702.99
  A 1.40 1.39 -77.2 0 0 760.02 703.79
  Q 752.40 719.87 734.76 721.91
  C 714.85 723.04 702.15 708.63 700.34 689.95
  C 699.02 676.41 703.00 662.23 713.96 653.97
  Q 720.49 649.05 728.25 648.30
  Q 746.33 646.57 756.55 660.40
  Q 756.55 660.41 758.73 664.15
  Q 760.10 666.51 761.92 666.95
  L 783.36 666.91
  A 0.46 0.46 0.0 0 0 783.82 666.42
  Q 783.55 662.79 782.19 661.30
  Q 780.66 652.48 774.46 645.02
  Q 760.24 627.92 738.00 626.89
  C 727.09 626.38 717.08 627.37 707.14 631.93
  Z
  M 290.09 694.95
  Q 312.14 694.95 313.40 695.02
  A 0.66 0.65 1.8 0 1 314.02 695.67
  L 314.02 741.18
  A 0.33 0.33 0.0 0 0 314.35 741.51
  L 337.70 741.51
  A 0.26 0.26 0.0 0 0 337.96 741.25
  L 337.96 629.40
  A 0.36 0.36 0.0 0 0 337.60 629.04
  L 314.39 629.04
  A 0.36 0.36 0.0 0 0 314.03 629.40
  L 314.03 673.05
  A 0.82 0.82 0.0 0 1 313.31 673.86
  Q 311.82 674.03 310.00 674.03
  Q 298.07 674.01 290.10 674.01
  Q 282.12 674.01 270.19 674.03
  Q 268.37 674.03 266.88 673.85
  A 0.82 0.82 0.0 0 1 266.16 673.04
  L 266.17 629.39
  A 0.36 0.36 0.0 0 0 265.81 629.03
  L 242.60 629.03
  A 0.36 0.36 0.0 0 0 242.24 629.39
  L 242.22 741.24
  A 0.26 0.26 0.0 0 0 242.48 741.50
  L 265.83 741.50
  A 0.33 0.33 0.0 0 0 266.16 741.17
  L 266.17 695.66
  A 0.66 0.65 -1.8 0 1 266.79 695.02
  Q 268.05 694.94 290.09 694.95
  Z
  M 363.96 632.99
  L 363.97 741.19
  A 0.34 0.34 0.0 0 0 364.31 741.53
  L 390.71 741.51
  L 441.34 741.59
  A 0.44 0.44 0.0 0 0 441.78 741.15
  L 441.78 721.52
  A 0.53 0.53 0.0 0 0 441.25 720.99
  L 388.93 720.99
  A 0.99 0.99 0.0 0 1 387.94 720.00
  L 387.88 694.45
  A 0.22 0.21 61.8 0 1 387.91 694.34
  Q 388.05 694.06 388.21 694.01
  L 434.87 694.05
  A 0.32 0.32 0.0 0 0 435.19 693.73
  L 435.19 675.68
  A 0.50 0.50 0.0 0 0 434.69 675.18
  L 427.18 675.04
  L 402.45 675.01
  L 387.92 674.90
  Q 388.01 662.21 387.97 650.00
  Q 387.97 649.51 388.44 649.46
  L 439.72 649.69
  A 0.25 0.25 0.0 0 0 439.97 649.43
  L 439.74 632.58
  Q 440.39 631.33 439.89 629.47
  A 0.68 0.67 82.8 0 0 439.24 628.96
  L 364.51 628.96
  A 0.55 0.55 0.0 0 0 363.96 629.51
  L 363.96 632.99
  Z
  M 464.99 632.75
  Q 464.52 634.93 464.52 638.50
  Q 464.43 684.75 464.38 731.00
  Q 464.38 732.98 464.55 734.91
  L 464.46 741.08
  A 0.47 0.47 0.0 0 0 464.93 741.56
  L 538.74 741.56
  A 0.60 0.60 0.0 0 0 539.34 740.96
  L 539.34 720.68
  A 0.51 0.50 0.0 0 0 538.83 720.18
  L 489.20 720.18
  A 0.33 0.33 0.0 0 1 488.87 719.85
  L 488.87 629.44
  A 0.47 0.46 -90.0 0 0 488.41 628.97
  L 465.01 628.97
  A 0.65 0.64 -85.2 0 0 464.38 629.51
  Q 463.96 631.94 464.99 632.75
  Z
  M 492.89 762.52
  A 0.54 0.54 0.0 0 0 492.35 761.98
  L 479.67 761.98
  A 0.54 0.54 0.0 0 0 479.13 762.52
  L 479.13 834.48
  A 0.54 0.54 0.0 0 0 479.67 835.02
  L 492.35 835.02
  A 0.54 0.54 0.0 0 0 492.89 834.48
  L 492.89 762.52
  Z
  M 271.26 819.41
  Q 274.83 820.29 279.56 819.71
  L 283.14 819.95
  A 0.79 0.78 -6.9 0 1 283.85 820.50
  L 288.23 834.11
  A 1.39 1.39 0.0 0 0 289.55 835.07
  L 303.59 835.07
  A 0.59 0.59 0.0 0 0 304.14 834.27
  L 278.66 765.29
  A 1.93 1.92 79.7 0 0 276.86 764.04
  L 263.36 764.04
  A 0.92 0.91 10.1 0 0 262.50 764.64
  L 236.92 834.15
  A 0.67 0.67 0.0 0 0 237.55 835.06
  L 250.54 835.06
  A 1.66 1.66 0.0 0 0 252.10 833.97
  L 257.18 820.18
  A 0.68 0.66 8.7 0 1 257.80 819.74
  L 271.26 819.41
  Z
  M 656.22 795.63
  L 659.35 795.64
  A 0.73 0.73 0.0 0 1 660.07 796.37
  Q 659.95 811.86 659.97 816.50
  C 660.02 824.13 661.56 830.72 669.35 833.68
  C 674.30 835.55 679.37 835.13 685.21 834.96
  A 0.48 0.48 0.0 0 0 685.68 834.48
  L 685.68 823.21
  A 0.53 0.53 0.0 0 0 685.08 822.69
  C 679.45 823.51 673.97 823.09 673.49 815.98
  Q 673.26 812.63 673.21 796.06
  A 0.37 0.36 -0.0 0 1 673.58 795.70
  L 685.19 795.84
  A 0.40 0.39 -64.1 0 0 685.44 795.75
  Q 685.94 795.32 685.74 794.15
  L 685.81 783.89
  A 0.45 0.44 -90.0 0 0 685.37 783.44
  L 673.58 783.44
  A 0.27 0.26 -0.0 0 1 673.31 783.18
  L 673.31 770.49
  A 0.52 0.51 0.0 0 0 672.79 769.98
  L 660.54 769.98
  A 0.52 0.52 0.0 0 0 660.02 770.50
  L 660.02 782.84
  A 0.60 0.59 -0.0 0 1 659.42 783.43
  L 651.98 783.43
  A 0.65 0.65 0.0 0 0 651.33 784.08
  L 651.33 795.14
  A 0.69 0.69 0.0 0 0 652.06 795.83
  L 656.22 795.63
  Z
  M 355.75 818.18
  L 344.59 816.95
  A 1.53 1.52 16.9 0 0 343.08 817.75
  C 341.09 821.50 337.23 823.89 332.86 823.90
  Q 321.09 823.93 319.44 811.23
  C 318.11 801.04 324.91 792.38 335.88 794.64
  C 339.65 795.42 340.98 797.71 342.96 800.55
  A 1.12 1.10 -17.3 0 0 343.87 801.02
  L 355.33 801.02
  A 0.84 0.84 0.0 0 0 356.14 799.96
  Q 352.02 784.90 337.15 782.74
  C 320.31 780.30 306.06 791.43 305.93 808.48
  Q 305.82 823.39 316.64 831.15
  C 322.88 835.63 332.17 836.60 339.43 834.91
  Q 352.44 831.88 356.33 819.06
  A 0.69 0.68 -78.4 0 0 355.75 818.18
  Z
  M 631.63 828.61
  L 631.73 834.33
  A 0.74 0.73 -0.4 0 0 632.47 835.05
  L 644.14 835.05
  A 0.42 0.42 0.0 0 0 644.56 834.62
  L 644.41 804.74
  Q 645.30 795.40 639.91 789.31
  C 633.69 782.27 623.92 781.59 615.27 782.95
  C 607.04 784.25 599.53 790.23 599.87 799.04
  A 0.71 0.71 0.0 0 0 600.50 799.72
  L 610.06 800.77
  A 0.87 0.87 0.0 0 0 611.01 800.11
  C 612.76 793.09 621.28 792.75 626.78 794.88
  A 6.98 6.97 1.7 0 1 630.90 799.24
  L 632.07 802.88
  A 1.84 1.84 0.0 0 1 629.89 805.23
  Q 619.20 802.63 607.46 804.68
  C 600.50 805.90 596.59 812.04 596.85 819.19
  C 597.35 832.80 611.58 838.21 623.26 835.03
  Q 628.00 833.74 631.63 828.61
  Z
  M 412.77 818.12
  L 401.61 816.94
  A 1.53 1.52 16.6 0 0 400.10 817.75
  C 398.13 821.50 394.28 823.91 389.91 823.94
  Q 378.15 824.01 376.45 811.32
  C 375.07 801.14 381.84 792.46 392.81 794.67
  C 396.58 795.44 397.92 797.72 399.91 800.55
  A 1.12 1.10 -17.6 0 0 400.83 801.02
  L 412.28 800.97
  A 0.84 0.84 0.0 0 0 413.09 799.91
  Q 408.91 784.87 394.03 782.77
  C 377.19 780.40 362.99 791.58 362.93 808.63
  Q 362.88 823.54 373.73 831.25
  C 379.98 835.70 389.27 836.63 396.52 834.92
  Q 409.52 831.83 413.36 819.00
  A 0.68 0.68 0.0 0 0 412.77 818.12
  Z
  M 466.41 825.70
  Q 468.15 825.02 468.90 822.22
  A 0.71 0.70 25.1 0 0 468.61 821.44
  Q 467.40 820.62 466.27 820.99
  L 458.30 818.25
  A 1.34 1.33 27.6 0 0 456.79 818.72
  Q 453.20 823.54 446.50 824.05
  Q 434.94 824.92 432.30 813.61
  A 0.51 0.51 0.0 0 1 432.80 812.98
  L 469.33 812.98
  A 0.65 0.64 -89.1 0 0 469.97 812.35
  C 470.26 801.08 466.69 789.02 455.62 784.32
  C 449.67 781.79 441.10 781.83 435.12 784.29
  C 421.35 789.94 415.71 806.21 420.98 819.76
  Q 426.94 835.06 444.34 835.69
  Q 452.26 835.98 459.15 832.66
  Q 463.97 830.33 466.41 825.70
  Z
  M 515.83 812.98
  L 552.20 812.98
  A 0.81 0.81 0.0 0 0 553.01 812.19
  C 553.60 793.94 542.85 779.82 523.14 782.89
  C 511.38 784.73 503.12 794.50 502.19 806.21
  C 500.72 824.86 512.78 837.08 531.48 835.54
  Q 545.53 834.38 551.91 822.49
  A 0.73 0.72 24.2 0 0 551.52 821.47
  L 541.85 817.91
  A 1.57 1.56 -61.4 0 0 540.06 818.44
  Q 536.34 823.38 529.94 824.01
  Q 518.19 825.17 515.27 813.70
  A 0.58 0.58 0.0 0 1 515.83 812.98
  Z
  M 744.2790 806.6213
  A 23.83 23.83 0.0 0 0 720.5323 782.7083
  L 715.8723 782.6920
  A 23.83 23.83 0.0 0 0 691.9593 806.4387
  L 691.9410 811.6787
  A 23.83 23.83 0.0 0 0 715.6877 835.5917
  L 720.3477 835.6080
  A 23.83 23.83 0.0 0 0 744.2607 811.8613
  L 744.2790 806.6213
  Z
  M 576.38 789.19
  Q 575.02 790.47 574.94 789.48
  Q 575.63 786.78 575.34 783.95
  A 0.65 0.64 87.0 0 0 574.70 783.37
  L 562.54 783.37
  A 0.52 0.52 0.0 0 0 562.02 783.89
  L 562.45 830.14
  Q 561.51 830.37 562.11 833.85
  Q 561.87 834.13 562.14 834.60
  A 0.72 0.71 -11.3 0 0 562.69 834.96
  Q 569.60 835.67 575.88 834.17
  L 575.93 805.80
  Q 576.23 802.22 578.29 799.84
  C 581.37 796.29 587.73 795.72 591.83 796.86
  A 0.38 0.38 0.0 0 0 592.32 796.49
  L 592.32 783.31
  A 0.51 0.50 1.8 0 0 591.84 782.81
  Q 582.43 782.15 576.38 789.19
  Z
  M 767.44 790.10
  Q 767.03 790.64 766.40 790.72
  L 766.87 783.99
  A 0.53 0.52 -88.0 0 0 766.35 783.42
  L 754.18 783.42
  A 0.34 0.34 0.0 0 0 753.84 783.76
  L 753.84 834.45
  A 0.56 0.56 0.0 0 0 754.40 835.01
  L 767.15 835.01
  A 0.48 0.47 -90.0 0 0 767.62 834.53
  Q 767.36 818.51 767.65 805.77
  C 767.85 797.08 777.14 795.02 783.80 796.95
  A 0.41 0.41 0.0 0 0 784.32 796.56
  L 784.32 783.55
  A 0.66 0.65 3.5 0 0 783.74 782.90
  C 777.97 782.20 770.41 784.64 767.44 790.10
  Z"
/>
<path fill="#00061e" d="
  M 648.72 294.50
  Q 648.57 295.00 648.21 294.95
  Q 647.35 294.83 646.68 294.28
  Q 527.40 196.00 524.27 193.48
  Q 519.72 189.83 517.89 189.14
  Q 510.52 186.39 504.72 190.00
  Q 500.60 192.57 490.05 202.43
  A 2.45 2.42 -82.2 0 1 489.66 202.73
  Q 484.41 206.10 481.41 209.57
  A 5.12 5.11 -86.0 0 1 480.34 210.50
  Q 477.65 212.26 475.37 214.09
  Q 461.78 224.99 453.55 232.33
  Q 450.82 234.75 439.44 243.62
  Q 433.17 248.50 425.61 255.28
  C 422.87 257.73 419.83 259.42 417.63 261.48
  C 413.29 265.54 407.19 269.87 404.05 272.95
  Q 401.47 275.47 397.88 277.91
  Q 395.06 279.83 391.77 283.02
  A 4.87 4.64 -83.3 0 1 391.24 283.46
  Q 388.29 285.49 386.94 287.11
  A 1.34 1.26 8.6 0 1 386.39 287.49
  Q 385.92 287.65 384.00 289.23
  Q 368.64 301.88 364.24 305.55
  C 361.79 307.59 358.85 309.54 356.93 311.69
  A 3.84 3.78 -84.8 0 1 356.14 312.36
  Q 352.14 314.87 346.71 319.68
  Q 341.73 324.08 328.07 334.90
  C 326.28 336.32 325.15 337.72 323.17 338.95
  A 4.43 4.41 -82.0 0 0 322.64 339.35
  C 319.69 342.04 316.03 344.43 314.65 347.24
  Q 313.10 350.42 313.11 352.50
  Q 313.27 459.65 312.85 562.19
  Q 312.85 563.01 313.09 564.92
  C 313.37 567.19 313.23 569.86 313.78 571.72
  C 315.17 576.46 318.91 579.43 323.93 580.54
  Q 327.63 581.35 330.25 581.35
  Q 543.34 581.34 693.09 581.36
  C 696.42 581.36 700.81 580.95 703.41 579.64
  Q 709.99 576.34 711.06 569.03
  C 711.56 565.60 710.62 558.44 711.18 553.59
  Q 711.59 550.09 711.59 547.78
  A 0.39 0.38 7.5 0 1 712.08 547.41
  Q 712.29 547.47 712.45 548.05
  Q 712.46 554.49 712.46 560.94
  Q 712.46 570.92 711.07 573.59
  C 707.12 581.18 701.34 582.12 692.26 582.11
  Q 656.52 582.05 330.50 582.08
  Q 326.29 582.08 324.87 581.89
  Q 315.48 580.60 312.68 571.63
  Q 311.93 569.24 311.94 563.50
  Q 312.22 447.71 311.95 354.52
  C 311.93 348.28 314.21 344.60 319.51 340.26
  Q 436.99 244.09 498.03 193.71
  Q 504.53 188.35 506.93 187.61
  Q 512.34 185.95 517.63 187.95
  Q 521.39 189.37 525.61 192.87
  Q 587.11 243.76 648.72 294.50
  Z"
/>
<path fill="#002c60" d="
  M 648.72 294.50
  Q 650.07 295.17 650.52 296.20
  A 0.80 0.79 57.6 0 1 650.32 297.11
  L 631.23 314.07
  A 0.89 0.88 -45.8 0 1 630.08 314.09
  L 627.02 311.56
  Q 627.44 311.55 627.50 311.45
  Q 627.96 310.65 627.17 310.16
  C 624.86 308.73 623.48 306.63 621.39 305.27
  Q 619.25 303.88 614.18 299.32
  Q 610.84 296.31 606.98 293.22
  Q 596.70 284.98 585.57 275.47
  Q 576.17 267.44 571.30 263.62
  C 566.35 259.73 563.03 256.31 558.61 252.94
  Q 553.61 249.14 549.58 245.82
  Q 540.73 238.55 521.09 222.29
  C 518.62 220.25 516.35 217.60 513.35 215.94
  A 2.32 2.31 39.6 0 0 510.76 216.18
  L 354.86 344.84
  A 0.90 0.85 -73.5 0 1 354.69 344.94
  Q 352.79 345.84 350.72 347.97
  Q 349.53 349.20 348.60 349.87
  Q 346.45 351.41 338.05 358.19
  A 1.13 1.11 73.6 0 0 337.63 358.98
  Q 337.25 363.91 337.19 367.00
  Q 336.96 377.61 337.38 391.99
  Q 337.46 394.96 338.58 394.33
  L 338.62 520.32
  L 338.76 554.26
  A 1.14 1.13 4.4 0 0 339.72 555.38
  Q 347.04 556.54 352.23 555.02
  L 684.96 555.01
  A 0.46 0.45 90.0 0 0 685.41 554.55
  Q 685.35 409.00 685.40 360.50
  Q 685.41 357.62 684.25 355.15
  A 1.18 1.16 -34.5 0 1 684.51 353.79
  L 700.67 338.66
  A 2.06 2.04 35.6 0 1 702.93 338.30
  Q 709.53 341.33 711.66 347.73
  Q 712.61 350.59 712.61 356.25
  Q 712.67 465.20 712.60 540.25
  Q 712.60 544.14 712.45 548.05
  Q 712.29 547.47 712.08 547.41
  A 0.39 0.38 7.5 0 0 711.59 547.78
  Q 711.59 550.09 711.18 553.59
  C 710.62 558.44 711.56 565.60 711.06 569.03
  Q 709.99 576.34 703.41 579.64
  C 700.81 580.95 696.42 581.36 693.09 581.36
  Q 543.34 581.34 330.25 581.35
  Q 327.63 581.35 323.93 580.54
  C 318.91 579.43 315.17 576.46 313.78 571.72
  C 313.23 569.86 313.37 567.19 313.09 564.92
  Q 312.85 563.01 312.85 562.19
  Q 313.27 459.65 313.11 352.50
  Q 313.10 350.42 314.65 347.24
  C 316.03 344.43 319.69 342.04 322.64 339.35
  A 4.43 4.41 -82.0 0 1 323.17 338.95
  C 325.15 337.72 326.28 336.32 328.07 334.90
  Q 341.73 324.08 346.71 319.68
  Q 352.14 314.87 356.14 312.36
  A 3.84 3.78 -84.8 0 0 356.93 311.69
  C 358.85 309.54 361.79 307.59 364.24 305.55
  Q 368.64 301.88 384.00 289.23
  Q 385.92 287.65 386.39 287.49
  A 1.34 1.26 8.6 0 0 386.94 287.11
  Q 388.29 285.49 391.24 283.46
  A 4.87 4.64 -83.3 0 0 391.77 283.02
  Q 395.06 279.83 397.88 277.91
  Q 401.47 275.47 404.05 272.95
  C 407.19 269.87 413.29 265.54 417.63 261.48
  C 419.83 259.42 422.87 257.73 425.61 255.28
  Q 433.17 248.50 439.44 243.62
  Q 450.82 234.75 453.55 232.33
  Q 461.78 224.99 475.37 214.09
  Q 477.65 212.26 480.34 210.50
  A 5.12 5.11 -86.0 0 0 481.41 209.57
  Q 484.41 206.10 489.66 202.73
  A 2.45 2.42 -82.2 0 0 490.05 202.43
  Q 500.60 192.57 504.72 190.00
  Q 510.52 186.39 517.89 189.14
  Q 519.72 189.83 524.27 193.48
  Q 527.40 196.00 646.68 294.28
  Q 647.35 294.83 648.21 294.95
  Q 648.57 295.00 648.72 294.50
  Z"
/>
<path fill="#00061e" d="
  M 627.02 311.56
  L 512.79 216.93
  A 0.84 0.84 0.0 0 0 511.71 216.93
  L 339.12 358.73
  A 1.67 1.67 0.0 0 0 338.51 360.02
  L 338.58 394.33
  Q 337.46 394.96 337.38 391.99
  Q 336.96 377.61 337.19 367.00
  Q 337.25 363.91 337.63 358.98
  A 1.13 1.11 73.6 0 1 338.05 358.19
  Q 346.45 351.41 348.60 349.87
  Q 349.53 349.20 350.72 347.97
  Q 352.79 345.84 354.69 344.94
  A 0.90 0.85 -73.5 0 0 354.86 344.84
  L 510.76 216.18
  A 2.32 2.31 39.6 0 1 513.35 215.94
  C 516.35 217.60 518.62 220.25 521.09 222.29
  Q 540.73 238.55 549.58 245.82
  Q 553.61 249.14 558.61 252.94
  C 563.03 256.31 566.35 259.73 571.30 263.62
  Q 576.17 267.44 585.57 275.47
  Q 596.70 284.98 606.98 293.22
  Q 610.84 296.31 614.18 299.32
  Q 619.25 303.88 621.39 305.27
  C 623.48 306.63 624.86 308.73 627.17 310.16
  Q 627.96 310.65 627.50 311.45
  Q 627.44 311.55 627.02 311.56
  Z"
/>
<path fill="#fe5914" d="
  M 352.23 555.02
  Q 347.04 556.54 339.72 555.38
  A 1.14 1.13 4.4 0 1 338.76 554.26
  L 338.62 520.32
  Q 382.94 478.24 428.78 435.73
  Q 429.37 435.18 430.07 434.77
  Q 433.50 432.73 436.71 435.80
  Q 443.68 442.44 445.77 444.48
  Q 461.63 459.94 477.69 475.06
  C 480.27 477.50 481.75 475.62 483.92 473.50
  Q 605.33 355.45 607.17 353.67
  Q 668.37 294.34 672.88 289.88
  Q 674.10 288.67 675.01 287.00
  A 1.68 1.68 0.0 0 0 674.70 285.00
  Q 663.59 274.28 651.81 263.73
  Q 649.51 261.67 649.92 258.64
  C 650.27 256.02 653.49 254.64 655.62 254.09
  Q 693.54 244.25 746.97 229.65
  Q 751.12 228.51 752.55 228.97
  C 756.64 230.26 757.63 235.11 756.75 239.01
  Q 753.53 253.33 734.93 334.42
  C 733.78 339.44 729.23 342.26 724.89 338.34
  Q 713.15 327.74 706.43 321.29
  Q 704.33 319.26 702.23 321.22
  Q 695.56 327.44 693.36 329.61
  Q 587.08 434.51 494.46 527.21
  C 489.60 532.08 484.07 534.57 478.33 528.90
  Q 452.17 503.01 434.56 485.17
  C 431.37 481.94 429.95 483.88 427.11 486.52
  Q 404.53 507.44 361.17 546.91
  Q 356.77 550.92 352.23 555.02
  Z"
/>
<path fill="#0a4e99" d="
  M 518.38 416.83
  A 0.40 0.39 -3.3 0 1 517.94 416.44
  Q 517.94 355.05 517.85 309.07
  C 517.84 303.44 522.17 302.38 527.35 302.44
  Q 536.26 302.55 557.65 302.55
  Q 565.22 302.55 565.15 310.27
  Q 565.08 319.16 565.21 370.33
  A 4.80 4.79 67.8 0 1 563.76 373.79
  Q 549.39 387.70 519.30 416.30
  Q 518.79 416.79 518.38 416.83
  Z"
/>
<path fill="#0a4e99" d="
  M 467.27 346.11
  Q 467.08 346.44 467.09 346.51
  A 0.60 0.60 0.0 0 0 467.66 347.04
  Q 482.63 347.55 497.44 346.57
  Q 503.02 346.65 503.02 353.76
  Q 502.99 429.39 502.98 430.25
  Q 502.96 432.46 501.75 433.73
  Q 496.94 438.75 483.90 451.66
  Q 480.20 455.33 476.87 452.18
  Q 465.32 441.26 458.57 435.34
  C 456.07 433.15 455.71 431.79 455.71 428.30
  Q 455.76 361.76 455.66 353.00
  C 455.58 345.91 461.88 345.09 467.27 346.11
  Z"
/>
<path fill="#002c60" d="
  M 497.44 346.57
  Q 482.63 347.55 467.66 347.04
  A 0.60 0.60 0.0 0 1 467.09 346.51
  Q 467.08 346.44 467.27 346.11
  Q 482.08 345.40 497.44 346.57
  Z"
/>
<path fill="#0a4e99" d="
  M 439.97 392.50
  Q 438.70 405.21 439.88 417.63
  Q 441.10 418.80 440.07 420.62
  A 0.79 0.78 -69.5 0 1 439.25 421.00
  Q 436.33 420.49 434.34 420.24
  C 424.39 418.99 418.81 423.28 411.67 429.93
  Q 402.32 438.63 394.24 446.01
  A 0.75 0.75 0.0 0 1 392.99 445.46
  Q 393.00 417.08 393.02 392.30
  Q 393.03 386.18 399.77 385.98
  Q 402.79 385.89 430.28 385.88
  Q 435.16 385.88 437.08 386.79
  Q 440.49 388.40 439.97 392.50
  Z"
/>
<path fill="#002c60" d="
  M 439.97 392.50
  Q 440.95 405.24 439.88 417.63
  Q 438.70 405.21 439.97 392.50
  Z"
/>
<path fill="#002c60" d="
  M 603.79 627.22
  Q 612.01 628.06 619.67 630.04
  Q 628.58 632.34 634.55 636.05
  C 645.05 642.58 654.23 653.27 657.99 665.51
  Q 659.78 671.34 659.82 672.66
  Q 659.98 677.83 660.88 682.76
  Q 661.54 686.39 660.24 690.13
  A 0.95 0.93 58.3 0 0 660.18 690.40
  L 659.38 699.80
  A 0.83 0.57 68.2 0 1 659.33 700.02
  C 658.04 702.93 657.63 705.64 656.25 708.77
  Q 652.09 718.17 645.81 724.75
  Q 640.41 730.40 636.67 732.70
  Q 630.75 736.33 624.65 738.70
  Q 618.25 741.18 611.60 741.80
  Q 598.57 743.00 589.19 740.81
  Q 577.60 738.10 567.46 730.27
  Q 555.21 720.83 550.26 707.99
  Q 547.91 701.90 546.56 694.68
  Q 545.84 690.84 546.07 684.98
  C 546.34 678.30 546.03 673.52 547.91 668.26
  Q 548.22 667.39 547.75 667.25
  Q 547.43 667.16 546.88 667.21
  C 553.03 646.34 569.40 632.10 590.57 627.84
  Q 597.73 626.41 603.79 627.22
  Z
  M 585.48 652.75
  L 576.17 660.15
  Q 570.66 664.74 568.45 672.42
  Q 567.69 675.09 567.69 676.79
  Q 567.70 679.55 567.39 681.25
  C 566.83 684.31 567.59 689.81 567.98 692.20
  Q 570.05 704.77 579.01 713.49
  Q 584.51 718.86 590.03 720.28
  Q 590.82 720.48 594.88 721.94
  A 4.32 4.24 56.2 0 0 596.03 722.18
  Q 604.80 722.74 611.01 721.68
  Q 625.72 719.17 633.11 706.70
  Q 635.92 701.96 637.88 694.52
  C 638.69 691.46 638.50 689.10 638.84 686.35
  Q 639.16 683.83 638.73 680.17
  Q 637.84 672.57 634.81 666.42
  Q 627.01 650.54 608.93 647.85
  Q 607.71 647.67 598.98 647.44
  A 3.66 3.64 39.5 0 0 598.13 647.52
  Q 590.93 648.93 585.30 651.73
  A 0.68 0.62 -39.3 0 0 585.14 652.83
  Q 585.49 653.07 585.48 652.75
  Z"
/>
<path fill="#00061e" d="
  M 782.19 661.30
  Q 774.91 640.62 755.81 632.11
  Q 752.88 630.80 751.67 630.57
  C 747.88 629.84 744.72 628.59 740.83 628.22
  Q 730.81 627.29 721.76 628.64
  Q 715.32 629.60 707.68 632.82
  A 0.32 0.32 0.0 0 1 707.35 632.78
  Q 707.03 632.54 707.14 631.93
  C 717.08 627.37 727.09 626.38 738.00 626.89
  Q 760.24 627.92 774.46 645.02
  Q 780.66 652.48 782.19 661.30
  Z"
/>
<path fill="#00061e" d="
  M 546.88 667.21
  Q 547.43 667.16 547.75 667.25
  Q 548.22 667.39 547.91 668.26
  C 546.03 673.52 546.34 678.30 546.07 684.98
  Q 545.84 690.84 546.56 694.68
  Q 547.91 701.90 550.26 707.99
  Q 555.21 720.83 567.46 730.27
  Q 577.60 738.10 589.19 740.81
  Q 598.57 743.00 611.60 741.80
  Q 618.25 741.18 624.65 738.70
  Q 630.75 736.33 636.67 732.70
  Q 640.41 730.40 645.81 724.75
  Q 652.09 718.17 656.25 708.77
  C 657.63 705.64 658.04 702.93 659.33 700.02
  A 0.83 0.57 68.2 0 0 659.38 699.80
  L 660.18 690.40
  A 0.95 0.93 58.3 0 1 660.24 690.13
  Q 661.54 686.39 660.88 682.76
  Q 659.98 677.83 659.82 672.66
  Q 659.78 671.34 657.99 665.51
  C 654.23 653.27 645.05 642.58 634.55 636.05
  Q 628.58 632.34 619.67 630.04
  Q 612.01 628.06 603.79 627.22
  Q 619.85 626.41 633.04 633.94
  Q 653.22 645.47 659.73 667.48
  Q 662.61 677.24 661.79 690.03
  C 660.24 714.04 645.28 733.63 622.20 740.71
  Q 608.69 744.86 593.47 742.73
  C 577.74 740.54 563.66 732.06 554.66 718.82
  C 544.54 703.92 542.36 684.61 546.88 667.21
  Z"
/>
<path fill="#002c60" d="
  M 782.19 661.30
  Q 783.55 662.79 783.82 666.42
  A 0.46 0.46 0.0 0 1 783.36 666.91
  L 761.92 666.95
  Q 758.70 660.12 753.45 655.04
  Q 746.69 648.50 737.97 647.69
  Q 735.59 647.47 733.63 647.34
  Q 729.86 647.07 729.29 647.12
  C 715.46 648.34 705.30 657.64 700.92 670.52
  Q 699.66 674.23 699.36 679.16
  C 698.76 689.03 699.51 697.68 704.45 706.55
  Q 714.43 724.49 735.25 723.18
  A 0.68 0.68 0.0 0 0 735.53 721.90
  Q 735.28 721.76 734.76 721.91
  Q 752.40 719.87 760.02 703.79
  A 1.40 1.39 -77.2 0 1 761.28 702.99
  L 783.71 702.99
  A 0.48 0.48 0.0 0 1 784.18 703.56
  L 783.49 707.47
  Q 782.53 706.86 782.31 707.54
  C 780.09 714.46 776.80 721.57 771.47 726.18
  Q 768.78 728.50 766.82 731.13
  A 0.79 0.79 0.0 0 1 766.32 731.43
  Q 765.82 731.50 764.25 732.76
  Q 756.68 738.81 746.90 740.82
  Q 733.43 743.58 718.10 740.67
  Q 713.38 739.77 704.44 735.02
  C 701.84 733.64 699.36 731.14 697.04 729.63
  C 692.07 726.39 688.16 720.59 684.79 715.49
  Q 681.54 710.58 679.92 704.75
  Q 676.12 691.05 677.60 677.02
  Q 679.00 663.68 685.79 652.61
  A 0.71 0.71 0.0 0 0 685.62 651.67
  Q 685.48 651.56 684.91 651.63
  Q 693.17 638.46 707.14 631.93
  Q 707.03 632.54 707.35 632.78
  A 0.32 0.32 0.0 0 0 707.68 632.82
  Q 715.32 629.60 721.76 628.64
  Q 730.81 627.29 740.83 628.22
  C 744.72 628.59 747.88 629.84 751.67 630.57
  Q 752.88 630.80 755.81 632.11
  Q 774.91 640.62 782.19 661.30
  Z"
/>
<path fill="#00061e" d="
  M 290.10 674.01
  Q 298.07 674.01 310.00 674.03
  Q 311.82 674.03 313.31 673.86
  A 0.82 0.82 0.0 0 0 314.03 673.05
  L 314.03 629.40
  A 0.36 0.36 0.0 0 1 314.39 629.04
  L 337.60 629.04
  A 0.36 0.36 0.0 0 1 337.96 629.40
  L 337.96 741.25
  A 0.26 0.26 0.0 0 1 337.70 741.51
  L 314.35 741.51
  A 0.33 0.33 0.0 0 1 314.02 741.18
  L 314.02 695.67
  A 0.66 0.65 1.8 0 0 313.40 695.02
  Q 312.14 694.95 290.09 694.95
  Q 268.05 694.94 266.79 695.02
  A 0.66 0.65 -1.8 0 0 266.17 695.66
  L 266.16 741.17
  A 0.33 0.33 0.0 0 1 265.83 741.50
  L 242.48 741.50
  A 0.26 0.26 0.0 0 1 242.22 741.24
  L 242.24 629.39
  A 0.36 0.36 0.0 0 1 242.60 629.03
  L 265.81 629.03
  A 0.36 0.36 0.0 0 1 266.17 629.39
  L 266.16 673.04
  A 0.82 0.82 0.0 0 0 266.88 673.85
  Q 268.37 674.03 270.19 674.03
  Q 282.12 674.01 290.10 674.01
  Z
  M 290.21 693.76
  Q 310.16 693.77 313.28 693.91
  A 1.92 1.92 0.0 0 1 315.11 695.83
  L 315.11 739.47
  A 1.18 1.17 -2.3 0 0 316.38 740.64
  Q 326.75 739.89 335.97 740.60
  A 1.07 1.07 0.0 0 0 337.13 739.50
  Q 336.28 711.94 336.67 685.38
  C 336.92 668.30 336.72 650.69 337.19 630.85
  A 0.67 0.67 0.0 0 0 336.52 630.17
  L 316.05 630.17
  A 0.93 0.92 0.0 0 0 315.12 631.09
  L 315.12 673.52
  A 1.60 1.60 0.0 0 1 313.56 675.12
  C 306.21 675.29 298.47 675.13 290.22 675.13
  C 281.97 675.12 274.22 675.28 266.87 675.10
  A 1.60 1.60 0.0 0 1 265.31 673.50
  L 265.34 631.07
  A 0.93 0.92 0.0 0 0 264.41 630.15
  L 243.94 630.14
  A 0.67 0.67 0.0 0 0 243.27 630.82
  C 243.73 650.66 243.52 668.27 243.75 685.35
  Q 244.12 711.91 243.25 739.47
  A 1.07 1.07 0.0 0 0 244.41 740.57
  Q 253.63 739.86 264.00 740.62
  A 1.18 1.17 2.3 0 0 265.27 739.45
  L 265.31 695.81
  A 1.92 1.92 0.0 0 1 267.13 693.90
  Q 270.26 693.76 290.21 693.76
  Z"
/>
<path fill="#002c60" d="
  M 439.74 632.58
  Q 438.71 640.22 439.18 647.69
  A 0.88 0.88 0.0 0 1 438.26 648.62
  Q 435.25 648.49 432.00 648.50
  Q 407.41 648.58 389.25 648.60
  Q 388.41 648.60 388.44 649.46
  Q 387.97 649.51 387.97 650.00
  Q 388.01 662.21 387.92 674.90
  Q 386.46 675.44 388.66 676.14
  A 1.90 1.82 52.7 0 0 389.23 676.23
  L 402.29 676.23
  A 0.55 0.54 -19.1 0 0 402.72 675.35
  L 402.45 675.01
  L 427.18 675.04
  Q 426.04 676.14 428.50 676.13
  Q 430.99 676.12 433.17 675.92
  A 0.98 0.97 -2.7 0 1 434.24 676.89
  C 434.20 681.89 433.41 686.85 434.33 691.62
  A 1.20 1.20 0.0 0 1 433.21 693.04
  Q 424.12 693.51 417.25 693.33
  Q 403.30 692.97 389.41 693.02
  Q 388.92 693.02 388.64 693.29
  Q 388.35 693.57 388.21 694.01
  Q 388.05 694.06 387.91 694.34
  A 0.22 0.21 61.8 0 0 387.88 694.45
  L 387.94 720.00
  A 0.99 0.99 0.0 0 0 388.93 720.99
  L 441.25 720.99
  A 0.53 0.53 0.0 0 1 441.78 721.52
  L 441.78 741.15
  A 0.44 0.44 0.0 0 1 441.34 741.59
  L 390.71 741.51
  L 366.29 740.39
  A 1.54 1.54 0.0 0 1 364.82 738.84
  Q 365.36 687.08 364.91 635.75
  Q 364.90 633.74 363.96 632.99
  L 363.96 629.51
  A 0.55 0.55 0.0 0 1 364.51 628.96
  L 439.24 628.96
  A 0.68 0.67 82.8 0 1 439.89 629.47
  Q 440.39 631.33 439.74 632.58
  Z"
/>
<path fill="#002c60" d="
  M 464.55 734.91
  Q 465.80 735.57 465.80 732.75
  Q 465.80 685.25 465.89 637.75
  Q 465.90 633.90 464.99 632.75
  Q 463.96 631.94 464.38 629.51
  A 0.65 0.64 -85.2 0 1 465.01 628.97
  L 488.41 628.97
  A 0.47 0.46 90.0 0 1 488.87 629.44
  L 488.87 719.85
  A 0.33 0.33 0.0 0 0 489.20 720.18
  L 538.83 720.18
  A 0.51 0.50 0.0 0 1 539.34 720.68
  L 539.34 740.96
  A 0.60 0.60 0.0 0 1 538.74 741.56
  L 464.93 741.56
  A 0.47 0.47 0.0 0 1 464.46 741.08
  L 464.55 734.91
  Z"
/>
<path fill="#002c60" d="
  M 290.22 675.13
  C 298.47 675.13 306.21 675.29 313.56 675.12
  A 1.60 1.60 0.0 0 0 315.12 673.52
  L 315.12 631.09
  A 0.93 0.92 0.0 0 1 316.05 630.17
  L 336.52 630.17
  A 0.67 0.67 0.0 0 1 337.19 630.85
  C 336.72 650.69 336.92 668.30 336.67 685.38
  Q 336.28 711.94 337.13 739.50
  A 1.07 1.07 0.0 0 1 335.97 740.60
  Q 326.75 739.89 316.38 740.64
  A 1.18 1.17 -2.3 0 1 315.11 739.47
  L 315.11 695.83
  A 1.92 1.92 0.0 0 0 313.28 693.91
  Q 310.16 693.77 290.21 693.76
  Q 270.26 693.76 267.13 693.90
  A 1.92 1.92 0.0 0 0 265.31 695.81
  L 265.27 739.45
  A 1.18 1.17 2.3 0 1 264.00 740.62
  Q 253.63 739.86 244.41 740.57
  A 1.07 1.07 0.0 0 1 243.25 739.47
  Q 244.12 711.91 243.75 685.35
  C 243.52 668.27 243.73 650.66 243.27 630.82
  A 0.67 0.67 0.0 0 1 243.94 630.14
  L 264.41 630.15
  A 0.93 0.92 0.0 0 1 265.34 631.07
  L 265.31 673.50
  A 1.60 1.60 0.0 0 0 266.87 675.10
  C 274.22 675.28 281.97 675.12 290.22 675.13
  Z"
/>
<path fill="#00061e" d="
  M 439.74 632.58
  L 439.97 649.43
  A 0.25 0.25 0.0 0 1 439.72 649.69
  L 388.44 649.46
  Q 388.41 648.60 389.25 648.60
  Q 407.41 648.58 432.00 648.50
  Q 435.25 648.49 438.26 648.62
  A 0.88 0.88 0.0 0 0 439.18 647.69
  Q 438.71 640.22 439.74 632.58
  Z"
/>
<path fill="#00061e" d="
  M 390.71 741.51
  L 364.31 741.53
  A 0.34 0.34 0.0 0 1 363.97 741.19
  L 363.96 632.99
  Q 364.90 633.74 364.91 635.75
  Q 365.36 687.08 364.82 738.84
  A 1.54 1.54 0.0 0 0 366.29 740.39
  L 390.71 741.51
  Z"
/>
<path fill="#00061e" d="
  M 464.55 734.91
  Q 464.38 732.98 464.38 731.00
  Q 464.43 684.75 464.52 638.50
  Q 464.52 634.93 464.99 632.75
  Q 465.90 633.90 465.89 637.75
  Q 465.80 685.25 465.80 732.75
  Q 465.80 735.57 464.55 734.91
  Z"
/>
<path fill="#00061e" d="
  M 761.92 666.95
  Q 760.10 666.51 758.73 664.15
  Q 756.55 660.41 756.55 660.40
  Q 746.33 646.57 728.25 648.30
  Q 720.49 649.05 713.96 653.97
  C 703.00 662.23 699.02 676.41 700.34 689.95
  C 702.15 708.63 714.85 723.04 734.76 721.91
  Q 735.28 721.76 735.53 721.90
  A 0.68 0.68 0.0 0 1 735.25 723.18
  Q 714.43 724.49 704.45 706.55
  C 699.51 697.68 698.76 689.03 699.36 679.16
  Q 699.66 674.23 700.92 670.52
  C 705.30 657.64 715.46 648.34 729.29 647.12
  Q 729.86 647.07 733.63 647.34
  Q 735.59 647.47 737.97 647.69
  Q 746.69 648.50 753.45 655.04
  Q 758.70 660.12 761.92 666.95
  Z"
/>
<path fill="#00061e" d="
  M 576.17 660.15
  Q 570.32 668.75 569.06 678.25
  C 566.23 699.53 577.66 720.98 601.33 721.13
  Q 606.75 721.17 609.52 720.72
  C 630.87 717.30 639.87 698.50 637.06 678.64
  C 634.79 662.57 624.14 650.30 607.51 648.97
  Q 595.35 647.99 585.48 652.75
  Q 585.49 653.07 585.14 652.83
  A 0.68 0.62 -39.3 0 1 585.30 651.73
  Q 590.93 648.93 598.13 647.52
  A 3.66 3.64 39.5 0 1 598.98 647.44
  Q 607.71 647.67 608.93 647.85
  Q 627.01 650.54 634.81 666.42
  Q 637.84 672.57 638.73 680.17
  Q 639.16 683.83 638.84 686.35
  C 638.50 689.10 638.69 691.46 637.88 694.52
  Q 635.92 701.96 633.11 706.70
  Q 625.72 719.17 611.01 721.68
  Q 604.80 722.74 596.03 722.18
  A 4.32 4.24 56.2 0 1 594.88 721.94
  Q 590.82 720.48 590.03 720.28
  Q 584.51 718.86 579.01 713.49
  Q 570.05 704.77 567.98 692.20
  C 567.59 689.81 566.83 684.31 567.39 681.25
  Q 567.70 679.55 567.69 676.79
  Q 567.69 675.09 568.45 672.42
  Q 570.66 664.74 576.17 660.15
  Z"
/>
<path fill="#fffefe" d="
  M 576.17 660.15
  L 585.48 652.75
  Q 595.35 647.99 607.51 648.97
  C 624.14 650.30 634.79 662.57 637.06 678.64
  C 639.87 698.50 630.87 717.30 609.52 720.72
  Q 606.75 721.17 601.33 721.13
  C 577.66 720.98 566.23 699.53 569.06 678.25
  Q 570.32 668.75 576.17 660.15
  Z"
/>
<path fill="#00061e" d="
  M 684.91 651.63
  Q 685.48 651.56 685.62 651.67
  A 0.71 0.71 0.0 0 1 685.79 652.61
  Q 679.00 663.68 677.60 677.02
  Q 676.12 691.05 679.92 704.75
  Q 681.54 710.58 684.79 715.49
  C 688.16 720.59 692.07 726.39 697.04 729.63
  C 699.36 731.14 701.84 733.64 704.44 735.02
  Q 713.38 739.77 718.10 740.67
  Q 733.43 743.58 746.90 740.82
  Q 756.68 738.81 764.25 732.76
  Q 765.82 731.50 766.32 731.43
  A 0.79 0.79 0.0 0 0 766.82 731.13
  Q 768.78 728.50 771.47 726.18
  C 776.80 721.57 780.09 714.46 782.31 707.54
  Q 782.53 706.86 783.49 707.47
  C 774.45 735.72 749.46 746.87 721.50 742.53
  Q 709.84 740.72 700.03 733.82
  Q 680.16 719.83 676.65 695.42
  C 674.49 680.42 676.70 664.72 684.91 651.63
  Z"
/>
<path fill="#00061e" d="
  M 387.92 674.90
  L 402.45 675.01
  L 402.72 675.35
  A 0.55 0.54 -19.1 0 1 402.29 676.23
  L 389.23 676.23
  A 1.90 1.82 52.7 0 1 388.66 676.14
  Q 386.46 675.44 387.92 674.90
  Z"
/>
<path fill="#00061e" d="
  M 388.21 694.01
  Q 388.35 693.57 388.64 693.29
  Q 388.92 693.02 389.41 693.02
  Q 403.30 692.97 417.25 693.33
  Q 424.12 693.51 433.21 693.04
  A 1.20 1.20 0.0 0 0 434.33 691.62
  C 433.41 686.85 434.20 681.89 434.24 676.89
  A 0.98 0.97 -2.7 0 0 433.17 675.92
  Q 430.99 676.12 428.50 676.13
  Q 426.04 676.14 427.18 675.04
  L 434.69 675.18
  A 0.50 0.50 0.0 0 1 435.19 675.68
  L 435.19 693.73
  A 0.32 0.32 0.0 0 1 434.87 694.05
  L 388.21 694.01
  Z"
/>
<rect fill="#002c60" x="479.13" y="761.98" width="13.76" height="73.04" rx="0.54"/>
<path fill="#00061e" d="
  M 279.56 819.71
  Q 279.00 819.44 278.36 819.37
  A 0.19 0.19 0.0 0 1 278.29 819.02
  C 279.20 818.52 280.75 818.55 282.61 818.63
  A 2.78 2.78 0.0 0 1 285.15 820.57
  L 289.15 833.00
  A 1.62 1.61 76.9 0 0 290.91 834.10
  Q 295.88 833.39 301.86 834.20
  A 0.93 0.93 0.0 0 0 302.78 832.79
  L 301.47 830.65
  A 0.73 0.62 -74.0 0 1 301.38 830.45
  L 277.64 766.20
  A 0.99 0.97 79.5 0 0 276.73 765.56
  L 263.88 765.56
  A 0.75 0.75 0.0 0 0 263.16 766.11
  L 261.27 772.95
  A 1.45 0.88 -53.4 0 1 261.20 773.13
  Q 259.74 776.08 259.10 778.20
  Q 257.71 782.79 254.33 791.05
  Q 252.19 796.28 251.91 797.22
  Q 250.77 801.02 249.68 803.45
  Q 248.67 805.72 246.20 812.77
  Q 243.03 821.81 239.45 830.25
  Q 238.93 831.48 238.88 833.08
  A 0.80 0.80 0.0 0 0 239.68 833.90
  L 249.60 833.90
  A 2.20 2.20 0.0 0 0 251.80 831.63
  Q 251.74 829.82 252.27 828.91
  Q 252.86 827.89 253.11 827.10
  Q 254.46 822.80 256.17 819.23
  A 1.56 1.55 -78.0 0 1 257.52 818.35
  Q 264.50 818.15 271.26 819.41
  L 257.80 819.74
  A 0.68 0.66 8.7 0 0 257.18 820.18
  L 252.10 833.97
  A 1.66 1.66 0.0 0 1 250.54 835.06
  L 237.55 835.06
  A 0.67 0.67 0.0 0 1 236.92 834.15
  L 262.50 764.64
  A 0.92 0.91 10.1 0 1 263.36 764.04
  L 276.86 764.04
  A 1.93 1.92 79.7 0 1 278.66 765.29
  L 304.14 834.27
  A 0.59 0.59 0.0 0 1 303.59 835.07
  L 289.55 835.07
  A 1.39 1.39 0.0 0 1 288.23 834.11
  L 283.85 820.50
  A 0.79 0.78 -6.9 0 0 283.14 819.95
  L 279.56 819.71
  Z"
/>
<path fill="#002c60" d="
  M 279.56 819.71
  Q 274.83 820.29 271.26 819.41
  Q 264.50 818.15 257.52 818.35
  A 1.56 1.55 -78.0 0 0 256.17 819.23
  Q 254.46 822.80 253.11 827.10
  Q 252.86 827.89 252.27 828.91
  Q 251.74 829.82 251.80 831.63
  A 2.20 2.20 0.0 0 1 249.60 833.90
  L 239.68 833.90
  A 0.80 0.80 0.0 0 1 238.88 833.08
  Q 238.93 831.48 239.45 830.25
  Q 243.03 821.81 246.20 812.77
  Q 248.67 805.72 249.68 803.45
  Q 250.77 801.02 251.91 797.22
  Q 252.19 796.28 254.33 791.05
  Q 257.71 782.79 259.10 778.20
  Q 259.74 776.08 261.20 773.13
  A 1.45 0.88 -53.4 0 0 261.27 772.95
  L 263.16 766.11
  A 0.75 0.75 0.0 0 1 263.88 765.56
  L 276.73 765.56
  A 0.99 0.97 79.5 0 1 277.64 766.20
  L 301.38 830.45
  A 0.73 0.62 -74.0 0 0 301.47 830.65
  L 302.78 832.79
  A 0.93 0.93 0.0 0 1 301.86 834.20
  Q 295.88 833.39 290.91 834.10
  A 1.62 1.61 76.9 0 1 289.15 833.00
  L 285.15 820.57
  A 2.78 2.78 0.0 0 0 282.61 818.63
  C 280.75 818.55 279.20 818.52 278.29 819.02
  A 0.19 0.19 0.0 0 0 278.36 819.37
  Q 279.00 819.44 279.56 819.71
  Z
  M 270.32 807.82
  Q 278.55 807.83 278.64 807.83
  A 0.42 0.38 -9.2 0 0 279.04 807.33
  L 270.55 780.92
  A 0.21 0.05 72.3 0 0 270.46 780.77
  Q 270.41 780.75 270.37 780.75
  Q 270.32 780.75 270.27 780.77
  A 0.21 0.05 -72.2 0 0 270.18 780.92
  L 261.61 807.30
  A 0.42 0.38 9.3 0 0 262.01 807.80
  Q 262.10 807.80 270.32 807.82
  Z"
/>
<path fill="#002c60" d="
  M 685.74 794.15
  L 674.45 794.60
  A 2.43 2.42 88.7 0 0 672.12 797.05
  Q 672.23 806.30 672.24 812.52
  Q 672.26 818.56 673.60 820.59
  Q 675.90 824.05 681.02 824.12
  Q 682.33 824.14 683.77 823.91
  A 0.64 0.64 0.0 0 1 684.51 824.54
  L 684.51 832.73
  A 1.28 1.27 -87.3 0 1 683.12 834.00
  C 680.11 833.72 676.67 834.30 673.53 833.59
  C 667.35 832.21 662.96 830.10 661.84 823.26
  C 660.78 816.76 661.12 810.63 661.13 801.52
  C 661.13 799.46 661.55 797.46 660.84 795.35
  A 1.12 1.12 0.0 0 0 659.97 794.62
  Q 657.22 794.17 656.22 795.63
  L 652.06 795.83
  A 0.69 0.69 0.0 0 1 651.33 795.14
  L 651.33 784.08
  A 0.65 0.65 0.0 0 1 651.98 783.43
  L 659.42 783.43
  A 0.60 0.59 -0.0 0 0 660.02 782.84
  L 660.02 770.50
  A 0.52 0.52 0.0 0 1 660.54 769.98
  L 672.79 769.98
  A 0.52 0.51 -0.0 0 1 673.31 770.49
  L 673.31 783.18
  A 0.27 0.26 0.0 0 0 673.58 783.44
  L 685.37 783.44
  A 0.45 0.44 90.0 0 1 685.81 783.89
  L 685.74 794.15
  Z"
/>
<path fill="#fffefe" d="
  M 270.37 780.75
  Q 270.41 780.75 270.46 780.77
  A 0.21 0.05 72.3 0 1 270.55 780.92
  L 279.04 807.33
  A 0.42 0.38 -9.2 0 1 278.64 807.83
  Q 278.55 807.83 270.32 807.82
  Q 262.10 807.80 262.01 807.80
  A 0.42 0.38 9.3 0 1 261.61 807.30
  L 270.18 780.92
  A 0.21 0.05 -72.2 0 1 270.27 780.77
  Q 270.32 780.75 270.37 780.75
  Z"
/>
<path fill="#00061e" d="
  M 355.75 818.18
  A 0.69 0.68 -78.4 0 1 356.33 819.06
  Q 352.44 831.88 339.43 834.91
  C 332.17 836.60 322.88 835.63 316.64 831.15
  Q 305.82 823.39 305.93 808.48
  C 306.06 791.43 320.31 780.30 337.15 782.74
  Q 352.02 784.90 356.14 799.96
  A 0.84 0.84 0.0 0 1 355.33 801.02
  L 343.87 801.02
  A 1.12 1.10 -17.3 0 1 342.96 800.55
  C 340.98 797.71 339.65 795.42 335.88 794.64
  C 324.91 792.38 318.11 801.04 319.44 811.23
  Q 321.09 823.93 332.86 823.90
  C 337.23 823.89 341.09 821.50 343.08 817.75
  A 1.53 1.52 16.9 0 1 344.59 816.95
  L 355.75 818.18
  Z
  M 353.40 799.41
  A 0.92 0.92 0.0 0 0 354.21 798.25
  C 351.81 789.73 344.98 784.22 336.22 783.88
  C 331.00 783.68 325.01 783.61 320.55 786.28
  C 315.44 789.33 310.99 793.50 309.10 799.20
  Q 307.24 804.77 307.24 804.82
  Q 306.45 812.88 308.23 817.04
  Q 310.51 822.36 311.87 824.51
  Q 316.71 832.19 326.46 833.85
  C 336.23 835.51 345.35 833.91 351.83 825.90
  C 353.39 823.97 354.21 821.82 354.92 820.13
  A 0.75 0.75 0.0 0 0 354.31 819.10
  L 345.02 818.08
  A 1.27 1.26 15.4 0 0 343.73 818.81
  C 341.30 824.05 335.03 825.35 329.68 824.73
  C 320.64 823.68 317.40 813.55 318.20 805.55
  A 2.48 2.19 -35.1 0 1 318.35 804.92
  L 320.28 799.98
  A 1.35 1.28 -16.8 0 1 320.40 799.77
  Q 325.95 791.78 335.52 793.54
  C 339.87 794.34 342.19 797.44 344.48 799.75
  A 1.17 1.16 65.1 0 0 345.39 800.09
  L 353.40 799.41
  Z"
/>
<path fill="#00061e" d="
  M 644.41 804.74
  Q 644.41 805.25 644.24 805.31
  A 0.56 0.56 0.0 0 1 643.48 804.77
  C 643.62 797.88 642.55 792.24 636.68 787.82
  Q 631.97 784.28 626.23 783.72
  C 615.12 782.64 603.27 785.19 600.73 797.77
  A 1.29 1.29 0.0 0 0 601.99 799.32
  L 609.08 799.32
  A 1.63 1.62 -76.6 0 0 610.53 798.42
  L 611.85 795.76
  A 1.95 1.90 87.9 0 1 612.53 795.01
  Q 618.16 791.46 625.02 792.98
  C 630.94 794.30 633.87 799.67 632.69 805.54
  A 1.08 1.07 10.6 0 1 631.46 806.38
  Q 626.26 805.48 617.62 804.73
  Q 614.21 804.44 610.90 805.15
  Q 605.23 806.36 604.33 806.88
  Q 597.34 810.98 598.13 819.85
  Q 598.96 829.05 607.60 832.93
  Q 609.39 833.73 615.99 835.00
  A 3.33 3.23 -42.5 0 0 617.04 835.03
  Q 622.23 834.33 623.56 833.81
  Q 626.32 832.74 631.63 828.61
  Q 628.00 833.74 623.26 835.03
  C 611.58 838.21 597.35 832.80 596.85 819.19
  C 596.59 812.04 600.50 805.90 607.46 804.68
  Q 619.20 802.63 629.89 805.23
  A 1.84 1.84 0.0 0 0 632.07 802.88
  L 630.90 799.24
  A 6.98 6.97 1.7 0 0 626.78 794.88
  C 621.28 792.75 612.76 793.09 611.01 800.11
  A 0.87 0.87 0.0 0 1 610.06 800.77
  L 600.50 799.72
  A 0.71 0.71 0.0 0 1 599.87 799.04
  C 599.53 790.23 607.04 784.25 615.27 782.95
  C 623.92 781.59 633.69 782.27 639.91 789.31
  Q 645.30 795.40 644.41 804.74
  Z"
/>
<path fill="#00061e" d="
  M 412.77 818.12
  A 0.68 0.68 0.0 0 1 413.36 819.00
  Q 409.52 831.83 396.52 834.92
  C 389.27 836.63 379.98 835.70 373.73 831.25
  Q 362.88 823.54 362.93 808.63
  C 362.99 791.58 377.19 780.40 394.03 782.77
  Q 408.91 784.87 413.09 799.91
  A 0.84 0.84 0.0 0 1 412.28 800.97
  L 400.83 801.02
  A 1.12 1.10 -17.6 0 1 399.91 800.55
  C 397.92 797.72 396.58 795.44 392.81 794.67
  C 381.84 792.46 375.07 801.14 376.45 811.32
  Q 378.15 824.01 389.91 823.94
  C 394.28 823.91 398.13 821.50 400.10 817.75
  A 1.53 1.52 16.6 0 1 401.61 816.94
  L 412.77 818.12
  Z
  M 410.88 799.38
  A 0.71 0.71 0.0 0 0 411.55 798.43
  Q 407.11 786.14 394.77 783.96
  Q 391.37 783.37 385.75 783.98
  Q 381.06 784.50 377.17 786.64
  Q 367.62 791.90 364.82 802.90
  C 363.60 807.70 364.35 812.87 365.34 817.44
  C 367.12 825.66 375.25 832.57 382.95 833.82
  C 395.26 835.82 407.23 832.85 411.86 819.99
  A 0.64 0.64 0.0 0 0 411.33 819.13
  L 402.38 818.15
  A 1.64 1.64 0.0 0 0 400.76 818.99
  Q 398.62 822.88 394.29 824.16
  C 382.46 827.66 375.25 819.82 375.15 808.51
  C 375.09 801.82 378.68 795.54 385.14 793.83
  Q 395.31 791.14 400.51 799.20
  A 1.38 1.37 -11.5 0 0 401.45 799.82
  Q 403.02 800.09 404.96 799.48
  A 2.26 2.16 35.0 0 1 405.62 799.38
  L 410.88 799.38
  Z"
/>
<path fill="#00061e" d="
  M 466.27 820.99
  Q 463.13 821.31 459.69 819.62
  A 2.48 2.48 0.0 0 0 456.62 820.36
  C 453.58 824.41 447.69 825.54 442.64 824.98
  C 436.68 824.32 432.95 820.25 431.56 814.73
  Q 430.89 812.07 433.37 812.07
  Q 443.12 812.05 468.22 812.07
  A 1.14 1.14 0.0 0 0 469.34 810.70
  C 468.83 808.17 468.48 807.38 468.29 804.75
  C 467.58 795.00 461.34 785.95 451.23 784.06
  Q 444.01 782.70 436.28 785.00
  Q 430.36 786.76 425.13 793.31
  C 423.60 795.22 420.82 801.71 420.68 803.50
  Q 419.95 812.46 421.57 818.07
  Q 423.70 825.42 430.05 830.27
  C 435.78 834.64 444.90 835.07 451.70 833.97
  Q 459.80 832.66 466.41 825.70
  Q 463.97 830.33 459.15 832.66
  Q 452.26 835.98 444.34 835.69
  Q 426.94 835.06 420.98 819.76
  C 415.71 806.21 421.35 789.94 435.12 784.29
  C 441.10 781.83 449.67 781.79 455.62 784.32
  C 466.69 789.02 470.26 801.08 469.97 812.35
  A 0.65 0.64 -89.1 0 1 469.33 812.98
  L 432.80 812.98
  A 0.51 0.51 0.0 0 0 432.30 813.61
  Q 434.94 824.92 446.50 824.05
  Q 453.20 823.54 456.79 818.72
  A 1.34 1.33 27.6 0 1 458.30 818.25
  L 466.27 820.99
  Z"
/>
<path fill="#00061e" d="
  M 515.27 813.70
  Q 518.19 825.17 529.94 824.01
  Q 536.34 823.38 540.06 818.44
  A 1.57 1.56 -61.4 0 1 541.85 817.91
  L 551.52 821.47
  A 0.73 0.72 24.2 0 1 551.91 822.49
  Q 545.53 834.38 531.48 835.54
  C 512.78 837.08 500.72 824.86 502.19 806.21
  C 503.12 794.50 511.38 784.73 523.14 782.89
  C 542.85 779.82 553.60 793.94 553.01 812.19
  A 0.81 0.81 0.0 0 1 552.20 812.98
  L 515.83 812.98
  A 0.58 0.58 0.0 0 0 515.27 813.70
  Z
  M 550.02 821.69
  L 541.81 819.52
  A 1.88 1.88 0.0 0 0 539.92 820.11
  C 536.57 824.02 532.96 824.89 527.92 825.16
  C 521.09 825.51 516.74 821.81 514.58 815.57
  Q 513.67 812.96 514.97 812.14
  A 0.71 0.68 -58.7 0 1 515.31 812.05
  L 551.16 812.05
  A 1.24 1.23 80.8 0 0 552.33 810.42
  C 551.34 807.42 551.50 804.30 550.70 801.52
  C 547.72 791.12 541.18 784.46 529.99 783.73
  Q 515.94 782.81 508.22 793.11
  Q 503.38 799.55 503.16 808.74
  Q 502.95 817.57 507.66 824.55
  C 511.64 830.44 516.61 833.41 523.29 834.18
  C 534.50 835.47 544.83 833.17 550.49 822.78
  A 0.76 0.75 21.8 0 0 550.02 821.69
  Z"
/>
<path fill="#00061e" d="
  M 744.2607 811.8613
  A 23.83 23.83 0.0 0 1 720.3477 835.6080
  L 715.6877 835.5917
  A 23.83 23.83 0.0 0 1 691.9410 811.6787
  L 691.9593 806.4387
  A 23.83 23.83 0.0 0 1 715.8723 782.6920
  L 720.5323 782.7083
  A 23.83 23.83 0.0 0 1 744.2790 806.6213
  L 744.2607 811.8613
  Z
  M 743.4516 807.0521
  A 22.94 22.94 0.0 0 0 720.6320 783.9923
  L 716.0521 783.9684
  A 22.94 22.94 0.0 0 0 692.9923 806.7879
  L 692.9684 811.3479
  A 22.94 22.94 0.0 0 0 715.7880 834.4077
  L 720.3679 834.4316
  A 22.94 22.94 0.0 0 0 743.4277 811.6121
  L 743.4516 807.0521
  Z"
/>
<path fill="#00061e" d="
  M 575.93 805.80
  Q 575.43 805.90 575.21 805.76
  Q 574.73 805.45 574.85 804.87
  C 576.02 799.06 580.68 795.07 586.65 795.36
  Q 586.79 795.37 590.63 795.38
  A 0.80 0.80 0.0 0 0 591.44 794.58
  L 591.44 784.45
  A 0.89 0.89 0.0 0 0 590.48 783.56
  Q 585.28 783.94 580.98 786.60
  A 2.84 2.60 2.6 0 0 580.38 787.10
  Q 578.25 789.51 576.38 789.19
  Q 582.43 782.15 591.84 782.81
  A 0.51 0.50 1.8 0 1 592.32 783.31
  L 592.32 796.49
  A 0.38 0.38 0.0 0 1 591.83 796.86
  C 587.73 795.72 581.37 796.29 578.29 799.84
  Q 576.23 802.22 575.93 805.80
  Z"
/>
<path fill="#00061e" d="
  M 766.40 790.72
  Q 766.15 790.96 765.93 790.92
  A 1.13 1.08 -77.9 0 1 765.10 789.58
  Q 765.61 787.28 765.61 785.44
  A 0.89 0.89 0.0 0 0 764.72 784.55
  L 755.76 784.55
  A 0.90 0.89 90.0 0 0 754.87 785.45
  L 754.87 833.10
  A 0.90 0.90 0.0 0 0 755.77 834.00
  L 765.65 834.00
  A 0.98 0.98 0.0 0 0 766.62 832.87
  L 765.90 828.30
  Q 765.90 828.25 765.90 828.21
  Q 766.26 818.38 766.12 809.46
  C 766.07 806.56 766.71 803.91 767.56 801.80
  C 770.05 795.64 776.55 794.83 782.43 795.38
  A 0.93 0.92 2.8 0 0 783.45 794.46
  L 783.45 784.86
  A 1.21 1.21 0.0 0 0 782.09 783.66
  C 776.62 784.33 772.35 785.47 768.66 789.78
  A 1.02 0.99 -68.0 0 1 767.86 790.13
  Q 767.66 790.12 767.44 790.10
  C 770.41 784.64 777.97 782.20 783.74 782.90
  A 0.66 0.65 3.5 0 1 784.32 783.55
  L 784.32 796.56
  A 0.41 0.41 0.0 0 1 783.80 796.95
  C 777.14 795.02 767.85 797.08 767.65 805.77
  Q 767.36 818.51 767.62 834.53
  A 0.48 0.47 90.0 0 1 767.15 835.01
  L 754.40 835.01
  A 0.56 0.56 0.0 0 1 753.84 834.45
  L 753.84 783.76
  A 0.34 0.34 0.0 0 1 754.18 783.42
  L 766.35 783.42
  A 0.53 0.52 -88.0 0 1 766.87 783.99
  L 766.40 790.72
  Z"
/>
<path fill="#00061e" d="
  M 574.94 789.48
  Q 574.47 789.59 574.24 789.30
  Q 574.04 789.04 574.12 788.57
  Q 574.48 786.47 574.56 785.74
  A 1.19 1.19 0.0 0 0 573.38 784.43
  L 563.57 784.43
  A 0.80 0.79 -90.0 0 0 562.78 785.23
  C 562.80 786.91 563.20 788.52 563.23 790.61
  Q 563.47 810.35 562.45 830.14
  L 562.02 783.89
  A 0.52 0.52 0.0 0 1 562.54 783.37
  L 574.70 783.37
  A 0.65 0.64 87.0 0 1 575.34 783.95
  Q 575.63 786.78 574.94 789.48
  Z"
/>
<path fill="#002c60" d="
  M 575.93 805.80
  L 575.88 834.17
  L 562.11 833.85
  Q 561.51 830.37 562.45 830.14
  Q 563.47 810.35 563.23 790.61
  C 563.20 788.52 562.80 786.91 562.78 785.23
  A 0.80 0.79 -90.0 0 1 563.57 784.43
  L 573.38 784.43
  A 1.19 1.19 0.0 0 1 574.56 785.74
  Q 574.48 786.47 574.12 788.57
  Q 574.04 789.04 574.24 789.30
  Q 574.47 789.59 574.94 789.48
  Q 575.02 790.47 576.38 789.19
  Q 578.25 789.51 580.38 787.10
  A 2.84 2.60 2.6 0 1 580.98 786.60
  Q 585.28 783.94 590.48 783.56
  A 0.89 0.89 0.0 0 1 591.44 784.45
  L 591.44 794.58
  A 0.80 0.80 0.0 0 1 590.63 795.38
  Q 586.79 795.37 586.65 795.36
  C 580.68 795.07 576.02 799.06 574.85 804.87
  Q 574.73 805.45 575.21 805.76
  Q 575.43 805.90 575.93 805.80
  Z"
/>
<path fill="#002c60" d="
  M 353.40 799.41
  L 345.39 800.09
  A 1.17 1.16 65.1 0 1 344.48 799.75
  C 342.19 797.44 339.87 794.34 335.52 793.54
  Q 325.95 791.78 320.40 799.77
  A 1.35 1.28 -16.8 0 0 320.28 799.98
  L 318.35 804.92
  A 2.48 2.19 -35.1 0 0 318.20 805.55
  C 317.40 813.55 320.64 823.68 329.68 824.73
  C 335.03 825.35 341.30 824.05 343.73 818.81
  A 1.27 1.26 15.4 0 1 345.02 818.08
  L 354.31 819.10
  A 0.75 0.75 0.0 0 1 354.92 820.13
  C 354.21 821.82 353.39 823.97 351.83 825.90
  C 345.35 833.91 336.23 835.51 326.46 833.85
  Q 316.71 832.19 311.87 824.51
  Q 310.51 822.36 308.23 817.04
  Q 306.45 812.88 307.24 804.82
  Q 307.24 804.77 309.10 799.20
  C 310.99 793.50 315.44 789.33 320.55 786.28
  C 325.01 783.61 331.00 783.68 336.22 783.88
  C 344.98 784.22 351.81 789.73 354.21 798.25
  A 0.92 0.92 0.0 0 1 353.40 799.41
  Z"
/>
<path fill="#002c60" d="
  M 410.88 799.38
  L 405.62 799.38
  A 2.26 2.16 35.0 0 0 404.96 799.48
  Q 403.02 800.09 401.45 799.82
  A 1.38 1.37 -11.5 0 1 400.51 799.20
  Q 395.31 791.14 385.14 793.83
  C 378.68 795.54 375.09 801.82 375.15 808.51
  C 375.25 819.82 382.46 827.66 394.29 824.16
  Q 398.62 822.88 400.76 818.99
  A 1.64 1.64 0.0 0 1 402.38 818.15
  L 411.33 819.13
  A 0.64 0.64 0.0 0 1 411.86 819.99
  C 407.23 832.85 395.26 835.82 382.95 833.82
  C 375.25 832.57 367.12 825.66 365.34 817.44
  C 364.35 812.87 363.60 807.70 364.82 802.90
  Q 367.62 791.90 377.17 786.64
  Q 381.06 784.50 385.75 783.98
  Q 391.37 783.37 394.77 783.96
  Q 407.11 786.14 411.55 798.43
  A 0.71 0.71 0.0 0 1 410.88 799.38
  Z"
/>
<path fill="#002c60" d="
  M 466.27 820.99
  Q 467.40 820.62 468.61 821.44
  A 0.71 0.70 25.1 0 1 468.90 822.22
  Q 468.15 825.02 466.41 825.70
  Q 459.80 832.66 451.70 833.97
  C 444.90 835.07 435.78 834.64 430.05 830.27
  Q 423.70 825.42 421.57 818.07
  Q 419.95 812.46 420.68 803.50
  C 420.82 801.71 423.60 795.22 425.13 793.31
  Q 430.36 786.76 436.28 785.00
  Q 444.01 782.70 451.23 784.06
  C 461.34 785.95 467.58 795.00 468.29 804.75
  C 468.48 807.38 468.83 808.17 469.34 810.70
  A 1.14 1.14 0.0 0 1 468.22 812.07
  Q 443.12 812.05 433.37 812.07
  Q 430.89 812.07 431.56 814.73
  C 432.95 820.25 436.68 824.32 442.64 824.98
  C 447.69 825.54 453.58 824.41 456.62 820.36
  A 2.48 2.48 0.0 0 1 459.69 819.62
  Q 463.13 821.31 466.27 820.99
  Z
  M 431.79 803.97
  L 457.77 804.25
  A 0.13 0.13 0.0 0 0 457.90 804.12
  L 457.90 804.05
  A 12.14 11.60 0.6 0 0 445.88 792.32
  L 443.92 792.30
  A 12.14 11.60 0.6 0 0 431.66 803.77
  L 431.66 803.84
  A 0.13 0.13 0.0 0 0 431.79 803.97
  Z"
/>
<path fill="#002c60" d="
  M 550.49 822.78
  C 544.83 833.17 534.50 835.47 523.29 834.18
  C 516.61 833.41 511.64 830.44 507.66 824.55
  Q 502.95 817.57 503.16 808.74
  Q 503.38 799.55 508.22 793.11
  Q 515.94 782.81 529.99 783.73
  C 541.18 784.46 547.72 791.12 550.70 801.52
  C 551.50 804.30 551.34 807.42 552.33 810.42
  A 1.24 1.23 80.8 0 1 551.16 812.05
  L 515.31 812.05
  A 0.71 0.68 -58.7 0 0 514.97 812.14
  Q 513.67 812.96 514.58 815.57
  C 516.74 821.81 521.09 825.51 527.92 825.16
  C 532.96 824.89 536.57 824.02 539.92 820.11
  A 1.88 1.88 0.0 0 1 541.81 819.52
  L 550.02 821.69
  A 0.76 0.75 21.8 0 1 550.49 822.78
  Z
  M 527.70 804.31
  Q 532.31 804.31 539.72 804.02
  A 1.30 1.30 0.0 0 0 540.94 802.40
  C 539.33 795.96 534.44 792.19 527.71 792.18
  C 520.98 792.17 516.09 795.94 514.47 802.38
  A 1.30 1.30 0.0 0 0 515.68 804.00
  Q 523.10 804.30 527.70 804.31
  Z"
/>
<path fill="#002c60" d="
  M 644.41 804.74
  L 644.56 834.62
  A 0.42 0.42 0.0 0 1 644.14 835.05
  L 632.47 835.05
  A 0.74 0.73 -0.4 0 1 631.73 834.33
  L 631.63 828.61
  Q 626.32 832.74 623.56 833.81
  Q 622.23 834.33 617.04 835.03
  A 3.33 3.23 -42.5 0 1 615.99 835.00
  Q 609.39 833.73 607.60 832.93
  Q 598.96 829.05 598.13 819.85
  Q 597.34 810.98 604.33 806.88
  Q 605.23 806.36 610.90 805.15
  Q 614.21 804.44 617.62 804.73
  Q 626.26 805.48 631.46 806.38
  A 1.08 1.07 10.6 0 0 632.69 805.54
  C 633.87 799.67 630.94 794.30 625.02 792.98
  Q 618.16 791.46 612.53 795.01
  A 1.95 1.90 87.9 0 0 611.85 795.76
  L 610.53 798.42
  A 1.63 1.62 -76.6 0 1 609.08 799.32
  L 601.99 799.32
  A 1.29 1.29 0.0 0 1 600.73 797.77
  C 603.27 785.19 615.12 782.64 626.23 783.72
  Q 631.97 784.28 636.68 787.82
  C 642.55 792.24 643.62 797.88 643.48 804.77
  A 0.56 0.56 0.0 0 0 644.24 805.31
  Q 644.41 805.25 644.41 804.74
  Z
  M 630.74 819.82
  C 632.82 815.93 629.61 813.84 626.28 813.32
  C 621.02 812.51 607.07 811.33 609.99 820.36
  Q 611.43 824.81 616.57 825.02
  C 622.15 825.24 628.09 824.80 630.74 819.82
  Z"
/>
<path fill="#002c60" d="
  M 743.4277 811.6121
  A 22.94 22.94 0.0 0 1 720.3679 834.4316
  L 715.7880 834.4077
  A 22.94 22.94 0.0 0 1 692.9684 811.3479
  L 692.9923 806.7879
  A 22.94 22.94 0.0 0 1 716.0521 783.9684
  L 720.6320 783.9923
  A 22.94 22.94 0.0 0 1 743.4516 807.0521
  L 743.4277 811.6121
  Z
  M 732.1102 806.1486
  A 12.75 12.75 0.0 0 0 719.4048 793.3542
  L 717.0648 793.3460
  A 12.75 12.75 0.0 0 0 704.2704 806.0514
  L 704.2498 811.9514
  A 12.75 12.75 0.0 0 0 716.9552 824.7458
  L 719.2952 824.7540
  A 12.75 12.75 0.0 0 0 732.0896 812.0486
  L 732.1102 806.1486
  Z"
/>
<path fill="#002c60" d="
  M 766.40 790.72
  Q 767.03 790.64 767.44 790.10
  Q 767.66 790.12 767.86 790.13
  A 1.02 0.99 -68.0 0 0 768.66 789.78
  C 772.35 785.47 776.62 784.33 782.09 783.66
  A 1.21 1.21 0.0 0 1 783.45 784.86
  L 783.45 794.46
  A 0.93 0.92 2.8 0 1 782.43 795.38
  C 776.55 794.83 770.05 795.64 767.56 801.80
  C 766.71 803.91 766.07 806.56 766.12 809.46
  Q 766.26 818.38 765.90 828.21
  Q 765.90 828.25 765.90 828.30
  L 766.62 832.87
  A 0.98 0.98 0.0 0 1 765.65 834.00
  L 755.77 834.00
  A 0.90 0.90 0.0 0 1 754.87 833.10
  L 754.87 785.45
  A 0.90 0.89 90.0 0 1 755.76 784.55
  L 764.72 784.55
  A 0.89 0.89 0.0 0 1 765.61 785.44
  Q 765.61 787.28 765.10 789.58
  A 1.13 1.08 -77.9 0 0 765.93 790.92
  Q 766.15 790.96 766.40 790.72
  Z"
/>
<path fill="#00061e" d="
  M 431.79 803.97
  A 0.13 0.13 0.0 0 1 431.66 803.84
  L 431.66 803.77
  A 12.14 11.60 0.6 0 1 443.92 792.30
  L 445.88 792.32
  A 12.14 11.60 0.6 0 1 457.90 804.05
  L 457.90 804.12
  A 0.13 0.13 0.0 0 1 457.77 804.25
  L 431.79 803.97
  Z
  M 432.94 802.97
  L 456.44 803.05
  A 0.11 0.11 0.0 0 0 456.55 802.94
  L 456.55 802.85
  A 11.75 9.46 0.2 0 0 444.84 793.35
  L 444.62 793.35
  A 11.75 9.46 0.2 0 0 432.83 802.77
  L 432.83 802.86
  A 0.11 0.11 0.0 0 0 432.94 802.97
  Z"
/>
<path fill="#00061e" d="
  M 527.71 792.18
  C 534.44 792.19 539.33 795.96 540.94 802.40
  A 1.30 1.30 0.0 0 1 539.72 804.02
  Q 532.31 804.31 527.70 804.31
  Q 523.10 804.30 515.68 804.00
  A 1.30 1.30 0.0 0 1 514.47 802.38
  C 516.09 795.94 520.98 792.17 527.71 792.18
  Z
  M 515.89 802.99
  L 539.45 803.07
  A 0.13 0.13 0.0 0 0 539.58 802.94
  L 539.58 802.89
  A 11.80 9.44 0.2 0 0 527.82 793.41
  L 527.60 793.41
  A 11.80 9.44 0.2 0 0 515.76 802.81
  L 515.76 802.86
  A 0.13 0.13 0.0 0 0 515.89 802.99
  Z"
/>
<path fill="#00061e" d="
  M 732.0896 812.0486
  A 12.75 12.75 0.0 0 1 719.2952 824.7540
  L 716.9552 824.7458
  A 12.75 12.75 0.0 0 1 704.2498 811.9514
  L 704.2704 806.0514
  A 12.75 12.75 0.0 0 1 717.0648 793.3460
  L 719.4048 793.3542
  A 12.75 12.75 0.0 0 1 732.1102 806.1486
  L 732.0896 812.0486
  Z
  M 718.3718 793.9715
  A 15.17 13.33 -89.2 0 0 704.8313 808.9539
  A 15.17 13.33 -89.2 0 0 717.9482 824.3085
  A 15.17 13.33 -89.2 0 0 731.4887 809.3261
  A 15.17 13.33 -89.2 0 0 718.3718 793.9715
  Z"
/>
<path fill="#fffefe" d="
  M 432.94 802.97
  A 0.11 0.11 0.0 0 1 432.83 802.86
  L 432.83 802.77
  A 11.75 9.46 0.2 0 1 444.62 793.35
  L 444.84 793.35
  A 11.75 9.46 0.2 0 1 456.55 802.85
  L 456.55 802.94
  A 0.11 0.11 0.0 0 1 456.44 803.05
  L 432.94 802.97
  Z"
/>
<path fill="#fffefe" d="
  M 515.89 802.99
  A 0.13 0.13 0.0 0 1 515.76 802.86
  L 515.76 802.81
  A 11.80 9.44 0.2 0 1 527.60 793.41
  L 527.82 793.41
  A 11.80 9.44 0.2 0 1 539.58 802.89
  L 539.58 802.94
  A 0.13 0.13 0.0 0 1 539.45 803.07
  L 515.89 802.99
  Z"
/>
<path fill="#00061e" d="
  M 685.74 794.15
  Q 685.94 795.32 685.44 795.75
  A 0.40 0.39 -64.1 0 1 685.19 795.84
  L 673.58 795.70
  A 0.37 0.36 -0.0 0 0 673.21 796.06
  Q 673.26 812.63 673.49 815.98
  C 673.97 823.09 679.45 823.51 685.08 822.69
  A 0.53 0.53 0.0 0 1 685.68 823.21
  L 685.68 834.48
  A 0.48 0.48 0.0 0 1 685.21 834.96
  C 679.37 835.13 674.30 835.55 669.35 833.68
  C 661.56 830.72 660.02 824.13 659.97 816.50
  Q 659.95 811.86 660.07 796.37
  A 0.73 0.73 0.0 0 0 659.35 795.64
  L 656.22 795.63
  Q 657.22 794.17 659.97 794.62
  A 1.12 1.12 0.0 0 1 660.84 795.35
  C 661.55 797.46 661.13 799.46 661.13 801.52
  C 661.12 810.63 660.78 816.76 661.84 823.26
  C 662.96 830.10 667.35 832.21 673.53 833.59
  C 676.67 834.30 680.11 833.72 683.12 834.00
  A 1.28 1.27 -87.3 0 0 684.51 832.73
  L 684.51 824.54
  A 0.64 0.64 0.0 0 0 683.77 823.91
  Q 682.33 824.14 681.02 824.12
  Q 675.90 824.05 673.60 820.59
  Q 672.26 818.56 672.24 812.52
  Q 672.23 806.30 672.12 797.05
  A 2.43 2.42 88.7 0 1 674.45 794.60
  L 685.74 794.15
  Z"
/>
<ellipse fill="#fffefe" cx="0.00" cy="0.00" transform="translate(718.16,809.14) rotate(-89.2)" rx="15.17" ry="13.33"/>
<path fill="#fffefe" d="
  M 626.28 813.32
  C 629.61 813.84 632.82 815.93 630.74 819.82
  C 628.09 824.80 622.15 825.24 616.57 825.02
  Q 611.43 824.81 609.99 820.36
  C 607.07 811.33 621.02 812.51 626.28 813.32
  Z"
/>
<path fill="#00061e" d="
  M 575.88 834.17
  Q 569.60 835.67 562.69 834.96
  A 0.72 0.71 -11.3 0 1 562.14 834.60
  Q 561.87 834.13 562.11 833.85
  L 575.88 834.17
  Z"
/>
</svg>
